G04                                                                  *
G04 SOURCE        : LAYO1 PCB.EXE VERSION 10                         *
G04 FORMAT        : GERBER RS-274X, Inch, 2.4, Leading Zero          *
G04 TITLE         : CAN-GC1E_SIGNAL BOTTOM                           *
G04 TIME          : Monday, April 02, 2012  13:36:45                 *
G04                                                                  *
G04 Board width   : 149.860 mm. =  5.9000 inch                       *
G04 Board height  :  58.420 mm. =  2.3000 inch                       *
G04 Board offset  :   0.000 mm. =  0.0000 inch                       *
G04 Board offset  :   0.000 mm. =  0.0000 inch                       *
G04                                                                  *
G04 Apertures:                                                       *
G04       Type          X       Y             X       Y        Used  *
G04                      Inches                Metric                *
G04 D10   Draw        0.0079  0.0079        0.200   0.200         5  *
G04 D11   Round       0.0622  0.0622        1.580   1.580       176  *
G04 D12   Round       0.2118  0.2118        5.380   5.380         4  *
G04 D13   Round       0.0874  0.0874        2.220   2.220        38  *
G04 D14   Round       0.1622  0.1622        4.120   4.120         8  *
G04 D15   Round       0.2622  0.2622        6.660   6.660         6  *
G04 D16   Round       0.1118  0.1118        2.840   2.840         8  *
G04 D17   Draw        0.0625  0.0625        1.588   1.588        59  *
G04 D18   Draw        0.0375  0.0375        0.953   0.953       292  *
G04 D19   Draw        0.0125  0.0125        0.318   0.318       126  *
G04 D20   Round       0.1370  0.1370        3.480   3.480         4  *
G04 D21   Round       0.0394  0.0394        1.000   1.000         1  *
G04 D22   Round       0.1874  0.1874        4.760   4.760         2  *
G04                                                                  *
%FSLAX24Y24*
MOIN*
SFA1.0B1.0*%
%ADD10C,0.0079*%
%ADD11C,0.0622*%
%ADD12C,0.2118*%
%ADD13C,0.0874*%
%ADD14C,0.1622*%
%ADD15C,0.2622*%
%ADD16C,0.1118*%
%ADD17C,0.0625*%
%ADD18C,0.0375*%
%ADD19C,0.0125*%
%ADD20C,0.1370*%
%ADD21C,0.0394*%
%ADD22C,0.1874*%
%LNSIGNAL BOTTOM*%
G54D10*
X000000Y023000D02*
X000000Y000000D01*
X059000Y000000D01*
X059000Y023000D01*
X000000Y023000D01*
G54D11*
X033000Y010375D03*
X032000Y010375D03*
X031000Y010375D03*
X030000Y010375D03*
X025000Y007375D03*
X028000Y007375D03*
X029000Y007375D03*
X032000Y007375D03*
X033000Y007375D03*
X014016Y012000D03*
X013016Y012000D03*
X012016Y012000D03*
X041000Y007375D03*
X032594Y004625D03*
X045219Y004625D03*
X005898Y006250D03*
X031438Y012563D03*
X045125Y013313D03*
X027250Y014750D03*
X049359Y018750D03*
X009016Y018250D03*
X010531Y018000D03*
X006516Y018250D03*
X004766Y017516D03*
X034000Y010375D03*
X035313Y013875D03*
X000641Y004000D03*
X000641Y009500D03*
X009891Y006250D03*
X000641Y005000D03*
X011695Y004258D03*
X009742Y007219D03*
X016016Y012000D03*
X016000Y013500D03*
X015016Y009000D03*
X014695Y004258D03*
X014016Y009000D03*
X017516Y010375D03*
X012016Y009000D03*
X014531Y007266D03*
X014125Y005625D03*
X026000Y010375D03*
X026516Y011750D03*
X022000Y007375D03*
X011016Y012000D03*
X023000Y007375D03*
X010016Y012000D03*
X007016Y012000D03*
X008016Y013500D03*
X006891Y013500D03*
X022000Y010375D03*
X009016Y012000D03*
X029000Y010375D03*
X008016Y012000D03*
X035000Y010375D03*
X036438Y010375D03*
X011016Y009000D03*
X012531Y007266D03*
X013000Y005625D03*
X005016Y012000D03*
X006695Y006250D03*
X003641Y007000D03*
X005016Y009000D03*
X003641Y004000D03*
X009094Y006250D03*
X027000Y010375D03*
X028516Y011750D03*
X004016Y012000D03*
X003641Y006000D03*
X007492Y006250D03*
X004016Y009000D03*
X008297Y006250D03*
X003641Y005000D03*
X003016Y012000D03*
X005141Y013375D03*
X000641Y006000D03*
X001766Y009500D03*
X000641Y007000D03*
X034000Y007375D03*
X035000Y007375D03*
X017516Y007375D03*
X005047Y007219D03*
X023000Y010375D03*
X020516Y010375D03*
X024000Y010375D03*
X019516Y010375D03*
X025000Y010375D03*
X018516Y010375D03*
X024000Y007375D03*
X023500Y006000D03*
X017391Y001875D03*
X020516Y007375D03*
X015391Y001875D03*
X019516Y007375D03*
X018516Y007375D03*
X013391Y001875D03*
X031508Y004625D03*
X044133Y004625D03*
X034320Y005438D03*
X031000Y007375D03*
X041000Y010375D03*
X042000Y007375D03*
X033141Y003625D03*
X045766Y003625D03*
X047016Y010500D03*
X043000Y007375D03*
X047016Y007500D03*
X032055Y003625D03*
X044680Y003625D03*
X030000Y007375D03*
X044000Y010375D03*
X033680Y004625D03*
X046305Y004625D03*
X044000Y007375D03*
X045016Y007500D03*
X003016Y009000D03*
X007016Y009000D03*
X008016Y009000D03*
X013016Y009000D03*
X016016Y009000D03*
X008016Y010500D03*
X013000Y015500D03*
X006516Y019250D03*
X006891Y016500D03*
X040375Y016016D03*
X030422Y004625D03*
X030969Y003625D03*
X043047Y004625D03*
X043594Y003625D03*
X047828Y009625D03*
X028000Y010375D03*
X026000Y007375D03*
X015016Y012000D03*
X006016Y012000D03*
X006016Y009000D03*
X009016Y009000D03*
X010016Y009000D03*
X043000Y010375D03*
X005141Y016375D03*
X045016Y010500D03*
X028000Y008938D03*
X043516Y009000D03*
X010016Y010500D03*
X008016Y015500D03*
X001766Y011500D03*
X000641Y011500D03*
X015125Y005625D03*
X012000Y005625D03*
X015000Y013500D03*
X044125Y013313D03*
X026250Y014750D03*
X040375Y018016D03*
X013000Y016500D03*
X034766Y004625D03*
X034227Y003625D03*
X047391Y004625D03*
X046852Y003625D03*
X010742Y007219D03*
X006047Y007219D03*
X007766Y017516D03*
X010531Y015000D03*
X027516Y011750D03*
X049359Y015750D03*
X017625Y018000D03*
X027000Y007375D03*
X042000Y010375D03*
X036438Y007375D03*
X026000Y008938D03*
X041516Y009000D03*
X012391Y001875D03*
X014391Y001875D03*
X016391Y001875D03*
X009016Y019250D03*
X038313Y013875D03*
X017625Y016000D03*
X020500Y006000D03*
G54D12*
X037406Y004125D03*
X027586Y004125D03*
X050031Y004125D03*
X040211Y004125D03*
G54D13*
X037813Y012250D03*
X030063Y013500D03*
X030063Y011625D03*
X025000Y017750D03*
X042875Y017750D03*
X043547Y018828D03*
X022000Y018000D03*
X025672Y018828D03*
X024313Y016375D03*
X044883Y018828D03*
X047750Y013016D03*
X032813Y013500D03*
X002016Y013750D03*
X034813Y012250D03*
X038813Y012250D03*
X039813Y012250D03*
X024438Y006000D03*
X046016Y008500D03*
X046016Y009500D03*
X014000Y018813D03*
X002016Y015750D03*
X049750Y013016D03*
X048750Y014016D03*
X035813Y012250D03*
X026336Y017750D03*
X027680Y017750D03*
X044211Y017750D03*
X045555Y017750D03*
X011070Y000602D03*
X004711Y000602D03*
X032813Y011625D03*
X013000Y018813D03*
X028313Y016375D03*
X025438Y006000D03*
X022000Y016000D03*
X036813Y012250D03*
X027008Y018828D03*
X012000Y018813D03*
G54D14*
X017688Y020813D03*
X040188Y020813D03*
X054375Y002500D03*
X057000Y007188D03*
X055000Y007188D03*
X053000Y007188D03*
X052375Y002500D03*
X051000Y007188D03*
G54D15*
X057500Y001500D03*
X057500Y018500D03*
X001500Y018500D03*
X001500Y001500D03*
X057500Y021500D03*
X001500Y021500D03*
G54D16*
X056375Y005000D03*
X056625Y013250D03*
X033375Y018781D03*
X042891Y016125D03*
X054375Y005000D03*
X033375Y014781D03*
X047891Y016125D03*
X053625Y013250D03*
G54D17*
X056375Y005000D02*
X054391Y003016D01*
X054391Y002500D01*
X033375Y018781D02*
X035156Y017000D01*
X041938Y017000D01*
X042813Y016125D01*
X042891Y016125D01*
X043563Y018828D02*
X042438Y018828D01*
X041938Y018328D01*
X041938Y017000D01*
X041938Y016891D01*
X042688Y016141D01*
X042938Y016141D01*
X054375Y005000D02*
X055000Y005625D01*
X055000Y007250D01*
X053000Y007188D02*
X053000Y006188D01*
X052375Y005563D01*
X052375Y002500D01*
X057000Y007188D02*
X056688Y007500D01*
X056688Y013313D01*
X045125Y013313D02*
X045125Y012938D01*
X044625Y012438D01*
X042250Y012438D01*
X039250Y015438D01*
X035250Y015438D01*
X034500Y016188D01*
X031250Y016188D01*
X029813Y014750D01*
X027250Y014750D01*
X019016Y002500D02*
X019016Y003563D01*
X020391Y004938D01*
X025703Y004938D01*
X026516Y005750D01*
X029266Y005750D01*
X030391Y004625D01*
X044125Y013313D02*
X044125Y014188D01*
X044188Y014250D01*
X044188Y014328D01*
X044188Y017500D01*
X044250Y017563D01*
X044250Y017766D01*
X045563Y017766D01*
X047891Y016125D02*
X046094Y014328D01*
X044141Y014328D01*
X044141Y013328D01*
X051000Y007188D02*
X051000Y008563D01*
X053625Y011188D01*
X053625Y013234D01*
X053625Y013313D01*
G54D18*
X025000Y017750D02*
X025000Y017250D01*
X025750Y016500D01*
X026250Y016500D01*
X027250Y015500D01*
X027250Y014750D01*
X022000Y018000D02*
X023250Y018000D01*
X024313Y016375D02*
X023375Y017313D01*
X023375Y018000D01*
X022000Y018000D01*
X010531Y018000D02*
X010281Y018250D01*
X009000Y018250D01*
X004766Y017516D02*
X005500Y018250D01*
X006500Y018250D01*
X016000Y013500D02*
X016000Y012000D01*
X014125Y005625D02*
X014531Y006031D01*
X014531Y007266D01*
X013672Y008125D01*
X012766Y008125D01*
X012016Y008875D01*
X012016Y009000D01*
X026000Y010375D02*
X026000Y011375D01*
X026375Y011750D01*
X026500Y011750D01*
X008016Y013500D02*
X006891Y013500D01*
X006891Y013125D01*
X007016Y013000D01*
X007016Y012000D01*
X036438Y010375D02*
X035000Y010375D01*
X035000Y011188D01*
X034813Y011375D01*
X034813Y012250D01*
X011016Y009000D02*
X011016Y008625D01*
X012391Y007250D01*
X012500Y007250D01*
X013000Y006750D01*
X013000Y005625D01*
X028516Y011750D02*
X028453Y011750D01*
X027078Y010375D01*
X027016Y010375D01*
X003016Y012000D02*
X003016Y012563D01*
X003828Y013375D01*
X005141Y013375D01*
X000641Y006000D02*
X000641Y007000D01*
X001766Y008125D01*
X001766Y009500D01*
X023500Y006000D02*
X024438Y006000D01*
X024000Y006000D01*
X024000Y007375D01*
X020516Y007375D02*
X020516Y007063D01*
X017391Y003938D01*
X017391Y001875D01*
X015391Y001875D02*
X015391Y002688D01*
X019516Y006813D01*
X019516Y007375D01*
X013391Y001875D02*
X016078Y004563D01*
X016516Y004563D01*
X018516Y006563D01*
X018516Y007375D01*
X044133Y004625D02*
X044133Y005250D01*
X043570Y005813D01*
X034758Y005813D01*
X034383Y005438D01*
X034320Y005438D01*
X047016Y010500D02*
X046578Y010500D01*
X046016Y009938D01*
X046016Y009500D01*
X046305Y004625D02*
X046305Y005438D01*
X045430Y006313D01*
X034242Y006313D01*
X033680Y005750D01*
X033680Y004625D01*
X044000Y007375D02*
X044125Y007500D01*
X045016Y007500D01*
X007016Y009000D02*
X008016Y009000D01*
X008016Y010500D01*
X016016Y009000D02*
X016016Y009500D01*
X015641Y009875D01*
X013391Y009875D01*
X013016Y009500D01*
X013016Y009000D01*
X006516Y019250D02*
X007141Y019250D01*
X007391Y019000D01*
X007391Y018125D01*
X006891Y017625D01*
X006891Y016500D01*
X049750Y013016D02*
X048750Y014016D01*
X048750Y014016D02*
X048750Y011016D01*
X047828Y010094D01*
X047828Y009625D01*
X049359Y018750D02*
X049312Y018797D01*
X048750Y018797D01*
X044875Y018797D01*
X032859Y013500D02*
X034797Y013500D01*
X035172Y013875D01*
X035297Y013875D01*
X000641Y004000D02*
X000641Y005000D01*
X010742Y007219D02*
X010742Y007781D01*
X009992Y008531D01*
X009992Y008969D01*
X010000Y008977D01*
X010000Y010438D01*
X009016Y009000D02*
X010016Y009000D01*
X006047Y007219D02*
X006000Y007266D01*
X006000Y008313D01*
X006000Y009000D01*
X006016Y012000D02*
X006016Y009000D01*
X009016Y009000D02*
X009016Y008563D01*
X008766Y008313D01*
X006016Y008313D01*
X015125Y005625D02*
X016828Y007328D01*
X016828Y009438D01*
X015766Y010500D01*
X015000Y010500D01*
X015016Y010516D01*
X015016Y012000D01*
X015016Y012563D01*
X015016Y013500D01*
X010016Y010500D02*
X015016Y010500D01*
X015016Y012000D01*
X011070Y000602D02*
X010383Y001289D01*
X010383Y001852D01*
X005320Y001852D01*
X005320Y001164D01*
X004758Y000602D01*
X010742Y007219D02*
X010742Y002469D01*
X010367Y002094D01*
X010367Y001844D01*
X008016Y015500D02*
X005516Y015500D01*
X005141Y015875D01*
X005141Y016375D01*
X006016Y012000D02*
X006016Y014375D01*
X006016Y015500D01*
X008016Y015500D01*
X001766Y011500D02*
X001766Y012125D01*
X004016Y014375D01*
X006016Y014375D01*
X013000Y016500D02*
X014000Y016500D01*
X015500Y018000D01*
X017625Y018000D01*
X026266Y014750D02*
X026250Y014734D01*
X026250Y013859D01*
X027500Y012609D01*
X027500Y011750D01*
X027984Y010375D02*
X027984Y008938D01*
X027922Y008875D01*
X027188Y008875D01*
X025984Y007672D01*
X025984Y007375D01*
X025438Y006000D02*
X025750Y006000D01*
X025938Y006188D01*
X025938Y007375D01*
X045016Y010500D02*
X045016Y009750D01*
X044266Y009000D01*
X043516Y009000D01*
X043000Y009516D01*
X043000Y010375D01*
X028000Y008938D02*
X028063Y009000D01*
X031500Y009000D01*
X032500Y009000D01*
X032500Y009750D01*
X032500Y010875D02*
X032500Y011188D01*
X032500Y011625D01*
X031500Y009000D02*
X031500Y009750D01*
X031500Y010875D02*
X031500Y011313D01*
X031813Y011625D01*
X032438Y011625D01*
X032813Y011625D01*
X035813Y012250D02*
X035813Y011625D01*
X036250Y011188D01*
X040125Y011188D01*
X040563Y011625D01*
X043875Y011625D01*
X045000Y010500D01*
X013000Y016500D02*
X012500Y016500D01*
X011000Y015000D01*
X010500Y015000D01*
X009000Y016500D01*
X008375Y016500D01*
X007766Y017109D01*
X007766Y017484D01*
X012000Y005625D02*
X012000Y005250D01*
X012250Y005000D01*
X014875Y005000D01*
X015125Y005250D01*
X015125Y005625D01*
X012391Y001875D02*
X012391Y001500D01*
X012828Y001063D01*
X014391Y001063D01*
X016141Y001063D01*
X016391Y001313D01*
X016391Y001875D01*
X014391Y001875D02*
X014391Y001063D01*
X017625Y016000D02*
X022000Y016000D01*
X020500Y006000D02*
X020938Y006000D01*
X021250Y006313D01*
X021250Y007125D01*
X021250Y008938D01*
X026000Y008938D01*
X041516Y009000D02*
X042000Y009484D01*
X042000Y010375D01*
X036438Y007375D02*
X038625Y007375D01*
X040250Y009000D01*
X041500Y009000D01*
X036813Y012250D02*
X036813Y013125D01*
X037625Y013938D01*
X038313Y013938D01*
X009016Y019250D02*
X010141Y019250D01*
X010578Y018813D01*
X012016Y018813D01*
X017625Y016000D02*
X017625Y014750D01*
X017938Y014438D01*
X017938Y012250D01*
X016688Y011000D01*
X016688Y010313D01*
X018063Y008938D01*
X021188Y008938D01*
X021250Y008875D01*
X021250Y007125D01*
X011953Y018875D02*
X012016Y018813D01*
X012016Y018125D01*
X012266Y017875D01*
X014391Y017875D01*
X015453Y018938D01*
X017828Y018938D01*
X018453Y018313D01*
X018453Y017625D01*
X017641Y016813D01*
X017641Y016000D01*
G54D19*
X047750Y013016D02*
X047750Y014453D01*
X048750Y015453D01*
X048750Y018766D01*
X034000Y010375D02*
X033938Y010438D01*
X033938Y012375D01*
X032859Y013453D01*
X032859Y013500D01*
X000641Y009500D02*
X000641Y010250D01*
X001203Y010813D01*
X001203Y012938D01*
X002016Y013750D01*
X009891Y006250D02*
X009891Y004250D01*
X008891Y003250D01*
X003266Y003250D01*
X002516Y004000D01*
X000641Y004000D01*
X005016Y012000D02*
X003516Y010500D01*
X003516Y007875D01*
X003641Y007750D01*
X003641Y007000D01*
X003641Y007000D02*
X003891Y007000D01*
X005266Y005625D01*
X006328Y005625D01*
X006703Y006000D01*
X006703Y006250D01*
X003641Y004000D02*
X004016Y003625D01*
X008266Y003625D01*
X009078Y004438D01*
X009078Y006250D01*
X004016Y012000D02*
X002453Y010438D01*
X002453Y006938D01*
X003391Y006000D01*
X003641Y006000D01*
X004266Y006000D01*
X005141Y005125D01*
X007141Y005125D01*
X007516Y005500D01*
X007516Y006250D01*
X003641Y005000D02*
X004641Y004000D01*
X007500Y004000D01*
X008313Y004813D01*
X008313Y006250D01*
X020516Y010375D02*
X020516Y009938D01*
X020766Y009688D01*
X022578Y009688D01*
X023016Y010125D01*
X023016Y010375D01*
X019516Y010375D02*
X019516Y010750D01*
X019953Y011188D01*
X023578Y011188D01*
X024016Y010750D01*
X024016Y010375D01*
X018516Y010375D02*
X019703Y011563D01*
X024141Y011563D01*
X025016Y010688D01*
X025016Y010375D01*
X041000Y010375D02*
X038625Y008000D01*
X031266Y008000D01*
X031016Y007750D01*
X031016Y007375D01*
X045766Y003625D02*
X046391Y003000D01*
X047516Y003000D01*
X048141Y003625D01*
X048141Y005813D01*
X047516Y006438D01*
X046516Y006438D01*
X046016Y006938D01*
X046016Y008500D01*
X046016Y008500D02*
X044891Y008500D01*
X044641Y008250D01*
X042203Y008250D01*
X042000Y008047D01*
X042000Y007375D01*
X035266Y003313D02*
X034891Y002938D01*
X033578Y002938D01*
X033141Y003375D01*
X033141Y003625D01*
X044680Y003625D02*
X044680Y002688D01*
X044742Y002625D01*
X047617Y002625D01*
X048430Y003438D01*
X048430Y006063D01*
X047000Y007492D01*
X047000Y007500D01*
X044680Y002625D02*
X032555Y002625D01*
X032055Y003125D01*
X032055Y003625D01*
X023016Y002500D02*
X022953Y002500D01*
X022953Y003438D01*
X023266Y003750D01*
X025766Y003750D01*
X027016Y002500D01*
X031641Y002500D01*
X032078Y002938D01*
X032078Y003625D01*
X030000Y007375D02*
X030000Y007750D01*
X030563Y008313D01*
X038000Y008313D01*
X040813Y011125D01*
X043688Y011125D01*
X043984Y010828D01*
X043984Y010375D01*
X032500Y009750D02*
X032500Y010875D01*
X031500Y009750D02*
X031500Y010875D01*
G54D20*
X021016Y002500D03*
X023016Y002500D03*
X019016Y002500D03*
X025016Y002500D03*
G54D21*
X035266Y003313D03*
G54D22*
X010391Y001852D03*
X005391Y001852D03*
M02*
