G04                                                                  *
G04 SOURCE        : LAYO1 PCB.EXE VERSION 10                         *
G04 FORMAT        : GERBER RS-274X, Inch, 2.4, Leading Zero          *
G04 TITLE         : CAN-GC1E_SOLDERMASK BOTTOM                       *
G04 TIME          : Friday, March 23, 2012  17:34:09                 *
G04                                                                  *
G04 Board width   : 149.860 mm. =  5.9000 inch                       *
G04 Board height  :  72.390 mm. =  2.8500 inch                       *
G04 Board offset  :   0.000 mm. =  0.0000 inch                       *
G04 Board offset  :   0.000 mm. =  0.0000 inch                       *
G04                                                                  *
G04 Apertures:                                                       *
G04       Type          X       Y             X       Y        Used  *
G04                      Inches                Metric                *
G04 D10   Draw        0.0079  0.0079        0.200   0.200         5  *
G04 D11   Round       0.0701  0.0701        1.780   1.780       174  *
G04 D12   Round       0.2197  0.2197        5.580   5.580         5  *
G04 D13   Round       0.0953  0.0953        2.420   2.420        28  *
G04 D14   Round       0.2701  0.2701        6.860   6.860         8  *
G04 D15   Round       0.0472  0.0472        1.200   1.200         1  *
G04 D16   Round       0.1197  0.1197        3.040   3.040        12  *
G04 D17   Round       0.1449  0.1449        3.680   3.680         6  *
G04 D18   Round       0.1701  0.1701        4.320   4.320         4  *
G04 D19   Round       0.1953  0.1953        4.960   4.960         2  *
G04                                                                  *
%FSLAX24Y24*
MOIN*
SFA1.0B1.0*%
%ADD10C,0.0079*%
%ADD11C,0.0701*%
%ADD12C,0.2197*%
%ADD13C,0.0953*%
%ADD14C,0.2701*%
%ADD15C,0.0472*%
%ADD16C,0.1197*%
%ADD17C,0.1449*%
%ADD18C,0.1701*%
%ADD19C,0.1953*%
%LNSOLDERMASK BOTTOM*%
G54D10*
X000000Y028500D02*
X000000Y000000D01*
X059000Y000000D01*
X059000Y028500D01*
X000000Y028500D01*
G54D11*
X033000Y013625D03*
X032000Y013625D03*
X031000Y013625D03*
X030000Y013625D03*
X024000Y010625D03*
X025000Y010625D03*
X028000Y010625D03*
X029000Y010625D03*
X032000Y010625D03*
X033000Y010625D03*
X015000Y015000D03*
X014000Y015000D03*
X013000Y015000D03*
X041000Y012000D03*
X005508Y006375D03*
X047625Y021000D03*
X027250Y018375D03*
X017500Y020500D03*
X017500Y019750D03*
X007000Y020500D03*
X003000Y021000D03*
X013000Y009000D03*
X011625Y005875D03*
X009500Y006375D03*
X001000Y009000D03*
X013000Y008000D03*
X009352Y007344D03*
X017000Y015000D03*
X018250Y018125D03*
X016000Y012000D03*
X017000Y008000D03*
X015000Y012000D03*
X008000Y009000D03*
X034000Y013625D03*
X029750Y016750D03*
X013000Y012000D03*
X014000Y010500D03*
X015750Y010500D03*
X022000Y010625D03*
X012000Y015000D03*
X008000Y015000D03*
X008000Y018000D03*
X012125Y018000D03*
X022000Y013625D03*
X010000Y015000D03*
X023000Y010625D03*
X011000Y015000D03*
X029000Y013625D03*
X009000Y015000D03*
X012000Y012000D03*
X012000Y010500D03*
X010250Y010500D03*
X006000Y015000D03*
X006305Y006375D03*
X003000Y005000D03*
X006000Y012000D03*
X009000Y009000D03*
X008703Y006375D03*
X005000Y015000D03*
X002000Y005000D03*
X007102Y006375D03*
X005000Y012000D03*
X007906Y006375D03*
X001000Y005000D03*
X004000Y015000D03*
X008000Y017000D03*
X026000Y013625D03*
X026000Y015000D03*
X002000Y009000D03*
X003000Y010250D03*
X003000Y009000D03*
X035000Y013625D03*
X036500Y014625D03*
X027000Y013625D03*
X028000Y015000D03*
X034000Y010625D03*
X004000Y009000D03*
X004656Y007344D03*
X035000Y010625D03*
X023000Y013625D03*
X020500Y015000D03*
X024000Y013625D03*
X019500Y015000D03*
X025000Y013625D03*
X018500Y015000D03*
X017375Y002375D03*
X020500Y011000D03*
X015375Y002375D03*
X019500Y011000D03*
X018500Y011000D03*
X013375Y002375D03*
X031492Y005125D03*
X044117Y005125D03*
X032992Y007250D03*
X032578Y005125D03*
X045203Y005125D03*
X042000Y012000D03*
X033125Y004125D03*
X045750Y004125D03*
X031000Y010625D03*
X041000Y015000D03*
X033664Y005125D03*
X046289Y005125D03*
X045289Y007375D03*
X042914Y007375D03*
X040000Y011000D03*
X043000Y012000D03*
X044000Y011000D03*
X032039Y004125D03*
X044664Y004125D03*
X030000Y010625D03*
X044000Y015000D03*
X044000Y012000D03*
X045000Y011125D03*
X028000Y013625D03*
X026000Y010625D03*
X016000Y015000D03*
X007000Y015000D03*
X007000Y012000D03*
X010000Y012000D03*
X011000Y012000D03*
X043000Y015000D03*
X004000Y017000D03*
X045000Y015125D03*
X026000Y012250D03*
X043500Y013500D03*
X009000Y013500D03*
X010000Y018000D03*
X005000Y010250D03*
X011625Y007875D03*
X016750Y010500D03*
X009250Y010500D03*
X017250Y018125D03*
X047625Y020000D03*
X021000Y019500D03*
X029750Y020125D03*
X011000Y019500D03*
X034750Y005125D03*
X034211Y004125D03*
X047375Y005125D03*
X046836Y004125D03*
X010352Y007344D03*
X005656Y007344D03*
X003000Y017000D03*
X013500Y019750D03*
X027000Y015000D03*
X023250Y018375D03*
X027000Y010625D03*
X042000Y015000D03*
X036500Y010625D03*
X024000Y012250D03*
X041500Y013500D03*
X022000Y019500D03*
X017500Y021500D03*
X026750Y016750D03*
X029750Y022125D03*
X030406Y005125D03*
X030953Y004125D03*
X043031Y005125D03*
X043578Y004125D03*
X034078Y002000D03*
X043078Y002000D03*
X004000Y012000D03*
X008000Y012000D03*
X009000Y012000D03*
X014000Y012000D03*
X017000Y012000D03*
X007000Y013500D03*
X012000Y019500D03*
X012375Y002375D03*
X007000Y021500D03*
X014375Y002375D03*
X016375Y002375D03*
X016125Y018000D03*
G54D12*
X037391Y004625D03*
X027570Y004625D03*
X050016Y004625D03*
X040195Y004625D03*
X044211Y027375D03*
G54D13*
X038500Y011625D03*
X032375Y017750D03*
X030500Y017750D03*
X042875Y019500D03*
X043547Y021078D03*
X044883Y021078D03*
X026375Y020875D03*
X001750Y011500D03*
X032375Y015000D03*
X038500Y014625D03*
X038500Y010625D03*
X038500Y009625D03*
X042625Y009625D03*
X041625Y009625D03*
X038500Y013625D03*
X021000Y021000D03*
X044211Y019500D03*
X045555Y019500D03*
X030500Y015000D03*
X011000Y021000D03*
X038500Y012625D03*
X022000Y021000D03*
X010000Y021000D03*
X020000Y021000D03*
X025375Y021875D03*
X024375Y020875D03*
X001750Y015500D03*
X012000Y021000D03*
G54D14*
X021000Y027250D03*
X011000Y027250D03*
X001500Y025500D03*
X057500Y025500D03*
X057500Y001500D03*
X001500Y001500D03*
X048125Y024500D03*
X015000Y024500D03*
G54D15*
X031438Y016375D03*
G54D16*
X056375Y006875D03*
X056000Y016500D03*
X053000Y023125D03*
X037125Y018375D03*
X042625Y018125D03*
X054375Y006875D03*
X047625Y018125D03*
X056000Y013500D03*
X010680Y000727D03*
X004320Y000727D03*
X053000Y020125D03*
X037125Y022375D03*
G54D17*
X054750Y003000D03*
X052750Y003000D03*
X021000Y003000D03*
X023000Y003000D03*
X025000Y003000D03*
X019000Y003000D03*
G54D18*
X056875Y009500D03*
X054875Y009500D03*
X052875Y009500D03*
X050875Y009500D03*
G54D19*
X010000Y001977D03*
X005000Y001977D03*
M02*
