G04                                                                  *
G04 SOURCE        : LAYO1 PCB.EXE VERSION 10                         *
G04 FORMAT        : GERBER RS-274X, Inch, 2.4, Leading Zero          *
G04 TITLE         : CAN-GC1E_SILKSCREEN TOP                          *
G04 TIME          : Friday, March 23, 2012  22:32:05                 *
G04                                                                  *
G04 Board width   : 149.860 mm. =  5.9000 inch                       *
G04 Board height  :  72.390 mm. =  2.8500 inch                       *
G04 Board offset  :   0.000 mm. =  0.0000 inch                       *
G04 Board offset  :   0.000 mm. =  0.0000 inch                       *
G04                                                                  *
G04 Apertures:                                                       *
G04       Type          X       Y             X       Y        Used  *
G04                      Inches                Metric                *
G04 D10   Draw        0.0079  0.0079        0.200   0.200      3163  *
G04                                                                  *
%FSLAX24Y24*
MOIN*
SFA1.0B1.0*%
%ADD10C,0.0079*%
%LNSILKSCREEN TOP*%
G54D10*
X000000Y028500D02*
X000000Y000000D01*
X059000Y000000D01*
X059000Y028500D01*
X000000Y028500D01*
X017500Y012250D02*
X003500Y012250D01*
X003500Y014750D01*
X017500Y014750D01*
X017500Y013750D01*
X017125Y013750D01*
X017125Y013250D01*
X017500Y013250D01*
X017500Y012250D01*
X044500Y012250D02*
X040500Y012250D01*
X040500Y014750D01*
X044500Y014750D01*
X044500Y013750D01*
X044125Y013750D01*
X044125Y013250D01*
X044500Y013250D01*
X044500Y012250D01*
X011758Y009531D02*
X014258Y009531D01*
X014500Y009633D01*
X014711Y009797D01*
X014867Y010000D01*
X014969Y010242D01*
X015000Y010500D01*
X014969Y010758D01*
X014867Y011000D01*
X014703Y011211D01*
X014500Y011367D01*
X014258Y011469D01*
X011742Y011469D01*
X011500Y011367D01*
X011289Y011203D01*
X011133Y011000D01*
X011031Y010758D01*
X011000Y010500D01*
X011031Y010242D01*
X011133Y010000D01*
X011297Y009789D01*
X011500Y009633D01*
X011742Y009531D01*
X041125Y010125D02*
X043125Y010125D01*
X043125Y009125D01*
X041125Y009125D01*
X041125Y010125D01*
X052000Y007500D02*
X052000Y006250D01*
X058750Y006250D01*
X058750Y007500D01*
X052000Y007500D01*
X001750Y013125D02*
X001500Y013078D01*
X001336Y012875D01*
X001336Y012625D01*
X001500Y012422D01*
X001750Y012383D01*
X001758Y011508D01*
X001750Y013875D02*
X001500Y013828D01*
X001336Y013625D01*
X001336Y013375D01*
X001500Y013172D01*
X001750Y013133D01*
X001750Y015500D02*
X001750Y014617D01*
X001500Y014578D01*
X001336Y014375D01*
X001336Y014125D01*
X001500Y013922D01*
X001750Y013883D01*
X001750Y012125D02*
X001125Y012125D01*
X001125Y014875D01*
X002375Y014875D01*
X002375Y012125D01*
X001750Y012125D01*
X032375Y018250D02*
X032125Y018500D01*
X032125Y021500D01*
X032375Y021750D01*
X041875Y021750D01*
X042125Y021500D01*
X042125Y018500D01*
X041875Y018250D01*
X032375Y018250D01*
X032750Y021750D02*
X032625Y018250D01*
X033125Y018250D01*
X033250Y021750D01*
X033750Y021750D01*
X033625Y018250D01*
X034125Y018250D01*
X034250Y021750D01*
X034750Y021750D01*
X034625Y018250D01*
X035125Y018250D01*
X035250Y021750D01*
X035750Y021750D01*
X035625Y018250D01*
X036125Y018250D01*
X036250Y021750D01*
X036750Y021750D01*
X036625Y018250D01*
X037125Y018250D01*
X037250Y021750D01*
X037750Y021750D01*
X037625Y018250D01*
X038125Y018250D01*
X038250Y021750D01*
X038750Y021750D01*
X038625Y018250D01*
X039125Y018250D01*
X039250Y021750D01*
X039750Y021750D01*
X039625Y018250D01*
X040125Y018250D01*
X040250Y021750D01*
X040750Y021750D01*
X040625Y018250D01*
X041125Y018250D01*
X041250Y021750D01*
X041750Y021750D01*
X041625Y018250D01*
X043125Y018125D02*
X043625Y018125D01*
X043625Y018750D01*
X046625Y018750D01*
X046625Y017500D01*
X043625Y017500D01*
X043625Y018125D01*
X046625Y018125D02*
X047125Y018125D01*
X044125Y017500D02*
X044125Y018750D01*
X044250Y018750D02*
X044250Y017500D01*
X007625Y017000D02*
X007000Y017000D01*
X007000Y017375D01*
X005000Y017375D01*
X005000Y016625D01*
X007000Y016625D01*
X007000Y017000D01*
X005000Y017000D02*
X004375Y017000D01*
X036500Y011000D02*
X036500Y011625D01*
X036875Y011625D01*
X036875Y013625D01*
X036125Y013625D01*
X036125Y011625D01*
X036500Y011625D01*
X036500Y013625D02*
X036500Y014250D01*
X013375Y008000D02*
X014000Y008000D01*
X014000Y007625D01*
X016000Y007625D01*
X016000Y008375D01*
X014000Y008375D01*
X014000Y008000D01*
X016000Y008000D02*
X016625Y008000D01*
X045000Y011500D02*
X045000Y012125D01*
X045375Y012125D01*
X045375Y014125D01*
X044625Y014125D01*
X044625Y012125D01*
X045000Y012125D01*
X045000Y014125D02*
X045000Y014750D01*
X004375Y009000D02*
X005000Y009000D01*
X005000Y008625D01*
X007000Y008625D01*
X007000Y009375D01*
X005000Y009375D01*
X005000Y009000D01*
X007000Y009000D02*
X007625Y009000D01*
X018500Y014625D02*
X018500Y014000D01*
X018125Y014000D01*
X018125Y012000D01*
X018875Y012000D01*
X018875Y014000D01*
X018500Y014000D01*
X018500Y012000D02*
X018500Y011375D01*
X040375Y011000D02*
X041000Y011000D01*
X041000Y010625D01*
X043000Y010625D01*
X043000Y011375D01*
X041000Y011375D01*
X041000Y011000D01*
X043000Y011000D02*
X043625Y011000D01*
X002000Y008625D02*
X002000Y008000D01*
X001625Y008000D01*
X001625Y006000D01*
X002375Y006000D01*
X002375Y008000D01*
X002000Y008000D01*
X002000Y006000D02*
X002000Y005375D01*
X012625Y009000D02*
X012000Y009000D01*
X012000Y009375D01*
X010000Y009375D01*
X010000Y008625D01*
X012000Y008625D01*
X012000Y009000D01*
X010000Y009000D02*
X009375Y009000D01*
X024375Y012250D02*
X024875Y012250D01*
X025125Y012250D02*
X025625Y012250D01*
X024875Y012000D02*
X024875Y012500D01*
X025125Y012000D02*
X025125Y012500D01*
X023625Y012750D02*
X023625Y011750D01*
X026375Y011750D01*
X026375Y012750D01*
X023625Y012750D01*
X041875Y013500D02*
X042375Y013500D01*
X042625Y013500D02*
X043125Y013500D01*
X042375Y013250D02*
X042375Y013750D01*
X042625Y013250D02*
X042625Y013750D01*
X041125Y014000D02*
X041125Y013000D01*
X043875Y013000D01*
X043875Y014000D01*
X041125Y014000D01*
X007375Y013500D02*
X007875Y013500D01*
X008125Y013500D02*
X008625Y013500D01*
X007875Y013250D02*
X007875Y013750D01*
X008125Y013250D02*
X008125Y013750D01*
X006625Y014000D02*
X006625Y013000D01*
X009375Y013000D01*
X009375Y014000D01*
X006625Y014000D01*
X008375Y018000D02*
X008875Y018000D01*
X009125Y018000D02*
X009625Y018000D01*
X008875Y017750D02*
X008875Y018250D01*
X009125Y017750D02*
X009125Y018250D01*
X007625Y018500D02*
X007625Y017500D01*
X010375Y017500D01*
X010375Y018500D01*
X007625Y018500D01*
X003375Y010250D02*
X003875Y010250D01*
X004125Y010250D02*
X004625Y010250D01*
X003875Y010000D02*
X003875Y010500D01*
X004125Y010000D02*
X004125Y010500D01*
X002625Y010750D02*
X002625Y009750D01*
X005375Y009750D01*
X005375Y010750D01*
X002625Y010750D01*
X011625Y006250D02*
X011625Y006750D01*
X011625Y007000D02*
X011625Y007500D01*
X011875Y006750D02*
X011375Y006750D01*
X011875Y007000D02*
X011375Y007000D01*
X011125Y005500D02*
X012125Y005500D01*
X012125Y008250D01*
X011125Y008250D01*
X011125Y005500D01*
X016125Y010000D02*
X016125Y011000D01*
X016375Y010000D02*
X016375Y011000D01*
X016375Y010500D02*
X016500Y010500D01*
X016125Y010500D02*
X016000Y010500D01*
X009625Y010000D02*
X009625Y011000D01*
X009875Y010000D02*
X009875Y011000D01*
X009875Y010500D02*
X010000Y010500D01*
X009625Y010500D02*
X009500Y010500D01*
X018250Y018500D02*
X018250Y018750D01*
X018375Y018625D02*
X018125Y018625D01*
X017750Y019125D02*
X017492Y019094D01*
X017250Y018992D01*
X017039Y018828D01*
X016883Y018625D01*
X016781Y018383D01*
X016750Y018125D01*
X016781Y017867D01*
X016883Y017625D01*
X017047Y017414D01*
X017250Y017258D01*
X017492Y017156D01*
X017750Y017125D01*
X018008Y017156D01*
X018250Y017258D01*
X018461Y017422D01*
X018617Y017625D01*
X018719Y017867D01*
X018750Y018125D01*
X018719Y018383D01*
X018617Y018625D01*
X018453Y018836D01*
X018250Y018992D01*
X018008Y019094D01*
X017750Y019125D01*
X017813Y017750D02*
X017813Y018500D01*
X017938Y018500D01*
X017938Y017750D01*
X017813Y017750D01*
X017688Y017750D02*
X017688Y018500D01*
X017563Y018500D01*
X017563Y017750D01*
X017688Y017750D01*
X017563Y018125D02*
X017250Y018125D01*
X017938Y018125D02*
X018250Y018125D01*
X048000Y020313D02*
X047250Y020313D01*
X047250Y020438D01*
X048000Y020438D01*
X048000Y020313D01*
X048000Y020188D02*
X047250Y020188D01*
X047250Y020063D01*
X048000Y020063D01*
X048000Y020188D01*
X047625Y020438D02*
X047625Y020750D01*
X047625Y020063D02*
X047625Y019750D01*
X046047Y020250D02*
X046063Y020031D01*
X046109Y019813D01*
X046180Y019609D01*
X046289Y019414D01*
X046414Y019234D01*
X046570Y019078D01*
X046742Y018938D01*
X046938Y018828D01*
X047141Y018750D01*
X047352Y018695D01*
X047570Y018672D01*
X047789Y018680D01*
X048008Y018719D01*
X048219Y018789D01*
X048414Y018883D01*
X048602Y019008D01*
X048758Y019156D01*
X048906Y019320D01*
X049016Y019508D01*
X049109Y019711D01*
X049172Y019922D01*
X049203Y020141D01*
X049195Y020359D01*
X049172Y020578D01*
X049109Y020789D01*
X049016Y020992D01*
X048898Y021180D01*
X048758Y021352D01*
X048594Y021492D01*
X048414Y021617D01*
X048211Y021711D01*
X048008Y021781D01*
X047789Y021820D01*
X047570Y021828D01*
X047352Y021805D01*
X047133Y021750D01*
X046930Y021664D01*
X046742Y021555D01*
X046570Y021422D01*
X046414Y021258D01*
X046281Y021086D01*
X046180Y020891D01*
X046109Y020680D01*
X046063Y020469D01*
X046047Y020242D01*
X048250Y020625D02*
X048000Y020625D01*
X048125Y020750D02*
X048125Y020500D01*
X022000Y019875D02*
X022000Y020125D01*
X022125Y020000D02*
X021875Y020000D01*
X021563Y019125D02*
X021563Y019875D01*
X021688Y019875D01*
X021688Y019125D01*
X021563Y019125D01*
X021438Y019125D02*
X021438Y019875D01*
X021313Y019875D01*
X021313Y019125D01*
X021438Y019125D01*
X021313Y019500D02*
X021000Y019500D01*
X021688Y019500D02*
X022000Y019500D01*
X021500Y020438D02*
X021258Y020406D01*
X021031Y020313D01*
X020836Y020164D01*
X020688Y019969D01*
X020594Y019742D01*
X020563Y019500D01*
X020594Y019258D01*
X020688Y019031D01*
X020836Y018836D01*
X021031Y018688D01*
X021258Y018594D01*
X021500Y018563D01*
X021742Y018594D01*
X021969Y018688D01*
X022164Y018836D01*
X022313Y019031D01*
X022406Y019258D01*
X022438Y019500D01*
X022406Y019742D01*
X022313Y019969D01*
X022164Y020164D01*
X021969Y020313D01*
X021742Y020406D01*
X021500Y020438D01*
X030125Y020313D02*
X029375Y020313D01*
X029375Y020438D01*
X030125Y020438D01*
X030125Y020313D01*
X030125Y020188D02*
X029375Y020188D01*
X029375Y020063D01*
X030125Y020063D01*
X030125Y020188D01*
X029750Y020438D02*
X029750Y021250D01*
X029750Y020063D02*
X029750Y019250D01*
X027750Y020250D02*
X027766Y019969D01*
X027828Y019695D01*
X027922Y019438D01*
X028055Y019188D01*
X028219Y018961D01*
X028414Y018766D01*
X028633Y018594D01*
X028875Y018453D01*
X029133Y018344D01*
X029406Y018281D01*
X029680Y018250D01*
X029961Y018258D01*
X030234Y018313D01*
X030500Y018398D01*
X030750Y018516D01*
X030984Y018672D01*
X031188Y018859D01*
X031367Y019078D01*
X031516Y019313D01*
X031633Y019570D01*
X031703Y019836D01*
X031742Y020109D01*
X031742Y020391D01*
X031703Y020672D01*
X031625Y020938D01*
X031516Y021195D01*
X031367Y021430D01*
X031188Y021641D01*
X030977Y021828D01*
X030750Y021984D01*
X030492Y022109D01*
X030227Y022195D01*
X029953Y022242D01*
X029680Y022250D01*
X029398Y022219D01*
X029125Y022148D01*
X028867Y022047D01*
X028625Y021906D01*
X028406Y021734D01*
X028219Y021531D01*
X028055Y021305D01*
X027922Y021063D01*
X027828Y020797D01*
X027766Y020523D01*
X027750Y020242D01*
X030438Y021500D02*
X030063Y021500D01*
X030250Y021688D02*
X030250Y021313D01*
X012000Y019875D02*
X012000Y020125D01*
X012125Y020000D02*
X011875Y020000D01*
X011563Y019125D02*
X011563Y019875D01*
X011688Y019875D01*
X011688Y019125D01*
X011563Y019125D01*
X011438Y019125D02*
X011438Y019875D01*
X011313Y019875D01*
X011313Y019125D01*
X011438Y019125D01*
X011313Y019500D02*
X011000Y019500D01*
X011688Y019500D02*
X012000Y019500D01*
X011500Y020438D02*
X011258Y020406D01*
X011031Y020313D01*
X010836Y020164D01*
X010688Y019969D01*
X010594Y019742D01*
X010563Y019500D01*
X010594Y019258D01*
X010688Y019031D01*
X010836Y018836D01*
X011031Y018688D01*
X011258Y018594D01*
X011500Y018563D01*
X011742Y018594D01*
X011969Y018688D01*
X012164Y018836D01*
X012313Y019031D01*
X012406Y019258D01*
X012438Y019500D01*
X012406Y019742D01*
X012313Y019969D01*
X012164Y020164D01*
X011969Y020313D01*
X011742Y020406D01*
X011500Y020438D01*
X056625Y015063D02*
X055375Y015063D01*
X055375Y015188D01*
X056625Y015188D01*
X056625Y015063D01*
X056625Y014938D02*
X055375Y014938D01*
X055375Y014813D01*
X056625Y014813D01*
X056625Y014938D01*
X056000Y015188D02*
X056000Y016500D01*
X056000Y014813D02*
X056000Y013500D01*
X056813Y016000D02*
X056438Y016000D01*
X056625Y016188D02*
X056625Y015813D01*
X052852Y015000D02*
X052859Y014781D01*
X052883Y014563D01*
X052922Y014344D01*
X052977Y014133D01*
X053039Y013922D01*
X053125Y013719D01*
X053219Y013523D01*
X053328Y013328D01*
X053453Y013148D01*
X053586Y012977D01*
X053734Y012813D01*
X053891Y012656D01*
X054063Y012516D01*
X054242Y012391D01*
X054430Y012273D01*
X054617Y012172D01*
X054820Y012078D01*
X055031Y012008D01*
X055242Y011945D01*
X055453Y011898D01*
X055672Y011867D01*
X055891Y011852D01*
X056109Y011852D01*
X056328Y011867D01*
X056547Y011898D01*
X056766Y011945D01*
X056977Y012008D01*
X057180Y012078D01*
X057383Y012172D01*
X057578Y012273D01*
X057766Y012391D01*
X057938Y012523D01*
X058109Y012664D01*
X058266Y012813D01*
X058414Y012977D01*
X058547Y013148D01*
X058672Y013336D01*
X058781Y013523D01*
X058875Y013719D01*
X058961Y013930D01*
X059031Y014133D01*
X059078Y014352D01*
X059117Y014563D01*
X059141Y014781D01*
X059148Y015008D01*
X059141Y015227D01*
X059117Y015445D01*
X059078Y015656D01*
X059023Y015875D01*
X058961Y016078D01*
X058875Y016281D01*
X058781Y016484D01*
X058664Y016672D01*
X058547Y016852D01*
X058406Y017031D01*
X058258Y017188D01*
X058102Y017344D01*
X057938Y017484D01*
X057758Y017609D01*
X057570Y017727D01*
X057375Y017836D01*
X057172Y017922D01*
X056969Y017992D01*
X056758Y018055D01*
X056539Y018102D01*
X056320Y018133D01*
X056102Y018148D01*
X055883Y018148D01*
X055664Y018133D01*
X055445Y018102D01*
X055234Y018055D01*
X055023Y017992D01*
X054813Y017914D01*
X054617Y017828D01*
X054422Y017727D01*
X054234Y017609D01*
X054055Y017477D01*
X053891Y017336D01*
X053727Y017180D01*
X053586Y017016D01*
X053445Y016844D01*
X053328Y016664D01*
X053219Y016469D01*
X053117Y016273D01*
X053039Y016070D01*
X052969Y015859D01*
X052922Y015648D01*
X052883Y015430D01*
X052859Y015211D01*
X052852Y014992D01*
X058375Y011500D02*
X058375Y008375D01*
X049375Y008375D01*
X049375Y011500D01*
X058375Y011500D01*
X057250Y011000D02*
X056500Y011000D01*
X056875Y011375D02*
X056875Y010500D01*
X051125Y010938D02*
X050281Y010938D01*
X055250Y010953D02*
X055109Y010813D01*
X054969Y010813D01*
X054828Y010953D01*
X054688Y010953D01*
X054547Y010813D01*
X053250Y010953D02*
X053109Y010813D01*
X052969Y010813D01*
X052828Y010953D01*
X052688Y010953D01*
X052547Y010813D01*
X038656Y006125D02*
X038656Y000625D01*
X026406Y000625D01*
X026406Y006125D01*
X038656Y006125D01*
X035656Y000625D02*
X035656Y-001750D01*
X029406Y-001750D01*
X029406Y000625D01*
X034656Y000625D02*
X034656Y-001750D01*
X030406Y000625D02*
X030406Y-001750D01*
X031438Y002047D02*
X031359Y002125D01*
X031281Y002125D01*
X031203Y002047D01*
X031203Y001500D01*
X031125Y001500D01*
X031281Y001500D01*
X031125Y001891D02*
X031281Y001891D01*
X031984Y001578D02*
X031906Y001500D01*
X031672Y001500D01*
X031594Y001578D01*
X031594Y001813D01*
X031672Y001891D01*
X031906Y001891D01*
X031984Y001813D01*
X031984Y001695D01*
X031594Y001695D01*
X032141Y001891D02*
X032141Y001500D01*
X032141Y001813D02*
X032219Y001891D01*
X032297Y001891D01*
X032375Y001813D01*
X032375Y001500D01*
X032375Y001813D02*
X032453Y001891D01*
X032531Y001891D01*
X032609Y001813D01*
X032609Y001500D01*
X032844Y001891D02*
X033078Y001891D01*
X033156Y001813D01*
X033156Y001500D01*
X033156Y001578D02*
X033078Y001500D01*
X032844Y001500D01*
X032766Y001578D01*
X032766Y001656D01*
X032844Y001734D01*
X033078Y001734D01*
X033156Y001656D01*
X033313Y001500D02*
X033469Y001500D01*
X033391Y001500D02*
X033391Y002125D01*
X033313Y002125D01*
X034094Y001578D02*
X034016Y001500D01*
X033781Y001500D01*
X033703Y001578D01*
X033703Y001813D01*
X033781Y001891D01*
X034016Y001891D01*
X034094Y001813D01*
X034094Y001695D01*
X033703Y001695D01*
X051281Y006125D02*
X051281Y000625D01*
X039031Y000625D01*
X039031Y006125D01*
X051281Y006125D01*
X048281Y000625D02*
X048281Y-001750D01*
X042031Y-001750D01*
X042031Y000625D01*
X047281Y000625D02*
X047281Y-001750D01*
X043031Y000625D02*
X043031Y-001750D01*
X044063Y002047D02*
X043984Y002125D01*
X043906Y002125D01*
X043828Y002047D01*
X043828Y001500D01*
X043750Y001500D01*
X043906Y001500D01*
X043750Y001891D02*
X043906Y001891D01*
X044609Y001578D02*
X044531Y001500D01*
X044297Y001500D01*
X044219Y001578D01*
X044219Y001813D01*
X044297Y001891D01*
X044531Y001891D01*
X044609Y001813D01*
X044609Y001695D01*
X044219Y001695D01*
X044766Y001891D02*
X044766Y001500D01*
X044766Y001813D02*
X044844Y001891D01*
X044922Y001891D01*
X045000Y001813D01*
X045000Y001500D01*
X045000Y001813D02*
X045078Y001891D01*
X045156Y001891D01*
X045234Y001813D01*
X045234Y001500D01*
X045469Y001891D02*
X045703Y001891D01*
X045781Y001813D01*
X045781Y001500D01*
X045781Y001578D02*
X045703Y001500D01*
X045469Y001500D01*
X045391Y001578D01*
X045391Y001656D01*
X045469Y001734D01*
X045703Y001734D01*
X045781Y001656D01*
X045938Y001500D02*
X046094Y001500D01*
X046016Y001500D02*
X046016Y002125D01*
X045938Y002125D01*
X046719Y001578D02*
X046641Y001500D01*
X046406Y001500D01*
X046328Y001578D01*
X046328Y001813D01*
X046406Y001891D01*
X046641Y001891D01*
X046719Y001813D01*
X046719Y001695D01*
X046328Y001695D01*
X037125Y009125D02*
X037125Y015125D01*
X039500Y015125D01*
X039500Y009125D01*
X037125Y009125D01*
X039250Y009625D02*
X039250Y014625D01*
X039250Y009625D01*
X039250Y009625D02*
X039250Y014625D01*
X039500Y014625D01*
X039500Y009625D01*
X039250Y009625D01*
X012875Y000063D02*
X011938Y000063D01*
X011938Y002813D01*
X013813Y002813D01*
X013813Y000063D01*
X012250Y000063D01*
X012250Y000000D01*
X013500Y000063D02*
X013500Y000000D01*
X012875Y-000625D02*
X013133Y-000570D01*
X013336Y-000422D01*
X013469Y-000195D01*
X013500Y000063D01*
X012250Y000063D01*
X012281Y-000195D01*
X012414Y-000422D01*
X012625Y-000570D01*
X012875Y-000625D01*
X006000Y021000D02*
X006031Y020742D01*
X006133Y020500D01*
X006297Y020289D01*
X007688Y020289D01*
X007867Y020500D01*
X007969Y020742D01*
X008000Y021000D01*
X007969Y021258D01*
X007867Y021500D01*
X007703Y021711D01*
X007500Y021867D01*
X007258Y021969D01*
X007000Y022000D01*
X006742Y021969D01*
X006500Y021867D01*
X006289Y021703D01*
X006133Y021500D01*
X006031Y021258D01*
X006000Y021000D01*
X014875Y000063D02*
X013938Y000063D01*
X013938Y002813D01*
X015813Y002813D01*
X015813Y000063D01*
X014250Y000063D01*
X014250Y000000D01*
X015500Y000063D02*
X015500Y000000D01*
X014875Y-000625D02*
X015133Y-000570D01*
X015336Y-000422D01*
X015469Y-000195D01*
X015500Y000063D01*
X014250Y000063D01*
X014281Y-000195D01*
X014414Y-000422D01*
X014625Y-000570D01*
X014875Y-000625D01*
X016875Y000063D02*
X015938Y000063D01*
X015938Y002813D01*
X017813Y002813D01*
X017813Y000063D01*
X016250Y000063D01*
X016250Y000000D01*
X017500Y000063D02*
X017500Y000000D01*
X016875Y-000625D02*
X017133Y-000570D01*
X017336Y-000422D01*
X017469Y-000195D01*
X017500Y000063D01*
X016250Y000063D01*
X016281Y-000195D01*
X016414Y-000422D01*
X016625Y-000570D01*
X016875Y-000625D01*
X016500Y021000D02*
X016531Y020742D01*
X016633Y020500D01*
X016797Y020289D01*
X018188Y020289D01*
X018367Y020500D01*
X018469Y020742D01*
X018500Y021000D01*
X018469Y021258D01*
X018367Y021500D01*
X018203Y021711D01*
X018000Y021867D01*
X017758Y021969D01*
X017500Y022000D01*
X017242Y021969D01*
X017000Y021867D01*
X016789Y021703D01*
X016633Y021500D01*
X016531Y021258D01*
X016500Y021000D01*
X018875Y028250D02*
X023125Y028250D01*
X023125Y022000D01*
X018875Y022000D01*
X018875Y028250D01*
X021000Y020875D02*
X021000Y021875D01*
X020000Y020875D02*
X020000Y021875D01*
X022000Y020875D02*
X022000Y021875D01*
X042141Y022586D02*
X046289Y022586D01*
X046289Y022086D01*
X042141Y022086D01*
X042141Y022586D01*
X042391Y022086D02*
X046016Y022086D01*
X046016Y021211D01*
X042391Y021211D01*
X042391Y022086D01*
X045391Y021211D02*
X045766Y021211D01*
X045766Y019836D01*
X045391Y019836D01*
X045391Y021211D01*
X044016Y021211D02*
X044391Y021211D01*
X044391Y019836D01*
X044016Y019836D01*
X044016Y021211D01*
X042641Y021211D02*
X043016Y021211D01*
X042641Y021211D02*
X043016Y021211D01*
X043016Y019836D01*
X042641Y019836D01*
X042641Y021211D01*
X042211Y028250D02*
X046211Y028250D01*
X046211Y022625D01*
X042211Y022625D01*
X042211Y028250D01*
X042211Y025875D02*
X046211Y025875D01*
X007500Y007750D02*
X010805Y007750D01*
X004195Y007750D01*
X004195Y-002328D02*
X010805Y-002328D01*
X010813Y007750D02*
X010813Y-002313D01*
X004188Y-002313D01*
X004188Y007750D01*
X018000Y-001000D02*
X018000Y003813D01*
X022000Y003813D01*
X022000Y-001000D01*
X018000Y-001000D01*
X020000Y-001000D02*
X020000Y003813D01*
X022000Y-001000D02*
X024000Y-001000D01*
X024000Y003813D01*
X022000Y003813D01*
X024000Y003813D02*
X026000Y003813D01*
X026000Y-001000D01*
X024000Y-001000D01*
X051750Y-001000D02*
X051750Y003813D01*
X055750Y003813D01*
X055750Y-001000D01*
X051750Y-001000D01*
X053750Y-001000D02*
X053750Y003813D01*
X054375Y021688D02*
X053125Y021688D01*
X053125Y021813D01*
X054375Y021813D01*
X054375Y021688D01*
X054375Y021563D02*
X053125Y021563D01*
X053125Y021438D01*
X054375Y021438D01*
X054375Y021563D01*
X053750Y021813D02*
X053750Y023125D01*
X053750Y021438D02*
X053750Y020125D01*
X054563Y022625D02*
X054188Y022625D01*
X054375Y022813D02*
X054375Y022438D01*
X050602Y021625D02*
X050609Y021406D01*
X050633Y021188D01*
X050672Y020969D01*
X050727Y020758D01*
X050789Y020547D01*
X050875Y020344D01*
X050969Y020148D01*
X051078Y019953D01*
X051203Y019773D01*
X051336Y019602D01*
X051484Y019438D01*
X051641Y019281D01*
X051813Y019141D01*
X051992Y019016D01*
X052180Y018898D01*
X052367Y018797D01*
X052570Y018703D01*
X052781Y018633D01*
X052992Y018570D01*
X053203Y018523D01*
X053422Y018492D01*
X053641Y018477D01*
X053859Y018477D01*
X054078Y018492D01*
X054297Y018523D01*
X054516Y018570D01*
X054727Y018633D01*
X054930Y018703D01*
X055133Y018797D01*
X055328Y018898D01*
X055516Y019016D01*
X055688Y019148D01*
X055859Y019289D01*
X056016Y019438D01*
X056164Y019602D01*
X056297Y019773D01*
X056422Y019961D01*
X056531Y020148D01*
X056625Y020344D01*
X056711Y020555D01*
X056781Y020758D01*
X056828Y020977D01*
X056867Y021188D01*
X056891Y021406D01*
X056898Y021633D01*
X056891Y021852D01*
X056867Y022070D01*
X056828Y022281D01*
X056773Y022500D01*
X056711Y022703D01*
X056625Y022906D01*
X056531Y023109D01*
X056414Y023297D01*
X056297Y023477D01*
X056156Y023656D01*
X056008Y023813D01*
X055852Y023969D01*
X055688Y024109D01*
X055508Y024234D01*
X055320Y024352D01*
X055125Y024461D01*
X054922Y024547D01*
X054719Y024617D01*
X054508Y024680D01*
X054289Y024727D01*
X054070Y024758D01*
X053852Y024773D01*
X053633Y024773D01*
X053414Y024758D01*
X053195Y024727D01*
X052984Y024680D01*
X052773Y024617D01*
X052563Y024539D01*
X052367Y024453D01*
X052172Y024352D01*
X051984Y024234D01*
X051805Y024102D01*
X051641Y023961D01*
X051477Y023805D01*
X051336Y023641D01*
X051195Y023469D01*
X051078Y023289D01*
X050969Y023094D01*
X050867Y022898D01*
X050789Y022695D01*
X050719Y022484D01*
X050672Y022273D01*
X050633Y022055D01*
X050609Y021836D01*
X050602Y021617D01*
X001000Y005375D02*
X001000Y006000D01*
X001375Y006000D01*
X001375Y008000D01*
X000625Y008000D01*
X000625Y006000D01*
X001000Y006000D01*
X001000Y008000D02*
X001000Y008625D01*
X015750Y018000D02*
X015125Y018000D01*
X015125Y018375D01*
X013125Y018375D01*
X013125Y017625D01*
X015125Y017625D01*
X015125Y018000D01*
X013125Y018000D02*
X012500Y018000D01*
X003000Y017375D02*
X003000Y018000D01*
X003375Y018000D01*
X003375Y020000D01*
X002625Y020000D01*
X002625Y018000D01*
X003000Y018000D01*
X003000Y020000D02*
X003000Y020625D01*
X019500Y014625D02*
X019500Y014000D01*
X019125Y014000D01*
X019125Y012000D01*
X019875Y012000D01*
X019875Y014000D01*
X019500Y014000D01*
X019500Y012000D02*
X019500Y011375D01*
X020500Y014625D02*
X020500Y014000D01*
X020125Y014000D01*
X020125Y012000D01*
X020875Y012000D01*
X020875Y014000D01*
X020500Y014000D01*
X020500Y012000D02*
X020500Y011375D01*
X013875Y019750D02*
X014500Y019750D01*
X014500Y019375D01*
X016500Y019375D01*
X016500Y020125D01*
X014500Y020125D01*
X014500Y019750D01*
X016500Y019750D02*
X017125Y019750D01*
X003000Y005375D02*
X003000Y006000D01*
X003375Y006000D01*
X003375Y008000D01*
X002625Y008000D01*
X002625Y006000D01*
X003000Y006000D01*
X003000Y008000D02*
X003000Y008625D01*
X028500Y014500D02*
X025500Y014500D01*
X025500Y015500D01*
X028500Y015500D01*
X028500Y014500D01*
X027500Y014500D02*
X027500Y015500D01*
X029250Y016750D02*
X029250Y017125D01*
X027250Y017125D01*
X027250Y016375D01*
X029250Y016375D01*
X029250Y016750D01*
X029375Y016750D01*
X027250Y016750D02*
X027125Y016750D01*
X023625Y018375D02*
X024250Y018375D01*
X024250Y018000D01*
X026250Y018000D01*
X026250Y018750D01*
X024250Y018750D01*
X024250Y018375D01*
X026250Y018375D02*
X026875Y018375D01*
X033250Y017000D02*
X033250Y014813D01*
X031000Y014813D01*
X031000Y017063D01*
X033250Y017063D01*
X008875Y028250D02*
X013125Y028250D01*
X013125Y022000D01*
X008875Y022000D01*
X008875Y028250D01*
X011000Y020875D02*
X011000Y021875D01*
X010000Y020875D02*
X010000Y021875D01*
X012000Y020875D02*
X012000Y021875D01*
X023375Y018875D02*
X023375Y022875D01*
X027375Y022875D01*
X027375Y018875D01*
X023375Y018875D01*
X035125Y012375D02*
X035500Y012375D01*
X035500Y013375D01*
X021500Y013375D01*
X021500Y010875D01*
X035500Y010875D01*
X035500Y011875D01*
X035125Y011875D01*
X035125Y012375D01*
X034250Y012375D02*
X034250Y011938D01*
X034313Y011875D01*
X034563Y011875D01*
X034625Y011938D01*
X034625Y012375D02*
X034625Y011875D01*
X034750Y011875D02*
X034875Y011875D01*
X034813Y011875D02*
X034813Y012375D01*
X034750Y012313D01*
X016000Y013750D02*
X016000Y013313D01*
X016063Y013250D01*
X016313Y013250D01*
X016375Y013313D01*
X016375Y013750D02*
X016375Y013250D01*
X016875Y013250D02*
X016500Y013250D01*
X016500Y013375D01*
X016625Y013500D01*
X016813Y013500D01*
X016875Y013563D01*
X016875Y013688D01*
X016813Y013750D01*
X016563Y013750D01*
X016500Y013688D01*
X045625Y014250D02*
X045625Y013813D01*
X045688Y013750D01*
X045938Y013750D01*
X046000Y013813D01*
X046000Y014250D02*
X046000Y013750D01*
X046125Y014188D02*
X046188Y014250D01*
X046438Y014250D01*
X046500Y014188D01*
X046500Y014063D01*
X046438Y014000D01*
X046250Y014000D01*
X046438Y014000D02*
X046500Y013938D01*
X046500Y013813D01*
X046438Y013750D01*
X046188Y013750D01*
X046125Y013813D01*
X013750Y009375D02*
X013750Y009313D01*
X014125Y008938D01*
X014125Y008875D01*
X013750Y008875D02*
X013750Y008938D01*
X014125Y009313D01*
X014125Y009375D01*
X014250Y008875D02*
X014375Y008875D01*
X014313Y008875D02*
X014313Y009375D01*
X014250Y009313D01*
X039750Y009500D02*
X039750Y009438D01*
X039813Y009375D01*
X040063Y009375D01*
X040125Y009438D01*
X040125Y009875D01*
X040000Y009875D01*
X040250Y009375D02*
X040250Y009875D01*
X040563Y009875D01*
X040625Y009813D01*
X040625Y009688D01*
X040563Y009625D01*
X040250Y009625D01*
X040750Y009375D02*
X040875Y009375D01*
X040813Y009375D02*
X040813Y009875D01*
X040750Y009813D01*
X057750Y005500D02*
X057750Y006000D01*
X058125Y006000D01*
X058125Y005750D02*
X057750Y005750D01*
X058250Y005500D02*
X058375Y005500D01*
X058313Y005500D02*
X058313Y006000D01*
X058250Y005938D01*
X001375Y016875D02*
X001375Y016375D01*
X001750Y016375D01*
X002250Y016375D02*
X001875Y016375D01*
X001875Y016500D01*
X002000Y016625D01*
X002188Y016625D01*
X002250Y016688D01*
X002250Y016813D01*
X002188Y016875D01*
X001938Y016875D01*
X001875Y016813D01*
X037875Y018063D02*
X037875Y017563D01*
X038250Y017563D01*
X038375Y017563D02*
X038500Y017563D01*
X038438Y017563D02*
X038438Y018063D01*
X038375Y018000D01*
X045000Y017875D02*
X045000Y018375D01*
X045313Y018375D01*
X045375Y018313D01*
X045375Y017938D01*
X045313Y017875D01*
X045000Y017875D01*
X045500Y017875D02*
X045625Y017875D01*
X045563Y017875D02*
X045563Y018375D01*
X045500Y018313D01*
X005375Y016750D02*
X005375Y017250D01*
X005688Y017250D01*
X005750Y017188D01*
X005750Y017063D01*
X005688Y017000D01*
X005375Y017000D01*
X005500Y017000D02*
X005750Y016750D01*
X005875Y016750D02*
X006000Y016750D01*
X005938Y016750D02*
X005938Y017250D01*
X005875Y017188D01*
X006188Y016750D02*
X006125Y016813D01*
X006125Y017188D01*
X006188Y017250D01*
X006438Y017250D01*
X006500Y017188D01*
X006500Y016813D01*
X006438Y016750D01*
X006188Y016750D01*
X006125Y016813D02*
X006500Y017188D01*
X036250Y013000D02*
X036750Y013000D01*
X036750Y012688D01*
X036688Y012625D01*
X036563Y012625D01*
X036500Y012688D01*
X036500Y013000D01*
X036500Y012875D02*
X036250Y012625D01*
X036750Y012188D02*
X036750Y012375D01*
X036625Y012500D01*
X036313Y012500D01*
X036250Y012438D01*
X036250Y012188D01*
X036313Y012125D01*
X036438Y012125D01*
X036500Y012188D01*
X036500Y012500D01*
X014500Y007750D02*
X014500Y008250D01*
X014813Y008250D01*
X014875Y008188D01*
X014875Y008063D01*
X014813Y008000D01*
X014500Y008000D01*
X014625Y008000D02*
X014875Y007750D01*
X015000Y007750D02*
X015125Y007750D01*
X015063Y007750D02*
X015063Y008250D01*
X015000Y008188D01*
X015250Y007750D02*
X015375Y007750D01*
X015313Y007750D02*
X015313Y008250D01*
X015250Y008188D01*
X044750Y013625D02*
X045250Y013625D01*
X045250Y013313D01*
X045188Y013250D01*
X045063Y013250D01*
X045000Y013313D01*
X045000Y013625D01*
X045000Y013500D02*
X044750Y013250D01*
X045000Y013063D02*
X044938Y013125D01*
X044813Y013125D01*
X044750Y013063D01*
X044750Y012813D01*
X044813Y012750D01*
X044938Y012750D01*
X045000Y012813D01*
X045000Y013063D01*
X045063Y013125D01*
X045188Y013125D01*
X045250Y013063D01*
X045250Y012813D01*
X045188Y012750D01*
X045063Y012750D01*
X045000Y012813D01*
X005375Y008750D02*
X005375Y009250D01*
X005688Y009250D01*
X005750Y009188D01*
X005750Y009063D01*
X005688Y009000D01*
X005375Y009000D01*
X005500Y009000D02*
X005750Y008750D01*
X005875Y008750D02*
X006000Y008750D01*
X005938Y008750D02*
X005938Y009250D01*
X005875Y009188D01*
X006125Y009188D02*
X006125Y009250D01*
X006500Y009250D01*
X006500Y009125D01*
X006250Y008875D01*
X006250Y008750D01*
X018250Y013500D02*
X018750Y013500D01*
X018750Y013188D01*
X018688Y013125D01*
X018563Y013125D01*
X018500Y013188D01*
X018500Y013500D01*
X018500Y013375D02*
X018250Y013125D01*
X018688Y013000D02*
X018750Y012938D01*
X018750Y012688D01*
X018688Y012625D01*
X018563Y012625D01*
X018500Y012688D01*
X018500Y012875D01*
X018500Y012688D02*
X018438Y012625D01*
X018313Y012625D01*
X018250Y012688D01*
X018250Y012938D01*
X018313Y013000D01*
X041500Y010750D02*
X041500Y011250D01*
X041813Y011250D01*
X041875Y011188D01*
X041875Y011063D01*
X041813Y011000D01*
X041500Y011000D01*
X041625Y011000D02*
X041875Y010750D01*
X042000Y011188D02*
X042000Y011250D01*
X042375Y011250D01*
X042375Y011125D01*
X042125Y010875D01*
X042125Y010750D01*
X001750Y007625D02*
X002250Y007625D01*
X002250Y007313D01*
X002188Y007250D01*
X002063Y007250D01*
X002000Y007313D01*
X002000Y007625D01*
X002000Y007500D02*
X001750Y007250D01*
X001750Y007125D02*
X001750Y007000D01*
X001750Y007063D02*
X002250Y007063D01*
X002188Y007125D01*
X001750Y006500D02*
X001750Y006875D01*
X001875Y006875D01*
X002000Y006750D01*
X002000Y006563D01*
X002063Y006500D01*
X002188Y006500D01*
X002250Y006563D01*
X002250Y006813D01*
X002188Y006875D01*
X010375Y008750D02*
X010375Y009250D01*
X010688Y009250D01*
X010750Y009188D01*
X010750Y009063D01*
X010688Y009000D01*
X010375Y009000D01*
X010500Y009000D02*
X010750Y008750D01*
X010875Y008750D02*
X011000Y008750D01*
X010938Y008750D02*
X010938Y009250D01*
X010875Y009188D01*
X011438Y008750D02*
X011438Y009250D01*
X011313Y009250D01*
X011125Y009063D01*
X011125Y008938D01*
X011500Y008938D01*
X026875Y012063D02*
X026813Y012000D01*
X026563Y012000D01*
X026500Y012063D01*
X026500Y012438D01*
X026563Y012500D01*
X026813Y012500D01*
X026875Y012438D01*
X027313Y012500D02*
X027125Y012500D01*
X027000Y012375D01*
X027000Y012063D01*
X027063Y012000D01*
X027313Y012000D01*
X027375Y012063D01*
X027375Y012188D01*
X027313Y012250D01*
X027000Y012250D01*
X045875Y012813D02*
X045813Y012750D01*
X045563Y012750D01*
X045500Y012813D01*
X045500Y013188D01*
X045563Y013250D01*
X045813Y013250D01*
X045875Y013188D01*
X046000Y013188D02*
X046000Y013250D01*
X046375Y013250D01*
X046375Y013125D01*
X046125Y012875D01*
X046125Y012750D01*
X010000Y013313D02*
X009938Y013250D01*
X009688Y013250D01*
X009625Y013313D01*
X009625Y013688D01*
X009688Y013750D01*
X009938Y013750D01*
X010000Y013688D01*
X010188Y013500D02*
X010125Y013438D01*
X010125Y013313D01*
X010188Y013250D01*
X010438Y013250D01*
X010500Y013313D01*
X010500Y013438D01*
X010438Y013500D01*
X010188Y013500D01*
X010125Y013563D01*
X010125Y013688D01*
X010188Y013750D01*
X010438Y013750D01*
X010500Y013688D01*
X010500Y013563D01*
X010438Y013500D01*
X008875Y016688D02*
X008813Y016625D01*
X008563Y016625D01*
X008500Y016688D01*
X008500Y017063D01*
X008563Y017125D01*
X008813Y017125D01*
X008875Y017063D01*
X009063Y016625D02*
X009250Y016625D01*
X009375Y016750D01*
X009375Y017063D01*
X009313Y017125D01*
X009063Y017125D01*
X009000Y017063D01*
X009000Y016938D01*
X009063Y016875D01*
X009375Y016875D01*
X003750Y010938D02*
X003688Y010875D01*
X003438Y010875D01*
X003375Y010938D01*
X003375Y011313D01*
X003438Y011375D01*
X003688Y011375D01*
X003750Y011313D01*
X003875Y010875D02*
X004000Y010875D01*
X003938Y010875D02*
X003938Y011375D01*
X003875Y011313D01*
X004438Y011375D02*
X004250Y011375D01*
X004125Y011250D01*
X004125Y010938D01*
X004188Y010875D01*
X004438Y010875D01*
X004500Y010938D01*
X004500Y011063D01*
X004438Y011125D01*
X004125Y011125D01*
X012750Y006563D02*
X012688Y006500D01*
X012438Y006500D01*
X012375Y006563D01*
X012375Y006938D01*
X012438Y007000D01*
X012688Y007000D01*
X012750Y006938D01*
X012875Y006500D02*
X013000Y006500D01*
X012938Y006500D02*
X012938Y007000D01*
X012875Y006938D01*
X013125Y006938D02*
X013125Y007000D01*
X013500Y007000D01*
X013500Y006875D01*
X013250Y006625D01*
X013250Y006500D01*
X016250Y009438D02*
X016188Y009375D01*
X015938Y009375D01*
X015875Y009438D01*
X015875Y009813D01*
X015938Y009875D01*
X016188Y009875D01*
X016250Y009813D01*
X016375Y009375D02*
X016500Y009375D01*
X016438Y009375D02*
X016438Y009875D01*
X016375Y009813D01*
X016938Y009375D02*
X016938Y009875D01*
X016813Y009875D01*
X016625Y009688D01*
X016625Y009563D01*
X017000Y009563D01*
X009250Y009563D02*
X009188Y009500D01*
X008938Y009500D01*
X008875Y009563D01*
X008875Y009938D01*
X008938Y010000D01*
X009188Y010000D01*
X009250Y009938D01*
X009375Y009500D02*
X009500Y009500D01*
X009438Y009500D02*
X009438Y010000D01*
X009375Y009938D01*
X010000Y010000D02*
X009625Y010000D01*
X009625Y009750D01*
X009938Y009750D01*
X010000Y009688D01*
X010000Y009563D01*
X009938Y009500D01*
X009688Y009500D01*
X009625Y009563D01*
X019250Y017938D02*
X019188Y017875D01*
X018938Y017875D01*
X018875Y017938D01*
X018875Y018313D01*
X018938Y018375D01*
X019188Y018375D01*
X019250Y018313D01*
X019375Y017875D02*
X019500Y017875D01*
X019438Y017875D02*
X019438Y018375D01*
X019375Y018313D01*
X019625Y018313D02*
X019688Y018375D01*
X019938Y018375D01*
X020000Y018313D01*
X020000Y018188D01*
X019938Y018125D01*
X019750Y018125D01*
X019938Y018125D02*
X020000Y018063D01*
X020000Y017938D01*
X019938Y017875D01*
X019688Y017875D01*
X019625Y017938D01*
X048375Y018438D02*
X048313Y018375D01*
X048063Y018375D01*
X048000Y018438D01*
X048000Y018813D01*
X048063Y018875D01*
X048313Y018875D01*
X048375Y018813D01*
X048875Y018375D02*
X048500Y018375D01*
X048500Y018500D01*
X048625Y018625D01*
X048813Y018625D01*
X048875Y018688D01*
X048875Y018813D01*
X048813Y018875D01*
X048563Y018875D01*
X048500Y018813D01*
X021500Y017938D02*
X021438Y017875D01*
X021188Y017875D01*
X021125Y017938D01*
X021125Y018313D01*
X021188Y018375D01*
X021438Y018375D01*
X021500Y018313D01*
X021938Y017875D02*
X021938Y018375D01*
X021813Y018375D01*
X021625Y018188D01*
X021625Y018063D01*
X022000Y018063D01*
X029625Y018313D02*
X029563Y018250D01*
X029313Y018250D01*
X029250Y018313D01*
X029250Y018688D01*
X029313Y018750D01*
X029563Y018750D01*
X029625Y018688D01*
X029750Y018688D02*
X029813Y018750D01*
X030063Y018750D01*
X030125Y018688D01*
X030125Y018563D01*
X030063Y018500D01*
X029875Y018500D01*
X030063Y018500D02*
X030125Y018438D01*
X030125Y018313D01*
X030063Y018250D01*
X029813Y018250D01*
X029750Y018313D01*
X009750Y019320D02*
X009688Y019258D01*
X009438Y019258D01*
X009375Y019320D01*
X009375Y019695D01*
X009438Y019758D01*
X009688Y019758D01*
X009750Y019695D01*
X010250Y019758D02*
X009875Y019758D01*
X009875Y019508D01*
X010188Y019508D01*
X010250Y019445D01*
X010250Y019320D01*
X010188Y019258D01*
X009938Y019258D01*
X009875Y019320D01*
X057375Y018563D02*
X057313Y018500D01*
X057063Y018500D01*
X057000Y018563D01*
X057000Y018938D01*
X057063Y019000D01*
X057313Y019000D01*
X057375Y018938D01*
X057500Y018500D02*
X057625Y018500D01*
X057563Y018500D02*
X057563Y019000D01*
X057500Y018938D01*
X051000Y012063D02*
X051125Y012063D01*
X051125Y011938D01*
X051063Y011875D01*
X050813Y011875D01*
X050750Y011938D01*
X050750Y012313D01*
X050813Y012375D01*
X051063Y012375D01*
X051125Y012313D01*
X051250Y011875D02*
X051250Y012375D01*
X051563Y012375D01*
X051625Y012313D01*
X051625Y012188D01*
X051563Y012125D01*
X051250Y012125D01*
X051375Y012125D02*
X051625Y011875D01*
X051750Y011875D02*
X051875Y011875D01*
X051813Y011875D02*
X051813Y012375D01*
X051750Y012313D01*
X027031Y006813D02*
X027031Y006750D01*
X027094Y006688D01*
X027344Y006688D01*
X027406Y006750D01*
X027406Y007188D01*
X027281Y007188D01*
X027906Y006688D02*
X027531Y006688D01*
X027531Y006813D01*
X027656Y006938D01*
X027844Y006938D01*
X027906Y007000D01*
X027906Y007125D01*
X027844Y007188D01*
X027594Y007188D01*
X027531Y007125D01*
X049781Y006688D02*
X049781Y006625D01*
X049844Y006563D01*
X050094Y006563D01*
X050156Y006625D01*
X050156Y007063D01*
X050031Y007063D01*
X050281Y007000D02*
X050344Y007063D01*
X050594Y007063D01*
X050656Y007000D01*
X050656Y006875D01*
X050594Y006813D01*
X050406Y006813D01*
X050594Y006813D02*
X050656Y006750D01*
X050656Y006625D01*
X050594Y006563D01*
X050344Y006563D01*
X050281Y006625D01*
X037438Y008313D02*
X037438Y008813D01*
X037375Y008813D02*
X037500Y008813D01*
X037375Y008313D02*
X037500Y008313D01*
X038000Y008375D02*
X037938Y008313D01*
X037688Y008313D01*
X037625Y008375D01*
X037625Y008750D01*
X037688Y008813D01*
X037938Y008813D01*
X038000Y008750D01*
X038125Y008375D02*
X038188Y008313D01*
X038438Y008313D01*
X038500Y008375D01*
X038500Y008500D01*
X038438Y008563D01*
X038188Y008563D01*
X038125Y008625D01*
X038125Y008750D01*
X038188Y008813D01*
X038438Y008813D01*
X038500Y008750D01*
X038625Y008313D02*
X038625Y008813D01*
X038938Y008813D01*
X039000Y008750D01*
X039000Y008625D01*
X038938Y008563D01*
X038625Y008563D01*
X039125Y008313D02*
X039250Y008313D01*
X039188Y008313D02*
X039188Y008813D01*
X039125Y008750D01*
X011906Y003625D02*
X011906Y003125D01*
X012281Y003125D01*
X012781Y003125D02*
X012406Y003125D01*
X012406Y003625D01*
X012781Y003625D01*
X012406Y003375D02*
X012719Y003375D01*
X012906Y003125D02*
X012906Y003625D01*
X013219Y003625D01*
X013281Y003563D01*
X013281Y003188D01*
X013219Y003125D01*
X012906Y003125D01*
X013406Y003563D02*
X013469Y003625D01*
X013719Y003625D01*
X013781Y003563D01*
X013781Y003438D01*
X013719Y003375D01*
X013531Y003375D01*
X013719Y003375D02*
X013781Y003313D01*
X013781Y003188D01*
X013719Y003125D01*
X013469Y003125D01*
X013406Y003188D01*
X006125Y022844D02*
X006125Y022344D01*
X006500Y022344D01*
X007000Y022344D02*
X006625Y022344D01*
X006625Y022844D01*
X007000Y022844D01*
X006625Y022594D02*
X006938Y022594D01*
X007125Y022344D02*
X007125Y022844D01*
X007438Y022844D01*
X007500Y022781D01*
X007500Y022406D01*
X007438Y022344D01*
X007125Y022344D01*
X008000Y022344D02*
X007625Y022344D01*
X007625Y022469D01*
X007750Y022594D01*
X007938Y022594D01*
X008000Y022656D01*
X008000Y022781D01*
X007938Y022844D01*
X007688Y022844D01*
X007625Y022781D01*
X013906Y004375D02*
X013906Y003875D01*
X014281Y003875D01*
X014781Y003875D02*
X014406Y003875D01*
X014406Y004375D01*
X014781Y004375D01*
X014406Y004125D02*
X014719Y004125D01*
X014906Y003875D02*
X014906Y004375D01*
X015219Y004375D01*
X015281Y004313D01*
X015281Y003938D01*
X015219Y003875D01*
X014906Y003875D01*
X015719Y003875D02*
X015719Y004375D01*
X015594Y004375D01*
X015406Y004188D01*
X015406Y004063D01*
X015781Y004063D01*
X015906Y003625D02*
X015906Y003125D01*
X016281Y003125D01*
X016781Y003125D02*
X016406Y003125D01*
X016406Y003625D01*
X016781Y003625D01*
X016406Y003375D02*
X016719Y003375D01*
X016906Y003125D02*
X016906Y003625D01*
X017219Y003625D01*
X017281Y003563D01*
X017281Y003188D01*
X017219Y003125D01*
X016906Y003125D01*
X017781Y003625D02*
X017406Y003625D01*
X017406Y003375D01*
X017719Y003375D01*
X017781Y003313D01*
X017781Y003188D01*
X017719Y003125D01*
X017469Y003125D01*
X017406Y003188D01*
X016625Y022969D02*
X016625Y022469D01*
X017000Y022469D01*
X017500Y022469D02*
X017125Y022469D01*
X017125Y022969D01*
X017500Y022969D01*
X017125Y022719D02*
X017438Y022719D01*
X017625Y022469D02*
X017625Y022969D01*
X017938Y022969D01*
X018000Y022906D01*
X018000Y022531D01*
X017938Y022469D01*
X017625Y022469D01*
X018125Y022469D02*
X018250Y022469D01*
X018188Y022469D02*
X018188Y022969D01*
X018125Y022906D01*
X016961Y027969D02*
X016961Y027656D01*
X017148Y027469D01*
X017336Y027656D01*
X017336Y027969D01*
X017461Y027469D02*
X017461Y027969D01*
X017773Y027969D01*
X017836Y027906D01*
X017836Y027781D01*
X017773Y027719D01*
X017461Y027719D01*
X017586Y027719D02*
X017836Y027469D01*
X018336Y027469D02*
X017961Y027469D01*
X017961Y027594D01*
X018086Y027719D01*
X018273Y027719D01*
X018336Y027781D01*
X018336Y027906D01*
X018273Y027969D01*
X018023Y027969D01*
X017961Y027906D01*
X046461Y027844D02*
X046461Y027531D01*
X046648Y027344D01*
X046836Y027531D01*
X046836Y027844D01*
X046961Y027344D02*
X046961Y027844D01*
X047273Y027844D01*
X047336Y027781D01*
X047336Y027656D01*
X047273Y027594D01*
X046961Y027594D01*
X047086Y027594D02*
X047336Y027344D01*
X047461Y027344D02*
X047586Y027344D01*
X047523Y027344D02*
X047523Y027844D01*
X047461Y027781D01*
X003164Y003125D02*
X003164Y003063D01*
X003227Y003000D01*
X003477Y003000D01*
X003539Y003063D01*
X003539Y003500D01*
X003414Y003500D01*
X003977Y003000D02*
X003977Y003500D01*
X003852Y003500D01*
X003664Y003313D01*
X003664Y003188D01*
X004039Y003188D01*
X021250Y006156D02*
X021250Y006094D01*
X021313Y006031D01*
X021563Y006031D01*
X021625Y006094D01*
X021625Y006531D01*
X021500Y006531D01*
X022125Y006531D02*
X021750Y006531D01*
X021750Y006281D01*
X022063Y006281D01*
X022125Y006219D01*
X022125Y006094D01*
X022063Y006031D01*
X021813Y006031D01*
X021750Y006094D01*
X055969Y003000D02*
X055969Y002938D01*
X056031Y002875D01*
X056281Y002875D01*
X056344Y002938D01*
X056344Y003375D01*
X056219Y003375D01*
X056469Y002875D02*
X056594Y002875D01*
X056531Y002875D02*
X056531Y003375D01*
X056469Y003313D01*
X051500Y017813D02*
X051438Y017750D01*
X051188Y017750D01*
X051125Y017813D01*
X051125Y018188D01*
X051188Y018250D01*
X051438Y018250D01*
X051500Y018188D01*
X052000Y017750D02*
X051625Y017750D01*
X051625Y018250D01*
X052000Y018250D01*
X051625Y018000D02*
X051938Y018000D01*
X052125Y017750D02*
X052250Y017750D01*
X052188Y017750D02*
X052188Y018250D01*
X052125Y018188D01*
X000750Y007625D02*
X001250Y007625D01*
X001250Y007313D01*
X001188Y007250D01*
X001063Y007250D01*
X001000Y007313D01*
X001000Y007625D01*
X001000Y007500D02*
X000750Y007250D01*
X000750Y007125D02*
X000750Y007000D01*
X000750Y007063D02*
X001250Y007063D01*
X001188Y007125D01*
X001250Y006563D02*
X001250Y006750D01*
X001125Y006875D01*
X000813Y006875D01*
X000750Y006813D01*
X000750Y006563D01*
X000813Y006500D01*
X000938Y006500D01*
X001000Y006563D01*
X001000Y006875D01*
X013625Y017750D02*
X013625Y018250D01*
X013938Y018250D01*
X014000Y018188D01*
X014000Y018063D01*
X013938Y018000D01*
X013625Y018000D01*
X013750Y018000D02*
X014000Y017750D01*
X014188Y017750D02*
X014375Y017750D01*
X014500Y017875D01*
X014500Y018188D01*
X014438Y018250D01*
X014188Y018250D01*
X014125Y018188D01*
X014125Y018063D01*
X014188Y018000D01*
X014500Y018000D01*
X002750Y019500D02*
X003250Y019500D01*
X003250Y019188D01*
X003188Y019125D01*
X003063Y019125D01*
X003000Y019188D01*
X003000Y019500D01*
X003000Y019375D02*
X002750Y019125D01*
X002750Y018625D02*
X002750Y019000D01*
X002875Y019000D01*
X003000Y018875D01*
X003000Y018688D01*
X003063Y018625D01*
X003188Y018625D01*
X003250Y018688D01*
X003250Y018938D01*
X003188Y019000D01*
X019250Y013500D02*
X019750Y013500D01*
X019750Y013188D01*
X019688Y013125D01*
X019563Y013125D01*
X019500Y013188D01*
X019500Y013500D01*
X019500Y013375D02*
X019250Y013125D01*
X019250Y012688D02*
X019750Y012688D01*
X019750Y012813D01*
X019563Y013000D01*
X019438Y013000D01*
X019438Y012625D01*
X020250Y013500D02*
X020750Y013500D01*
X020750Y013188D01*
X020688Y013125D01*
X020563Y013125D01*
X020500Y013188D01*
X020500Y013500D01*
X020500Y013375D02*
X020250Y013125D01*
X020750Y012625D02*
X020750Y013000D01*
X020500Y013000D01*
X020500Y012688D01*
X020438Y012625D01*
X020313Y012625D01*
X020250Y012688D01*
X020250Y012938D01*
X020313Y013000D01*
X015125Y019500D02*
X015125Y020000D01*
X015438Y020000D01*
X015500Y019938D01*
X015500Y019813D01*
X015438Y019750D01*
X015125Y019750D01*
X015250Y019750D02*
X015500Y019500D01*
X015625Y019500D02*
X015750Y019500D01*
X015688Y019500D02*
X015688Y020000D01*
X015625Y019938D01*
X002750Y007625D02*
X003250Y007625D01*
X003250Y007313D01*
X003188Y007250D01*
X003063Y007250D01*
X003000Y007313D01*
X003000Y007625D01*
X003000Y007500D02*
X002750Y007250D01*
X002750Y007125D02*
X002750Y007000D01*
X002750Y007063D02*
X003250Y007063D01*
X003188Y007125D01*
X003250Y006500D02*
X003250Y006875D01*
X003000Y006875D01*
X003000Y006563D01*
X002938Y006500D01*
X002813Y006500D01*
X002750Y006563D01*
X002750Y006813D01*
X002813Y006875D01*
X026125Y015750D02*
X026125Y016250D01*
X026438Y016250D01*
X026500Y016188D01*
X026500Y016063D01*
X026438Y016000D01*
X026125Y016000D01*
X026250Y016000D02*
X026500Y015750D01*
X027000Y015750D02*
X026625Y015750D01*
X026625Y016250D01*
X027000Y016250D01*
X026625Y016000D02*
X026938Y016000D01*
X027125Y015813D02*
X027188Y015750D01*
X027438Y015750D01*
X027500Y015813D01*
X027500Y015938D01*
X027438Y016000D01*
X027188Y016000D01*
X027125Y016063D01*
X027125Y016188D01*
X027188Y016250D01*
X027438Y016250D01*
X027500Y016188D01*
X027625Y015750D02*
X027750Y015750D01*
X027688Y015750D02*
X027688Y016250D01*
X027625Y016188D01*
X051625Y005313D02*
X051781Y005313D01*
X051703Y005313D02*
X051703Y005938D01*
X051625Y005859D01*
X052016Y005313D02*
X051938Y005391D01*
X051938Y005859D01*
X052016Y005938D01*
X052328Y005938D01*
X052406Y005859D01*
X052406Y005391D01*
X052328Y005313D01*
X052016Y005313D01*
X051938Y005391D02*
X052406Y005859D01*
X052563Y005625D02*
X053031Y005625D01*
X053656Y005313D02*
X053188Y005313D01*
X053188Y005469D01*
X053344Y005625D01*
X053578Y005625D01*
X053656Y005703D01*
X053656Y005859D01*
X053578Y005938D01*
X053266Y005938D01*
X053188Y005859D01*
X053891Y005313D02*
X053813Y005391D01*
X053813Y005859D01*
X053891Y005938D01*
X054203Y005938D01*
X054281Y005859D01*
X054281Y005391D01*
X054203Y005313D01*
X053891Y005313D01*
X053813Y005391D02*
X054281Y005859D01*
X054438Y005938D02*
X054438Y005547D01*
X054672Y005313D01*
X054906Y005547D01*
X054906Y005938D01*
X055141Y005703D02*
X055375Y005703D01*
X055453Y005625D01*
X055453Y005313D01*
X055453Y005391D02*
X055375Y005313D01*
X055141Y005313D01*
X055063Y005391D01*
X055063Y005469D01*
X055141Y005547D01*
X055375Y005547D01*
X055453Y005469D01*
X056000Y005391D02*
X055922Y005313D01*
X055688Y005313D01*
X055609Y005391D01*
X055609Y005625D01*
X055688Y005703D01*
X055922Y005703D01*
X056000Y005625D01*
X051563Y004250D02*
X051719Y004250D01*
X051641Y004250D02*
X051641Y004875D01*
X051563Y004797D01*
X052344Y004875D02*
X051875Y004875D01*
X051875Y004563D01*
X052266Y004563D01*
X052344Y004484D01*
X052344Y004328D01*
X052266Y004250D01*
X051953Y004250D01*
X051875Y004328D01*
X052500Y004563D02*
X052969Y004563D01*
X053594Y004250D02*
X053125Y004250D01*
X053125Y004406D01*
X053281Y004563D01*
X053516Y004563D01*
X053594Y004641D01*
X053594Y004797D01*
X053516Y004875D01*
X053203Y004875D01*
X053125Y004797D01*
X054141Y004250D02*
X054141Y004875D01*
X053984Y004875D01*
X053750Y004641D01*
X053750Y004484D01*
X054219Y004484D01*
X054375Y004875D02*
X054375Y004484D01*
X054609Y004250D01*
X054844Y004484D01*
X054844Y004875D01*
X056016Y004875D02*
X056016Y004250D01*
X056016Y004328D02*
X055938Y004250D01*
X055703Y004250D01*
X055625Y004328D01*
X055625Y004563D01*
X055703Y004641D01*
X055938Y004641D01*
X056016Y004563D01*
X056563Y004328D02*
X056484Y004250D01*
X056250Y004250D01*
X056172Y004328D01*
X056172Y004563D01*
X056250Y004641D01*
X056484Y004641D01*
X056563Y004563D01*
X020500Y008375D02*
X020500Y009250D01*
X021047Y009250D01*
X021156Y009141D01*
X021156Y008922D01*
X021047Y008813D01*
X020500Y008813D01*
X021484Y008375D02*
X021375Y008484D01*
X021375Y008813D01*
X021484Y008922D01*
X021813Y008922D01*
X021922Y008813D01*
X021922Y008484D01*
X021813Y008375D01*
X021484Y008375D01*
X022141Y008922D02*
X022141Y008484D01*
X022250Y008375D01*
X022359Y008375D01*
X022469Y008484D01*
X022469Y008813D01*
X022469Y008484D02*
X022578Y008375D01*
X022688Y008375D01*
X022797Y008484D01*
X022797Y008922D01*
X023563Y008484D02*
X023453Y008375D01*
X023125Y008375D01*
X023016Y008484D01*
X023016Y008813D01*
X023125Y008922D01*
X023453Y008922D01*
X023563Y008813D01*
X023563Y008648D01*
X023016Y008648D01*
X023781Y008375D02*
X023781Y008922D01*
X023781Y008813D02*
X023891Y008922D01*
X024000Y008922D01*
X024109Y008813D01*
X024875Y008484D02*
X024766Y008375D01*
X024438Y008375D01*
X024328Y008484D01*
X024328Y008813D01*
X024438Y008922D01*
X024766Y008922D01*
X024875Y008813D01*
X024875Y008648D01*
X024328Y008648D01*
X025641Y009250D02*
X025641Y008375D01*
X025641Y008484D02*
X025531Y008375D01*
X025203Y008375D01*
X025094Y008484D01*
X025094Y008813D01*
X025203Y008922D01*
X025531Y008922D01*
X025641Y008813D01*
X026734Y008375D02*
X026734Y009250D01*
X026734Y008813D02*
X026844Y008922D01*
X027172Y008922D01*
X027281Y008813D01*
X027281Y008484D01*
X027172Y008375D01*
X026844Y008375D01*
X026734Y008484D01*
X027555Y008047D02*
X027938Y008047D01*
X028047Y008156D01*
X028047Y008922D01*
X028047Y008484D02*
X027938Y008375D01*
X027609Y008375D01*
X027500Y008484D01*
X027500Y008922D01*
X029141Y008375D02*
X029141Y009250D01*
X029688Y009250D01*
X029797Y009141D01*
X029797Y008922D01*
X029688Y008813D01*
X029141Y008813D01*
X029359Y008813D02*
X029797Y008375D01*
X030125Y008375D02*
X030016Y008484D01*
X030016Y008813D01*
X030125Y008922D01*
X030453Y008922D01*
X030563Y008813D01*
X030563Y008484D01*
X030453Y008375D01*
X030125Y008375D01*
X031328Y008484D02*
X031219Y008375D01*
X030891Y008375D01*
X030781Y008484D01*
X030781Y008813D01*
X030891Y008922D01*
X031219Y008922D01*
X031328Y008813D01*
X031547Y008375D02*
X031547Y008922D01*
X031547Y008813D02*
X031656Y008922D01*
X031766Y008922D01*
X031875Y008813D01*
X032203Y008922D02*
X032531Y008922D01*
X032641Y008813D01*
X032641Y008375D01*
X032641Y008484D02*
X032531Y008375D01*
X032203Y008375D01*
X032094Y008484D01*
X032094Y008594D01*
X032203Y008703D01*
X032531Y008703D01*
X032641Y008594D01*
X032859Y008375D02*
X032859Y008813D01*
X032859Y008922D02*
X032859Y008977D01*
X033078Y008375D02*
X033297Y008375D01*
X033188Y008375D02*
X033188Y009250D01*
X033078Y009250D01*
X046313Y015844D02*
X046219Y015750D01*
X045844Y015750D01*
X045750Y015844D01*
X045750Y016406D01*
X045844Y016500D01*
X046219Y016500D01*
X046313Y016406D01*
X046500Y015750D02*
X046500Y016219D01*
X046781Y016500D01*
X047063Y016219D01*
X047063Y015750D01*
X046500Y016031D02*
X047063Y016031D01*
X047250Y015750D02*
X047250Y016500D01*
X047250Y016406D02*
X047813Y015844D01*
X047813Y015750D02*
X047813Y016500D01*
X048000Y016125D02*
X048563Y016125D01*
X049125Y016031D02*
X049313Y016031D01*
X049313Y015844D01*
X049219Y015750D01*
X048844Y015750D01*
X048750Y015844D01*
X048750Y016406D01*
X048844Y016500D01*
X049219Y016500D01*
X049313Y016406D01*
X050063Y015844D02*
X049969Y015750D01*
X049594Y015750D01*
X049500Y015844D01*
X049500Y016406D01*
X049594Y016500D01*
X049969Y016500D01*
X050063Y016406D01*
X050250Y015750D02*
X050438Y015750D01*
X050344Y015750D02*
X050344Y016500D01*
X050250Y016406D01*
X051188Y015750D02*
X050625Y015750D01*
X050625Y016500D01*
X051188Y016500D01*
X050625Y016125D02*
X051094Y016125D01*
X018313Y004938D02*
X018313Y004563D01*
X018125Y004750D02*
X018500Y004750D01*
X018625Y004500D02*
X018750Y004500D01*
X018688Y004500D02*
X018688Y005000D01*
X018625Y004938D01*
X019250Y004500D02*
X018875Y004500D01*
X018875Y004625D01*
X019000Y004750D01*
X019188Y004750D01*
X019250Y004813D01*
X019250Y004938D01*
X019188Y005000D01*
X018938Y005000D01*
X018875Y004938D01*
X019375Y005000D02*
X019375Y004688D01*
X019563Y004500D01*
X019750Y004688D01*
X019750Y005000D01*
X020875Y004563D02*
X020813Y004500D01*
X020563Y004500D01*
X020500Y004563D01*
X020500Y004938D01*
X020563Y005000D01*
X020813Y005000D01*
X020875Y004938D01*
X021000Y005000D02*
X021000Y004500D01*
X021375Y004500D01*
X022875Y004563D02*
X022813Y004500D01*
X022563Y004500D01*
X022500Y004563D01*
X022500Y004938D01*
X022563Y005000D01*
X022813Y005000D01*
X022875Y004938D01*
X023000Y004500D02*
X023000Y005000D01*
X023000Y004750D02*
X023375Y004750D01*
X023375Y005000D02*
X023375Y004500D01*
X024563Y004500D02*
X024500Y004563D01*
X024500Y004938D01*
X024563Y005000D01*
X024813Y005000D01*
X024875Y004938D01*
X024875Y004563D01*
X024813Y004500D01*
X024563Y004500D01*
X024500Y004563D02*
X024875Y004938D01*
X025000Y005000D02*
X025000Y004688D01*
X025188Y004500D01*
X025375Y004688D01*
X025375Y005000D01*
X045375Y016750D02*
X051625Y016750D01*
X051625Y015500D01*
X045375Y015500D01*
X045375Y016750D01*
X020250Y009750D02*
X033500Y009750D01*
X033500Y007875D01*
X020250Y007875D01*
X020250Y009750D01*
X001938Y022906D02*
X001938Y023656D01*
X001938Y023563D02*
X002031Y023656D01*
X002313Y023656D01*
X002406Y023563D01*
X002406Y023281D01*
X002313Y023188D01*
X002031Y023188D01*
X001938Y023281D01*
X002594Y023938D02*
X002594Y023188D01*
X002594Y023563D02*
X002688Y023656D01*
X002969Y023656D01*
X003063Y023563D01*
X003063Y023188D01*
X003719Y023281D02*
X003625Y023188D01*
X003344Y023188D01*
X003250Y023281D01*
X003250Y023563D01*
X003344Y023656D01*
X003625Y023656D01*
X003719Y023563D01*
X003719Y023656D02*
X003719Y023000D01*
X003625Y022906D01*
X003250Y022906D01*
X001563Y024313D02*
X004063Y024313D01*
X004063Y022563D01*
X001563Y022563D01*
X001563Y024313D01*
X024625Y018125D02*
X024625Y018625D01*
X024938Y018625D01*
X025000Y018563D01*
X025000Y018438D01*
X024938Y018375D01*
X024625Y018375D01*
X024750Y018375D02*
X025000Y018125D01*
X025125Y018125D02*
X025250Y018125D01*
X025188Y018125D02*
X025188Y018625D01*
X025125Y018563D01*
X025438Y018375D02*
X025375Y018313D01*
X025375Y018188D01*
X025438Y018125D01*
X025688Y018125D01*
X025750Y018188D01*
X025750Y018313D01*
X025688Y018375D01*
X025438Y018375D01*
X025375Y018438D01*
X025375Y018563D01*
X025438Y018625D01*
X025688Y018625D01*
X025750Y018563D01*
X025750Y018438D01*
X025688Y018375D01*
X027750Y016500D02*
X027750Y017000D01*
X028063Y017000D01*
X028125Y016938D01*
X028125Y016813D01*
X028063Y016750D01*
X027750Y016750D01*
X027875Y016750D02*
X028125Y016500D01*
X028250Y016500D02*
X028375Y016500D01*
X028313Y016500D02*
X028313Y017000D01*
X028250Y016938D01*
X028563Y016500D02*
X028750Y016500D01*
X028875Y016625D01*
X028875Y016938D01*
X028813Y017000D01*
X028563Y017000D01*
X028500Y016938D01*
X028500Y016813D01*
X028563Y016750D01*
X028875Y016750D01*
X024375Y023125D02*
X024375Y023625D01*
X024688Y023625D01*
X024750Y023563D01*
X024750Y023438D01*
X024688Y023375D01*
X024375Y023375D01*
X025188Y023125D02*
X024938Y023125D01*
X024875Y023188D01*
X024875Y023563D01*
X024938Y023625D01*
X025188Y023625D01*
X025250Y023563D01*
X025250Y023188D01*
X025188Y023125D01*
X025563Y023125D02*
X025563Y023625D01*
X025375Y023625D02*
X025750Y023625D01*
X025875Y023125D02*
X026000Y023125D01*
X025938Y023125D02*
X025938Y023625D01*
X025875Y023563D01*
X007125Y028000D02*
X007125Y027688D01*
X007313Y027500D01*
X007500Y027688D01*
X007500Y028000D01*
X007625Y027500D02*
X007625Y028000D01*
X007938Y028000D01*
X008000Y027938D01*
X008000Y027813D01*
X007938Y027750D01*
X007625Y027750D01*
X007750Y027750D02*
X008000Y027500D01*
X008125Y027938D02*
X008188Y028000D01*
X008438Y028000D01*
X008500Y027938D01*
X008500Y027813D01*
X008438Y027750D01*
X008250Y027750D01*
X008438Y027750D02*
X008500Y027688D01*
X008500Y027563D01*
X008438Y027500D01*
X008188Y027500D01*
X008125Y027563D01*
X050500Y026969D02*
X050406Y026875D01*
X050031Y026875D01*
X049938Y026969D01*
X049938Y027531D01*
X050031Y027625D01*
X050406Y027625D01*
X050500Y027531D01*
X050688Y026875D02*
X050688Y027344D01*
X050969Y027625D01*
X051250Y027344D01*
X051250Y026875D01*
X050688Y027156D02*
X051250Y027156D01*
X051438Y026875D02*
X051438Y027625D01*
X051438Y027531D02*
X052000Y026969D01*
X052000Y026875D02*
X052000Y027625D01*
X052188Y027250D02*
X052750Y027250D01*
X053313Y027156D02*
X053500Y027156D01*
X053500Y026969D01*
X053406Y026875D01*
X053031Y026875D01*
X052938Y026969D01*
X052938Y027531D01*
X053031Y027625D01*
X053406Y027625D01*
X053500Y027531D01*
X054250Y026969D02*
X054156Y026875D01*
X053781Y026875D01*
X053688Y026969D01*
X053688Y027531D01*
X053781Y027625D01*
X054156Y027625D01*
X054250Y027531D01*
X054438Y026875D02*
X054625Y026875D01*
X054531Y026875D02*
X054531Y027625D01*
X054438Y027531D01*
X055281Y026969D02*
X055188Y026875D01*
X054906Y026875D01*
X054813Y026969D01*
X054813Y027250D01*
X054906Y027344D01*
X055188Y027344D01*
X055281Y027250D01*
X055281Y027109D01*
X054813Y027109D01*
X051813Y026500D02*
X051813Y026031D01*
X052094Y025750D01*
X052375Y026031D01*
X052375Y026500D01*
X052563Y025750D02*
X052750Y025750D01*
X052656Y025750D02*
X052656Y026500D01*
X052563Y026406D01*
X052938Y026125D02*
X053500Y026125D01*
X053688Y025750D02*
X053875Y025750D01*
X053781Y025750D02*
X053781Y026500D01*
X053688Y026406D01*
X024125Y027875D02*
X041625Y027875D01*
X041625Y026375D01*
X024125Y026375D01*
X024125Y027875D01*
X049688Y027875D02*
X055563Y027875D01*
X055563Y025500D01*
X049688Y025500D01*
X049688Y027875D01*
X033375Y015750D02*
X033375Y016250D01*
X033688Y016250D01*
X033750Y016188D01*
X033750Y016063D01*
X033688Y016000D01*
X033375Y016000D01*
X033875Y015750D02*
X033875Y016250D01*
X034188Y016250D01*
X034250Y016188D01*
X034250Y016094D01*
X034188Y016031D01*
X033875Y016031D01*
X034188Y016031D02*
X034250Y015969D01*
X034250Y015813D01*
X034188Y015750D01*
X033875Y015750D01*
X034375Y015750D02*
X034500Y015750D01*
X034438Y015750D02*
X034438Y016250D01*
X034375Y016188D01*
X025125Y027156D02*
X025313Y027156D01*
X025313Y026969D01*
X025219Y026875D01*
X024844Y026875D01*
X024750Y026969D01*
X024750Y027531D01*
X024844Y027625D01*
X025219Y027625D01*
X025313Y027531D01*
X025500Y026875D02*
X025500Y027250D01*
X025500Y027344D02*
X025500Y027391D01*
X025688Y026875D02*
X025875Y026875D01*
X025781Y026875D02*
X025781Y027625D01*
X025688Y027625D01*
X026156Y026875D02*
X026156Y027250D01*
X026156Y027344D02*
X026156Y027391D01*
X026344Y026875D02*
X026344Y027344D01*
X026344Y027250D02*
X026438Y027344D01*
X026719Y027344D01*
X026813Y027250D01*
X026813Y026875D01*
X027469Y026969D02*
X027375Y026875D01*
X027094Y026875D01*
X027000Y026969D01*
X027000Y027250D01*
X027094Y027344D01*
X027375Y027344D01*
X027469Y027250D01*
X027469Y027344D02*
X027469Y026688D01*
X027375Y026594D01*
X027000Y026594D01*
X029063Y026969D02*
X028969Y026875D01*
X028594Y026875D01*
X028500Y026969D01*
X028500Y027531D01*
X028594Y027625D01*
X028969Y027625D01*
X029063Y027531D01*
X029344Y026875D02*
X029250Y026969D01*
X029250Y027250D01*
X029344Y027344D01*
X029625Y027344D01*
X029719Y027250D01*
X029719Y026969D01*
X029625Y026875D01*
X029344Y026875D01*
X029906Y027344D02*
X029906Y026875D01*
X029906Y027250D02*
X030000Y027344D01*
X030094Y027344D01*
X030188Y027250D01*
X030188Y026875D01*
X030188Y027250D02*
X030281Y027344D01*
X030375Y027344D01*
X030469Y027250D01*
X030469Y026875D01*
X030656Y026594D02*
X030656Y027344D01*
X030656Y027250D02*
X030750Y027344D01*
X031031Y027344D01*
X031125Y027250D01*
X031125Y026969D01*
X031031Y026875D01*
X030750Y026875D01*
X030656Y026969D01*
X031313Y027344D02*
X031313Y026969D01*
X031406Y026875D01*
X031688Y026875D01*
X031781Y026969D01*
X031781Y027344D02*
X031781Y026875D01*
X031969Y027625D02*
X031969Y026969D01*
X032063Y026875D01*
X032250Y026875D01*
X032344Y026969D01*
X031969Y027344D02*
X032156Y027344D01*
X033000Y026969D02*
X032906Y026875D01*
X032625Y026875D01*
X032531Y026969D01*
X032531Y027250D01*
X032625Y027344D01*
X032906Y027344D01*
X033000Y027250D01*
X033000Y027109D01*
X032531Y027109D01*
X033188Y026875D02*
X033188Y027344D01*
X033188Y027250D02*
X033281Y027344D01*
X033375Y027344D01*
X033469Y027250D01*
X034406Y026875D02*
X034406Y027344D01*
X034688Y027625D01*
X034969Y027344D01*
X034969Y026875D01*
X034406Y027156D02*
X034969Y027156D01*
X035156Y026594D02*
X035156Y027344D01*
X035156Y027250D02*
X035250Y027344D01*
X035531Y027344D01*
X035625Y027250D01*
X035625Y026969D01*
X035531Y026875D01*
X035250Y026875D01*
X035156Y026969D01*
X035813Y026594D02*
X035813Y027344D01*
X035813Y027250D02*
X035906Y027344D01*
X036188Y027344D01*
X036281Y027250D01*
X036281Y026969D01*
X036188Y026875D01*
X035906Y026875D01*
X035813Y026969D01*
X036469Y026875D02*
X036656Y026875D01*
X036563Y026875D02*
X036563Y027625D01*
X036469Y027625D01*
X036938Y026875D02*
X036938Y027250D01*
X036938Y027344D02*
X036938Y027391D01*
X037594Y026969D02*
X037500Y026875D01*
X037219Y026875D01*
X037125Y026969D01*
X037125Y027250D01*
X037219Y027344D01*
X037500Y027344D01*
X037594Y027250D01*
X037875Y027344D02*
X038156Y027344D01*
X038250Y027250D01*
X038250Y026875D01*
X038250Y026969D02*
X038156Y026875D01*
X037875Y026875D01*
X037781Y026969D01*
X037781Y027063D01*
X037875Y027156D01*
X038156Y027156D01*
X038250Y027063D01*
X038438Y027625D02*
X038438Y026969D01*
X038531Y026875D01*
X038719Y026875D01*
X038813Y026969D01*
X038438Y027344D02*
X038625Y027344D01*
X039000Y026875D02*
X039000Y027250D01*
X039000Y027344D02*
X039000Y027391D01*
X039281Y026875D02*
X039188Y026969D01*
X039188Y027250D01*
X039281Y027344D01*
X039563Y027344D01*
X039656Y027250D01*
X039656Y026969D01*
X039563Y026875D01*
X039281Y026875D01*
X039844Y026875D02*
X039844Y027344D01*
X039844Y027250D02*
X039938Y027344D01*
X040219Y027344D01*
X040313Y027250D01*
X040313Y026875D01*
X040500Y026969D02*
X040594Y026875D01*
X040875Y026875D01*
X040969Y026969D01*
X040969Y027016D01*
X040875Y027109D01*
X040594Y027109D01*
X040500Y027203D01*
X040500Y027250D01*
X040594Y027344D01*
X040875Y027344D01*
X040969Y027250D01*
M02*
