G04                                                                  *
G04 SOURCE        : LAYO1 PCB.EXE VERSION 10                         *
G04 FORMAT        : GERBER RS-274X, Inch, 2.4, Leading Zero          *
G04 TITLE         : CAN-GC1E_SIGNAL TOP                              *
G04 TIME          : Sunday, February 12, 2012  16:09:27              *
G04                                                                  *
G04 Board width   : 149.860 mm. =  5.9000 inch                       *
G04 Board height  :  68.580 mm. =  2.7000 inch                       *
G04 Board offset  :   0.000 mm. =  0.0000 inch                       *
G04 Board offset  :   0.000 mm. =  0.0000 inch                       *
G04                                                                  *
G04 Apertures:                                                       *
G04       Type          X       Y             X       Y        Used  *
G04                      Inches                Metric                *
G04 D10   Draw        0.0079  0.0079        0.200   0.200         5  *
G04 D11   Round       0.0622  0.0622        1.580   1.580       163  *
G04 D12   Round       0.2118  0.2118        5.380   5.380         4  *
G04 D13   Round       0.0874  0.0874        2.220   2.220        24  *
G04 D14   Round       0.2370  0.2370        6.020   6.020         4  *
G04 D15   Round       0.1622  0.1622        4.120   4.120         6  *
G04 D16   Round       0.1118  0.1118        2.840   2.840        14  *
G04 D17   Round       0.1370  0.1370        3.480   3.480         6  *
G04 D18   Draw        0.0375  0.0375        0.953   0.953       157  *
G04 D19   Draw        0.0125  0.0125        0.318   0.318        25  *
G04 D20   Round       0.0394  0.0394        1.000   1.000         5  *
G04 D21   Round       0.1874  0.1874        4.760   4.760         2  *
G04 D22   Draw        0.0875  0.0875        2.223   2.223         9  *
G04                                                                  *
%FSLAX24Y24*
MOIN*
SFA1.0B1.0*%
%ADD10C,0.0079*%
%ADD11C,0.0622*%
%ADD12C,0.2118*%
%ADD13C,0.0874*%
%ADD14C,0.2370*%
%ADD15C,0.1622*%
%ADD16C,0.1118*%
%ADD17C,0.1370*%
%ADD18C,0.0375*%
%ADD19C,0.0125*%
%ADD20C,0.0394*%
%ADD21C,0.1874*%
%ADD22C,0.0875*%
%LNSIGNAL TOP*%
G54D10*
X000000Y027000D02*
X000000Y000000D01*
X059000Y000000D01*
X059000Y027000D01*
X000000Y027000D01*
G54D11*
X034000Y015000D03*
X033000Y015000D03*
X032000Y015000D03*
X031000Y015000D03*
X030000Y015000D03*
X024000Y012000D03*
X025000Y012000D03*
X028000Y012000D03*
X029000Y012000D03*
X032000Y012000D03*
X033000Y012000D03*
X015000Y015000D03*
X014000Y015000D03*
X013000Y015000D03*
X041000Y012000D03*
X005508Y006375D03*
X045500Y021000D03*
X001125Y021875D03*
X002000Y021000D03*
X003625Y021875D03*
X003000Y021000D03*
X013000Y009000D03*
X011625Y005875D03*
X009500Y006375D03*
X001000Y009000D03*
X013000Y008000D03*
X009352Y007344D03*
X017000Y015000D03*
X018250Y018125D03*
X016000Y012000D03*
X017000Y008000D03*
X015000Y012000D03*
X008000Y009000D03*
X013000Y012000D03*
X014000Y010500D03*
X016000Y010500D03*
X022000Y012000D03*
X012000Y015000D03*
X008000Y015000D03*
X008000Y018000D03*
X012125Y018000D03*
X022000Y015000D03*
X010000Y015000D03*
X023000Y012000D03*
X011000Y015000D03*
X029000Y015000D03*
X009000Y015000D03*
X012000Y012000D03*
X012000Y010500D03*
X010000Y010500D03*
X006000Y015000D03*
X006305Y006375D03*
X003000Y005000D03*
X006000Y012000D03*
X009000Y009000D03*
X008703Y006375D03*
X005000Y015000D03*
X002000Y005000D03*
X007102Y006375D03*
X005000Y012000D03*
X007906Y006375D03*
X001000Y005000D03*
X004000Y015000D03*
X008000Y017000D03*
X026000Y015000D03*
X026000Y016500D03*
X002000Y009000D03*
X003000Y010250D03*
X003000Y009000D03*
X035000Y015000D03*
X036500Y016000D03*
X027000Y015000D03*
X028000Y016500D03*
X034000Y012000D03*
X004000Y009000D03*
X004656Y007344D03*
X035000Y012000D03*
X023000Y015000D03*
X020500Y015000D03*
X024000Y015000D03*
X019500Y015000D03*
X025000Y015000D03*
X018500Y015000D03*
X017375Y002375D03*
X020500Y011000D03*
X015375Y002375D03*
X019500Y011000D03*
X018500Y011000D03*
X013375Y002375D03*
X031492Y005125D03*
X044117Y005125D03*
X032578Y005125D03*
X045203Y005125D03*
X042000Y012000D03*
X033125Y004125D03*
X045750Y004125D03*
X031000Y012000D03*
X041000Y015000D03*
X033664Y005125D03*
X046289Y005125D03*
X040000Y011000D03*
X043000Y012000D03*
X044000Y011000D03*
X032039Y004125D03*
X044664Y004125D03*
X030000Y012000D03*
X044000Y015000D03*
X044000Y012000D03*
X045000Y011125D03*
X028000Y015000D03*
X026000Y012000D03*
X016000Y015000D03*
X007000Y015000D03*
X007000Y012000D03*
X010000Y012000D03*
X011000Y012000D03*
X043000Y015000D03*
X004000Y017000D03*
X045000Y015125D03*
X007000Y013500D03*
X025000Y013500D03*
X043500Y013500D03*
X010000Y018000D03*
X005000Y010250D03*
X011625Y007875D03*
X017000Y010500D03*
X009000Y010500D03*
X017250Y018125D03*
X045500Y020000D03*
X022125Y021000D03*
X025750Y021500D03*
X034750Y005125D03*
X034211Y004125D03*
X047375Y005125D03*
X046836Y004125D03*
X010352Y007344D03*
X005656Y007344D03*
X003000Y017000D03*
X002000Y017000D03*
X027000Y016500D03*
X022125Y020000D03*
X025750Y019500D03*
X030406Y005125D03*
X030953Y004125D03*
X043031Y005125D03*
X043578Y004125D03*
X001125Y022875D03*
X027000Y012000D03*
X004000Y012000D03*
X008000Y012000D03*
X009000Y012000D03*
X014000Y012000D03*
X017000Y012000D03*
X042000Y015000D03*
X036500Y012000D03*
X009000Y013500D03*
X027000Y013500D03*
X041500Y013500D03*
X012375Y002375D03*
X003625Y022875D03*
X014375Y002375D03*
X016375Y002375D03*
X016125Y018000D03*
G54D12*
X037391Y004625D03*
X027570Y004625D03*
X050016Y004625D03*
X040195Y004625D03*
G54D13*
X038500Y013000D03*
X040500Y020125D03*
X041172Y021703D03*
X015500Y019500D03*
X017672Y021703D03*
X001000Y010500D03*
X038500Y016000D03*
X038500Y012000D03*
X038500Y011000D03*
X042625Y009625D03*
X041625Y009625D03*
X011500Y019500D03*
X008000Y025000D03*
X038500Y015000D03*
X018336Y020125D03*
X019680Y020125D03*
X041836Y020125D03*
X043180Y020125D03*
X017000Y020125D03*
X042508Y021703D03*
X001000Y015500D03*
X010000Y025000D03*
X038500Y014000D03*
X019008Y021703D03*
G54D14*
X001500Y025500D03*
X057500Y025500D03*
X057500Y001500D03*
X001500Y001500D03*
G54D15*
X043500Y024500D03*
X013250Y024500D03*
X056000Y012875D03*
X054000Y012875D03*
X052000Y012875D03*
X050000Y012875D03*
G54D16*
X057000Y006500D03*
X055875Y019375D03*
X050625Y023125D03*
X033000Y022375D03*
X039000Y018000D03*
X015500Y021500D03*
X057000Y008500D03*
X044000Y018000D03*
X055875Y016375D03*
X010680Y000727D03*
X004320Y000727D03*
X050625Y020125D03*
X033000Y018375D03*
X005500Y021500D03*
G54D17*
X054750Y003000D03*
X052750Y003000D03*
X021000Y003000D03*
X023000Y003000D03*
X025000Y003000D03*
X019000Y003000D03*
G54D18*
X045500Y021000D02*
X044500Y021000D01*
X044500Y019250D01*
X041000Y019250D01*
X040500Y019750D01*
X040500Y020125D01*
X001000Y009000D02*
X001000Y006000D01*
X004000Y006000D01*
X004000Y005000D01*
X011625Y005000D01*
X011625Y005875D01*
X017000Y015000D02*
X017000Y016250D01*
X018250Y016250D01*
X018250Y018125D01*
X016000Y012000D02*
X016000Y011250D01*
X017625Y011250D01*
X017625Y008000D01*
X017000Y008000D01*
X015000Y012000D02*
X015000Y011250D01*
X008000Y011250D01*
X008000Y009000D01*
X004000Y015000D02*
X004000Y015875D01*
X008000Y015875D01*
X008000Y017000D01*
X032867Y008125D02*
X032742Y008250D01*
X031492Y008250D01*
X031492Y005125D01*
X032578Y005125D02*
X032578Y006750D01*
X045203Y006750D01*
X045203Y005125D01*
X031000Y012000D02*
X031000Y013375D01*
X037250Y013375D01*
X037250Y010125D01*
X037375Y010000D01*
X039375Y010000D01*
X039375Y015000D01*
X041000Y015000D01*
X045164Y007375D02*
X042914Y007375D01*
X030000Y012000D02*
X030000Y013875D01*
X037375Y013875D01*
X037375Y017000D01*
X040500Y017000D02*
X041625Y015875D01*
X044000Y015875D01*
X044000Y015000D01*
X027000Y016500D02*
X027000Y016250D01*
X028000Y015250D01*
X028000Y015000D01*
X010000Y018000D02*
X010000Y019500D01*
X011500Y019500D01*
X010000Y019500D02*
X004000Y019500D01*
X004000Y017000D01*
X011625Y007875D02*
X011625Y006875D01*
X012375Y006875D01*
X012375Y004250D01*
X010000Y004250D01*
X010000Y002000D01*
X005000Y010250D02*
X007000Y010250D01*
X007000Y012000D01*
X016000Y015000D02*
X016000Y017000D01*
X017250Y017000D01*
X017250Y018125D01*
X011500Y019500D02*
X013625Y019500D01*
X013625Y018625D01*
X017250Y018625D01*
X017250Y018125D01*
X025750Y021500D02*
X024625Y021500D01*
X024625Y018250D01*
X027000Y018250D01*
X027000Y016500D01*
X017000Y020125D02*
X017000Y019125D01*
X022125Y019125D01*
X022125Y020000D01*
X001125Y022875D02*
X002500Y022875D01*
X003250Y023625D01*
X005625Y023625D01*
X006500Y022750D01*
X021250Y022750D01*
X021250Y020000D01*
X022125Y020000D01*
X042508Y021703D02*
X042508Y022703D01*
X036633Y022703D01*
X036633Y020453D01*
X027633Y020453D01*
X027633Y019453D01*
X025828Y019453D01*
X025758Y019453D01*
X021000Y003000D02*
X021000Y000625D01*
X033125Y000625D01*
X033125Y002625D01*
X033125Y003125D01*
X033125Y004125D01*
X045750Y004125D02*
X045750Y003125D01*
X033125Y003125D01*
X045750Y005875D02*
X045750Y009625D01*
X042625Y009625D01*
X023000Y003000D02*
X023000Y001375D01*
X032000Y001375D01*
X032000Y004125D01*
X014000Y012000D02*
X014000Y013000D01*
X014500Y013000D01*
X017000Y013000D01*
X017000Y012000D01*
X004000Y012000D02*
X004000Y012750D01*
X008000Y012750D01*
X008000Y013500D01*
X009000Y013500D01*
X009000Y012000D01*
X016125Y018000D02*
X014500Y018000D01*
X014500Y015625D01*
X014500Y014250D02*
X014500Y013000D01*
X017000Y012000D02*
X021250Y012000D01*
X021250Y011125D01*
X021250Y010000D01*
X018250Y010000D01*
X018250Y007000D01*
X016375Y007000D01*
X016375Y002375D01*
X009000Y013500D02*
X014000Y013500D01*
X014000Y013000D01*
X027000Y012000D02*
X027000Y011125D01*
X021250Y011125D01*
X027000Y011125D02*
X036500Y011125D01*
X036500Y012000D01*
G54D19*
X006305Y006375D02*
X006305Y008375D01*
X005430Y008375D01*
X003680Y010125D01*
X003680Y010500D01*
X002930Y011250D01*
X002930Y014125D01*
X004500Y014125D01*
X004500Y015625D01*
X006000Y015625D01*
X006000Y015000D01*
X007102Y006375D02*
X007102Y008125D01*
X007102Y008750D01*
X005602Y008750D01*
X004102Y010250D01*
X004102Y010750D01*
X003352Y011500D01*
X003352Y013625D01*
X004977Y013625D01*
X004977Y015000D01*
X045750Y004125D02*
X045750Y005875D01*
X014500Y015625D02*
X014500Y014250D01*
G54D20*
X032867Y008125D03*
X045164Y007375D03*
X042914Y007375D03*
X034078Y002000D03*
X043078Y002000D03*
G54D21*
X010000Y001977D03*
X005000Y001977D03*
G54D22*
X034078Y002000D02*
X043078Y002000D01*
X048328Y002000D01*
X048328Y016750D01*
X042328Y016750D01*
X039453Y019625D01*
X028953Y019625D01*
X028828Y019500D01*
X025828Y019500D01*
M02*
