G04                                                                  *
G04 SOURCE        : LAYO1 PCB.EXE VERSION 10                         *
G04 FORMAT        : GERBER RS-274X, Inch, 2.4, Leading Zero          *
G04 TITLE         : CAN-GC1E_SIGNAL TOP                              *
G04 TIME          : Friday, March 23, 2012  22:32:05                 *
G04                                                                  *
G04 Board width   : 149.860 mm. =  5.9000 inch                       *
G04 Board height  :  72.390 mm. =  2.8500 inch                       *
G04 Board offset  :   0.000 mm. =  0.0000 inch                       *
G04 Board offset  :   0.000 mm. =  0.0000 inch                       *
G04                                                                  *
G04 Apertures:                                                       *
G04       Type          X       Y             X       Y        Used  *
G04                      Inches                Metric                *
G04 D10   Draw        0.0079  0.0079        0.200   0.200         5  *
G04 D11   Round       0.0622  0.0622        1.580   1.580       174  *
G04 D12   Round       0.2118  0.2118        5.380   5.380         4  *
G04 D13   Round       0.0874  0.0874        2.220   2.220        28  *
G04 D14   Round       0.2622  0.2622        6.660   6.660         9  *
G04 D15   Round       0.0394  0.0394        1.000   1.000         1  *
G04 D16   Draw        0.0625  0.0625        1.588   1.588        75  *
G04 D17   Round       0.1118  0.1118        2.840   2.840        12  *
G04 D18   Round       0.1370  0.1370        3.480   3.480         6  *
G04 D19   Round       0.1622  0.1622        4.120   4.120         4  *
G04 D20   Draw        0.0375  0.0375        0.953   0.953       171  *
G04 D21   Draw        0.0125  0.0125        0.318   0.318        40  *
G04 D22   Round       0.1874  0.1874        4.760   4.760         2  *
G04 D23   Draw        0.0875  0.0875        2.223   2.223        11  *
G04                                                                  *
%FSLAX24Y24*
MOIN*
SFA1.0B1.0*%
%ADD10C,0.0079*%
%ADD11C,0.0622*%
%ADD12C,0.2118*%
%ADD13C,0.0874*%
%ADD14C,0.2622*%
%ADD15C,0.0394*%
%ADD16C,0.0625*%
%ADD17C,0.1118*%
%ADD18C,0.1370*%
%ADD19C,0.1622*%
%ADD20C,0.0375*%
%ADD21C,0.0125*%
%ADD22C,0.1874*%
%ADD23C,0.0875*%
%LNSIGNAL TOP*%
G54D10*
X000000Y028500D02*
X000000Y000000D01*
X059000Y000000D01*
X059000Y028500D01*
X000000Y028500D01*
G54D11*
X033000Y013625D03*
X032000Y013625D03*
X031000Y013625D03*
X030000Y013625D03*
X024000Y010625D03*
X025000Y010625D03*
X028000Y010625D03*
X029000Y010625D03*
X032000Y010625D03*
X033000Y010625D03*
X015000Y015000D03*
X014000Y015000D03*
X013000Y015000D03*
X041000Y012000D03*
X005508Y006375D03*
X047625Y020750D03*
X027250Y018375D03*
X017500Y020500D03*
X017500Y019750D03*
X007000Y020500D03*
X003000Y021000D03*
X013000Y009000D03*
X011625Y005875D03*
X009500Y006375D03*
X001000Y009000D03*
X013000Y008000D03*
X009352Y007344D03*
X017000Y015000D03*
X018250Y018125D03*
X016000Y012000D03*
X017000Y008000D03*
X015000Y012000D03*
X008000Y009000D03*
X034000Y013625D03*
X029750Y016750D03*
X013000Y012000D03*
X014000Y010500D03*
X015750Y010500D03*
X022000Y010625D03*
X012000Y015000D03*
X008000Y015000D03*
X008000Y018000D03*
X012125Y018000D03*
X022000Y013625D03*
X010000Y015000D03*
X023000Y010625D03*
X011000Y015000D03*
X029000Y013625D03*
X009000Y015000D03*
X012000Y012000D03*
X012000Y010500D03*
X010250Y010500D03*
X006000Y015000D03*
X006305Y006375D03*
X003000Y005000D03*
X006000Y012000D03*
X009000Y009000D03*
X008703Y006375D03*
X005000Y015000D03*
X002000Y005000D03*
X007102Y006375D03*
X005000Y012000D03*
X007906Y006375D03*
X001000Y005000D03*
X004000Y015000D03*
X008000Y017000D03*
X026000Y013625D03*
X026000Y015000D03*
X002000Y009000D03*
X003000Y010250D03*
X003000Y009000D03*
X035000Y013625D03*
X036500Y014625D03*
X027000Y013625D03*
X028000Y015000D03*
X034000Y010625D03*
X004000Y009000D03*
X004656Y007344D03*
X035000Y010625D03*
X023000Y013625D03*
X020500Y015000D03*
X024000Y013625D03*
X019500Y015000D03*
X025000Y013625D03*
X018500Y015000D03*
X017375Y002375D03*
X020500Y011000D03*
X015375Y002375D03*
X019500Y011000D03*
X018500Y011000D03*
X013375Y002375D03*
X031492Y005125D03*
X044117Y005125D03*
X032992Y007250D03*
X032578Y005125D03*
X045203Y005125D03*
X042000Y012000D03*
X033125Y004125D03*
X045750Y004125D03*
X031000Y010625D03*
X041000Y015000D03*
X033664Y005125D03*
X046289Y005125D03*
X045289Y007375D03*
X042914Y007375D03*
X040000Y011000D03*
X043000Y012000D03*
X044000Y011000D03*
X032039Y004125D03*
X044664Y004125D03*
X030000Y010625D03*
X044000Y015000D03*
X044000Y012000D03*
X045000Y011125D03*
X028000Y013625D03*
X026000Y010625D03*
X016000Y015000D03*
X007000Y015000D03*
X007000Y012000D03*
X010000Y012000D03*
X011000Y012000D03*
X043000Y015000D03*
X004000Y017000D03*
X045000Y015125D03*
X026000Y012250D03*
X043500Y013500D03*
X009000Y013500D03*
X010000Y018000D03*
X005000Y010250D03*
X011625Y007875D03*
X016750Y010500D03*
X009250Y010500D03*
X017250Y018125D03*
X047625Y019750D03*
X021000Y019500D03*
X029750Y019250D03*
X011000Y019500D03*
X034750Y005125D03*
X034211Y004125D03*
X047375Y005125D03*
X046836Y004125D03*
X010352Y007344D03*
X005656Y007344D03*
X003000Y017000D03*
X013500Y019750D03*
X027000Y015000D03*
X023250Y018375D03*
X027000Y010625D03*
X042000Y015000D03*
X036500Y010625D03*
X024000Y012250D03*
X041500Y013500D03*
X022000Y019500D03*
X017500Y021500D03*
X026750Y016750D03*
X029750Y021250D03*
X030406Y005125D03*
X030953Y004125D03*
X043031Y005125D03*
X043578Y004125D03*
X034078Y002000D03*
X043078Y002000D03*
X004000Y012000D03*
X008000Y012000D03*
X009000Y012000D03*
X014000Y012000D03*
X017000Y012000D03*
X007000Y013500D03*
X012000Y019500D03*
X012375Y002375D03*
X007000Y021500D03*
X014375Y002375D03*
X016375Y002375D03*
X016125Y018000D03*
G54D12*
X037391Y004625D03*
X027570Y004625D03*
X050016Y004625D03*
X040195Y004625D03*
G54D13*
X038500Y011625D03*
X030750Y016875D03*
X030750Y015000D03*
X042875Y019500D03*
X043547Y021078D03*
X044883Y021078D03*
X026375Y020875D03*
X001750Y011500D03*
X033500Y016875D03*
X038500Y014625D03*
X038500Y010625D03*
X038500Y009625D03*
X042625Y009625D03*
X041625Y009625D03*
X038500Y013625D03*
X021000Y020875D03*
X044211Y019500D03*
X045555Y019500D03*
X033500Y015000D03*
X011000Y020875D03*
X038500Y012625D03*
X022000Y020875D03*
X010000Y020875D03*
X020000Y020875D03*
X025375Y021875D03*
X024375Y020875D03*
X001750Y015500D03*
X012000Y020875D03*
G54D14*
X021000Y027125D03*
X044211Y027125D03*
X011000Y027125D03*
X001500Y027000D03*
X057500Y027000D03*
X057500Y001500D03*
X001500Y001500D03*
X047500Y023625D03*
X015000Y023625D03*
G54D15*
X032125Y015938D03*
G54D16*
X047625Y020750D02*
X047125Y020750D01*
X046625Y020250D01*
X046625Y019250D01*
X045875Y018500D01*
X043750Y018500D01*
X042875Y019375D01*
X042875Y019500D01*
X011000Y027125D02*
X011000Y028125D01*
X004063Y028125D01*
X004063Y022625D01*
X004125Y022563D01*
X008313Y022563D01*
X024125Y022563D01*
X024438Y022875D01*
X026750Y022875D01*
X027625Y023750D01*
X038125Y023750D01*
X039125Y022750D01*
X049938Y022750D01*
X051688Y024500D01*
X055063Y024500D01*
X055063Y028125D01*
X004063Y028125D01*
X055063Y028125D02*
X055063Y027750D01*
X004438Y027750D01*
X004438Y023000D01*
X026188Y023000D01*
X026938Y023750D01*
X038063Y023750D01*
X038563Y023250D01*
X049813Y023250D01*
X051063Y024500D01*
X054563Y024500D01*
X054563Y027375D01*
X004813Y027375D01*
X004813Y023500D01*
X026188Y023500D01*
X026438Y023750D01*
X049688Y023750D01*
X050438Y024500D01*
X054063Y024500D01*
X054063Y026875D01*
X005313Y026875D01*
X005313Y024000D01*
X049313Y024000D01*
X049813Y024500D01*
X053563Y024500D01*
X053563Y026500D01*
X053438Y026375D01*
X005688Y026375D01*
X005688Y024500D01*
X053063Y024500D01*
X053063Y026000D01*
X006188Y026000D01*
X006188Y025000D01*
X052563Y025000D01*
X052563Y025500D01*
X006438Y025500D01*
X026500Y022875D02*
X035875Y022875D01*
X036250Y023250D01*
X038000Y023250D01*
X038500Y022750D01*
X039000Y022750D01*
X038375Y023375D01*
X027250Y023375D01*
X023250Y018375D02*
X024375Y019500D01*
X027750Y019500D01*
X028000Y019500D01*
X028250Y019250D01*
X029750Y019250D01*
G54D17*
X056375Y006875D03*
X056000Y016500D03*
X053750Y023125D03*
X037125Y018000D03*
X042625Y018125D03*
X054375Y006875D03*
X047625Y018125D03*
X056000Y013500D03*
X010680Y000727D03*
X004320Y000727D03*
X053750Y020125D03*
X037125Y022000D03*
G54D18*
X054750Y003000D03*
X052750Y003000D03*
X021000Y003000D03*
X023000Y003000D03*
X025000Y003000D03*
X019000Y003000D03*
G54D19*
X056875Y009500D03*
X054875Y009500D03*
X052875Y009500D03*
X050875Y009500D03*
G54D20*
X026375Y020875D02*
X027625Y022125D01*
X034625Y022125D01*
X035813Y020938D01*
X039938Y020938D01*
X040938Y021938D01*
X044375Y021938D01*
X044875Y021438D01*
X044875Y021063D01*
X011625Y005875D02*
X012375Y005875D01*
X013875Y007375D01*
X013875Y008625D01*
X013500Y009000D01*
X013000Y009000D01*
X001000Y009000D02*
X001000Y008500D01*
X004000Y005500D01*
X010375Y005500D01*
X010750Y005875D01*
X011625Y005875D01*
X017000Y015000D02*
X017000Y015375D01*
X018250Y016625D01*
X018250Y018125D01*
X015000Y012000D02*
X015000Y011625D01*
X014625Y011250D01*
X008875Y011250D01*
X008000Y010375D01*
X008000Y009000D01*
X004000Y015000D02*
X004000Y015750D01*
X005250Y017000D01*
X008000Y017000D01*
X034000Y010625D02*
X034000Y010375D01*
X034438Y009938D01*
X037000Y009938D01*
X037688Y010625D01*
X038500Y010625D01*
X032992Y007250D02*
X031492Y005750D01*
X031492Y005125D01*
X032578Y005125D02*
X032578Y005750D01*
X033078Y006250D01*
X044578Y006250D01*
X045203Y005625D01*
X045203Y005125D01*
X031000Y010625D02*
X031000Y010000D01*
X031625Y009375D01*
X034125Y009375D01*
X034750Y008750D01*
X038875Y008750D01*
X039375Y009250D01*
X039375Y013688D01*
X040688Y015000D01*
X041000Y015000D01*
X045289Y007375D02*
X042914Y007375D01*
X030000Y010625D02*
X030000Y011125D01*
X030750Y011875D01*
X036375Y011875D01*
X037375Y012875D01*
X037375Y015125D01*
X037375Y015125D02*
X038000Y015750D01*
X043625Y015750D01*
X044000Y015375D01*
X044000Y015000D01*
X022000Y020875D02*
X022000Y021500D01*
X021750Y021750D01*
X021563Y021750D01*
X019188Y021750D01*
X018938Y021500D01*
X017500Y021500D01*
X024000Y012250D02*
X022125Y012250D01*
X021125Y013250D01*
X021125Y016875D01*
X022000Y017750D01*
X022000Y019500D01*
X021000Y003000D02*
X021000Y002375D01*
X022750Y000625D01*
X030750Y000625D01*
X033125Y003000D01*
X033125Y003125D01*
X033125Y004125D01*
X045750Y004125D02*
X045750Y003750D01*
X045125Y003125D01*
X033125Y003125D01*
X045750Y005875D02*
X045750Y006250D01*
X046000Y006500D01*
X046000Y008125D01*
X044500Y009625D01*
X042625Y009625D01*
X023000Y003000D02*
X023000Y002375D01*
X024000Y001375D01*
X030250Y001375D01*
X032000Y003125D01*
X032000Y004125D01*
X027000Y015000D02*
X027000Y014750D01*
X028000Y013750D01*
X028000Y013625D01*
X005000Y010250D02*
X006000Y010250D01*
X007000Y011250D01*
X007000Y012000D01*
X026000Y010625D02*
X026000Y012250D01*
X028000Y013625D02*
X028000Y014000D01*
X028875Y014875D01*
X028875Y018125D01*
X029750Y019000D01*
X029750Y019250D01*
X009000Y013500D02*
X009500Y014000D01*
X015625Y014000D01*
X016000Y014375D01*
X016000Y015000D01*
X014000Y012000D02*
X014000Y013000D01*
X014500Y013000D01*
X016500Y013000D01*
X016750Y013000D01*
X017000Y012750D01*
X017000Y012000D01*
X004000Y012000D02*
X004000Y012375D01*
X004375Y012750D01*
X007000Y012750D01*
X009000Y012750D01*
X009000Y012000D01*
X016125Y018000D02*
X016125Y017000D01*
X016500Y016625D01*
X016500Y015625D01*
X016500Y014250D02*
X016500Y013000D01*
X017000Y012000D02*
X017750Y011250D01*
X017750Y007250D01*
X016375Y005875D01*
X016375Y002375D01*
X009000Y012750D02*
X009625Y012750D01*
X009875Y013000D01*
X010000Y013000D01*
X014000Y013000D01*
X007000Y013500D02*
X007000Y012750D01*
X012000Y019500D02*
X012375Y019500D01*
X013875Y018000D01*
X016125Y018000D01*
X007000Y021500D02*
X007938Y021500D01*
X008250Y021813D01*
X011625Y021813D01*
X012000Y021438D01*
X012000Y020875D01*
G54D21*
X013000Y008000D02*
X013000Y007750D01*
X012000Y006750D01*
X011500Y006750D01*
X010000Y006750D01*
X010000Y006750D02*
X009375Y007375D01*
X016000Y012000D02*
X016000Y011625D01*
X015125Y010750D01*
X015125Y008750D01*
X015875Y008000D01*
X017000Y008000D01*
X006305Y006375D02*
X006305Y008375D01*
X005430Y008375D01*
X003680Y010125D01*
X003680Y010500D01*
X002930Y011250D01*
X002930Y012875D01*
X004500Y014445D01*
X004500Y015500D01*
X004625Y015625D01*
X005625Y015625D01*
X006000Y015250D01*
X006000Y015000D01*
X007102Y006375D02*
X007102Y008125D01*
X007102Y008750D01*
X005602Y008750D01*
X004102Y010250D01*
X004102Y010750D01*
X003352Y011500D01*
X003352Y012625D01*
X004977Y014250D01*
X004977Y015000D01*
X045750Y004125D02*
X045750Y005875D01*
X016500Y015625D02*
X016500Y014250D01*
G54D22*
X010000Y001977D03*
X005000Y001977D03*
G54D23*
X034078Y002000D02*
X043078Y002000D01*
X046078Y002000D01*
X048375Y004297D01*
X048375Y013750D01*
X045500Y016625D01*
X036625Y016625D01*
X034828Y018422D01*
X034828Y020125D01*
X033703Y021250D01*
X029750Y021250D01*
M02*
