G04                                                                  *
G04 SOURCE        : LAYO1 PCB.EXE VERSION 10                         *
G04 FORMAT        : GERBER RS-274X, Inch, 2.4, Leading Zero          *
G04 TITLE         : CAN-GC1E_SIGNAL BOTTOM                           *
G04 TIME          : Friday, March 23, 2012  17:34:08                 *
G04                                                                  *
G04 Board width   : 149.860 mm. =  5.9000 inch                       *
G04 Board height  :  72.390 mm. =  2.8500 inch                       *
G04 Board offset  :   0.000 mm. =  0.0000 inch                       *
G04 Board offset  :   0.000 mm. =  0.0000 inch                       *
G04                                                                  *
G04 Apertures:                                                       *
G04       Type          X       Y             X       Y        Used  *
G04                      Inches                Metric                *
G04 D10   Draw        0.0079  0.0079        0.200   0.200         5  *
G04 D11   Round       0.0622  0.0622        1.580   1.580       174  *
G04 D12   Round       0.2118  0.2118        5.380   5.380         5  *
G04 D13   Round       0.0874  0.0874        2.220   2.220        28  *
G04 D14   Round       0.2622  0.2622        6.660   6.660         8  *
G04 D15   Round       0.0394  0.0394        1.000   1.000         1  *
G04 D16   Draw        0.0625  0.0625        1.588   1.588       116  *
G04 D17   Round       0.1118  0.1118        2.840   2.840        12  *
G04 D18   Round       0.1370  0.1370        3.480   3.480         6  *
G04 D19   Draw        0.0875  0.0875        2.223   2.223        51  *
G04 D20   Round       0.1622  0.1622        4.120   4.120         4  *
G04 D21   Draw        0.0375  0.0375        0.953   0.953       364  *
G04 D22   Draw        0.0156  0.0156        0.397   0.397        18  *
G04 D23   Round       0.1874  0.1874        4.760   4.760         2  *
G04 D24   Draw        0.1125  0.1125        2.858   2.858         2  *
G04                                                                  *
%FSLAX24Y24*
MOIN*
SFA1.0B1.0*%
%ADD10C,0.0079*%
%ADD11C,0.0622*%
%ADD12C,0.2118*%
%ADD13C,0.0874*%
%ADD14C,0.2622*%
%ADD15C,0.0394*%
%ADD16C,0.0625*%
%ADD17C,0.1118*%
%ADD18C,0.1370*%
%ADD19C,0.0875*%
%ADD20C,0.1622*%
%ADD21C,0.0375*%
%ADD22C,0.0156*%
%ADD23C,0.1874*%
%ADD24C,0.1125*%
%LNSIGNAL BOTTOM*%
G54D10*
X000000Y028500D02*
X000000Y000000D01*
X059000Y000000D01*
X059000Y028500D01*
X000000Y028500D01*
G54D11*
X033000Y013625D03*
X032000Y013625D03*
X031000Y013625D03*
X030000Y013625D03*
X024000Y010625D03*
X025000Y010625D03*
X028000Y010625D03*
X029000Y010625D03*
X032000Y010625D03*
X033000Y010625D03*
X015000Y015000D03*
X014000Y015000D03*
X013000Y015000D03*
X041000Y012000D03*
X005508Y006375D03*
X047625Y021000D03*
X027250Y018375D03*
X017500Y020500D03*
X017500Y019750D03*
X007000Y020500D03*
X003000Y021000D03*
X013000Y009000D03*
X011625Y005875D03*
X009500Y006375D03*
X001000Y009000D03*
X013000Y008000D03*
X009352Y007344D03*
X017000Y015000D03*
X018250Y018125D03*
X016000Y012000D03*
X017000Y008000D03*
X015000Y012000D03*
X008000Y009000D03*
X034000Y013625D03*
X029750Y016750D03*
X013000Y012000D03*
X014000Y010500D03*
X015750Y010500D03*
X022000Y010625D03*
X012000Y015000D03*
X008000Y015000D03*
X008000Y018000D03*
X012125Y018000D03*
X022000Y013625D03*
X010000Y015000D03*
X023000Y010625D03*
X011000Y015000D03*
X029000Y013625D03*
X009000Y015000D03*
X012000Y012000D03*
X012000Y010500D03*
X010250Y010500D03*
X006000Y015000D03*
X006305Y006375D03*
X003000Y005000D03*
X006000Y012000D03*
X009000Y009000D03*
X008703Y006375D03*
X005000Y015000D03*
X002000Y005000D03*
X007102Y006375D03*
X005000Y012000D03*
X007906Y006375D03*
X001000Y005000D03*
X004000Y015000D03*
X008000Y017000D03*
X026000Y013625D03*
X026000Y015000D03*
X002000Y009000D03*
X003000Y010250D03*
X003000Y009000D03*
X035000Y013625D03*
X036500Y014625D03*
X027000Y013625D03*
X028000Y015000D03*
X034000Y010625D03*
X004000Y009000D03*
X004656Y007344D03*
X035000Y010625D03*
X023000Y013625D03*
X020500Y015000D03*
X024000Y013625D03*
X019500Y015000D03*
X025000Y013625D03*
X018500Y015000D03*
X017375Y002375D03*
X020500Y011000D03*
X015375Y002375D03*
X019500Y011000D03*
X018500Y011000D03*
X013375Y002375D03*
X031492Y005125D03*
X044117Y005125D03*
X032992Y007250D03*
X032578Y005125D03*
X045203Y005125D03*
X042000Y012000D03*
X033125Y004125D03*
X045750Y004125D03*
X031000Y010625D03*
X041000Y015000D03*
X033664Y005125D03*
X046289Y005125D03*
X045289Y007375D03*
X042914Y007375D03*
X040000Y011000D03*
X043000Y012000D03*
X044000Y011000D03*
X032039Y004125D03*
X044664Y004125D03*
X030000Y010625D03*
X044000Y015000D03*
X044000Y012000D03*
X045000Y011125D03*
X028000Y013625D03*
X026000Y010625D03*
X016000Y015000D03*
X007000Y015000D03*
X007000Y012000D03*
X010000Y012000D03*
X011000Y012000D03*
X043000Y015000D03*
X004000Y017000D03*
X045000Y015125D03*
X026000Y012250D03*
X043500Y013500D03*
X009000Y013500D03*
X010000Y018000D03*
X005000Y010250D03*
X011625Y007875D03*
X016750Y010500D03*
X009250Y010500D03*
X017250Y018125D03*
X047625Y020000D03*
X021000Y019500D03*
X029750Y020125D03*
X011000Y019500D03*
X034750Y005125D03*
X034211Y004125D03*
X047375Y005125D03*
X046836Y004125D03*
X010352Y007344D03*
X005656Y007344D03*
X003000Y017000D03*
X013500Y019750D03*
X027000Y015000D03*
X023250Y018375D03*
X027000Y010625D03*
X042000Y015000D03*
X036500Y010625D03*
X024000Y012250D03*
X041500Y013500D03*
X022000Y019500D03*
X017500Y021500D03*
X026750Y016750D03*
X029750Y022125D03*
X030406Y005125D03*
X030953Y004125D03*
X043031Y005125D03*
X043578Y004125D03*
X034078Y002000D03*
X043078Y002000D03*
X004000Y012000D03*
X008000Y012000D03*
X009000Y012000D03*
X014000Y012000D03*
X017000Y012000D03*
X007000Y013500D03*
X012000Y019500D03*
X012375Y002375D03*
X007000Y021500D03*
X014375Y002375D03*
X016375Y002375D03*
X016125Y018000D03*
G54D12*
X037391Y004625D03*
X027570Y004625D03*
X050016Y004625D03*
X040195Y004625D03*
X044211Y027375D03*
G54D13*
X038500Y011625D03*
X032375Y017750D03*
X030500Y017750D03*
X042875Y019500D03*
X043547Y021078D03*
X044883Y021078D03*
X026375Y020875D03*
X001750Y011500D03*
X032375Y015000D03*
X038500Y014625D03*
X038500Y010625D03*
X038500Y009625D03*
X042625Y009625D03*
X041625Y009625D03*
X038500Y013625D03*
X021000Y021000D03*
X044211Y019500D03*
X045555Y019500D03*
X030500Y015000D03*
X011000Y021000D03*
X038500Y012625D03*
X022000Y021000D03*
X010000Y021000D03*
X020000Y021000D03*
X025375Y021875D03*
X024375Y020875D03*
X001750Y015500D03*
X012000Y021000D03*
G54D14*
X021000Y027250D03*
X011000Y027250D03*
X001500Y025500D03*
X057500Y025500D03*
X057500Y001500D03*
X001500Y001500D03*
X048125Y024500D03*
X015000Y024500D03*
G54D15*
X031438Y016375D03*
G54D16*
X053000Y023125D02*
X051500Y023125D01*
X049375Y021000D01*
X047625Y021000D01*
X042625Y018125D02*
X041922Y018125D01*
X039875Y018125D01*
X039625Y018375D01*
X037125Y018375D01*
X043547Y021078D02*
X042297Y021078D01*
X041922Y020703D01*
X041922Y018141D01*
X030953Y004125D02*
X030375Y004125D01*
X030375Y005125D01*
X030375Y005750D01*
X029750Y006375D01*
X020000Y006375D01*
X019000Y005375D01*
X019000Y003000D01*
X043578Y004125D02*
X043078Y004125D01*
X043078Y005125D01*
X030953Y004125D02*
X030953Y003250D01*
X032203Y002000D01*
X034078Y002000D01*
X043078Y002000D02*
X043078Y005125D01*
X020000Y021000D02*
X020000Y021625D01*
X020250Y021875D01*
X024375Y021875D01*
X025375Y021875D01*
X025625Y022125D01*
X029750Y022125D01*
X011000Y027250D02*
X011000Y028250D01*
X004125Y028250D01*
X004125Y022625D01*
X024000Y022625D01*
X024250Y022875D01*
X026625Y022875D01*
X028500Y022875D01*
X029000Y023375D01*
X037750Y023375D01*
X039000Y022125D01*
X049250Y022125D01*
X051375Y024250D01*
X055125Y024250D01*
X055125Y028250D01*
X004625Y028250D01*
X004625Y023125D01*
X028625Y023125D01*
X028875Y023375D01*
X038500Y023375D01*
X039250Y022625D01*
X049000Y022625D01*
X050625Y024250D01*
X054625Y024250D01*
X054625Y027750D01*
X005125Y027750D01*
X005125Y023625D01*
X038750Y023625D01*
X039250Y023125D01*
X048750Y023125D01*
X050375Y024750D01*
X054125Y024750D01*
X054125Y027250D01*
X054125Y024875D01*
X050125Y024875D01*
X048875Y023625D01*
X046875Y023625D01*
X005625Y023625D01*
X005625Y027250D01*
X053750Y027250D01*
X053750Y025375D01*
X052625Y024250D01*
X050000Y024250D01*
X049875Y024125D01*
X006125Y024125D01*
X006125Y026750D01*
X053250Y026750D01*
X053375Y026625D01*
X053375Y025000D01*
X053000Y024625D01*
X006625Y024625D01*
X006625Y026250D01*
X053000Y026250D01*
X053000Y025375D01*
X052750Y025125D01*
X007125Y025125D01*
X007125Y025750D01*
X053000Y025750D01*
X053000Y025500D01*
X005625Y025500D01*
X047625Y020000D02*
X047711Y020000D01*
X049500Y020000D01*
X049625Y020125D01*
X053000Y020125D01*
X044211Y019500D02*
X045586Y019500D01*
X046086Y020000D01*
X047625Y020000D01*
X047625Y020000D02*
X044625Y017000D01*
X035500Y017000D01*
X032375Y020125D01*
X029750Y020125D01*
X021000Y021000D02*
X021000Y019500D01*
X021000Y018875D01*
X021500Y018375D01*
X023250Y018375D01*
G54D17*
X056375Y006875D03*
X056000Y016500D03*
X053000Y023125D03*
X037125Y018375D03*
X042625Y018125D03*
X054375Y006875D03*
X047625Y018125D03*
X056000Y013500D03*
X010680Y000727D03*
X004320Y000727D03*
X053000Y020125D03*
X037125Y022375D03*
G54D18*
X054750Y003000D03*
X052750Y003000D03*
X021000Y003000D03*
X023000Y003000D03*
X025000Y003000D03*
X019000Y003000D03*
G54D19*
X056375Y006875D02*
X056375Y005750D01*
X054750Y004125D01*
X054750Y003000D01*
X054875Y009500D02*
X054875Y008375D01*
X054375Y007875D01*
X054375Y006875D01*
X052875Y009500D02*
X052750Y009375D01*
X052750Y003000D01*
X056000Y016500D02*
X056000Y019375D01*
X053000Y022375D01*
X053000Y023125D01*
X056875Y009500D02*
X057375Y010000D01*
X057375Y015625D01*
X056500Y016500D01*
X056000Y016500D01*
X037125Y022375D02*
X033500Y022375D01*
X034125Y022375D01*
X033875Y022125D01*
X029750Y022125D01*
X053000Y020125D02*
X053000Y017125D01*
X056000Y014125D01*
X056000Y013500D01*
X050875Y009500D02*
X050875Y018000D01*
X053000Y020125D01*
X047375Y005125D02*
X047375Y004625D01*
X046875Y004125D01*
X046875Y002875D01*
X044750Y000750D01*
X035250Y000750D01*
X035250Y003625D01*
X034750Y004125D01*
X034250Y004125D01*
X034750Y004125D01*
X034750Y005125D01*
X035250Y000750D02*
X026375Y000750D01*
X025000Y002125D01*
X025000Y003000D01*
X047375Y005125D02*
X047625Y005375D01*
X047625Y018125D01*
X047625Y020000D01*
G54D20*
X056875Y009500D03*
X054875Y009500D03*
X052875Y009500D03*
X050875Y009500D03*
G54D21*
X026375Y020875D02*
X026750Y020875D01*
X027250Y020375D01*
X027250Y018375D01*
X017500Y019750D02*
X017500Y020500D01*
X003000Y021000D02*
X003625Y021000D01*
X004125Y020500D01*
X007000Y020500D01*
X011625Y005875D02*
X010000Y005875D01*
X009500Y006375D01*
X011625Y005875D02*
X012375Y005875D01*
X013625Y007125D01*
X013625Y008625D01*
X013250Y009000D01*
X013000Y009000D01*
X001000Y009000D02*
X001000Y010125D01*
X001750Y010875D01*
X001750Y011500D01*
X032375Y015000D02*
X033500Y015000D01*
X034000Y014500D01*
X034000Y013625D01*
X029750Y016750D02*
X030000Y016750D01*
X031750Y015000D01*
X032375Y015000D01*
X015750Y010500D02*
X014000Y010500D01*
X013750Y010500D01*
X013000Y011250D01*
X013000Y012000D01*
X012125Y018000D02*
X011250Y018000D01*
X010375Y017125D01*
X008875Y017125D01*
X008875Y016375D01*
X008000Y015500D01*
X008000Y015000D01*
X008000Y018000D02*
X008500Y018000D01*
X008875Y017625D01*
X008875Y017125D01*
X022000Y013625D02*
X022000Y014000D01*
X021750Y014250D01*
X018125Y014250D01*
X017750Y014625D01*
X017750Y015375D01*
X017375Y015750D01*
X010250Y015750D01*
X010000Y015500D01*
X010000Y015000D01*
X023000Y010625D02*
X023000Y011000D01*
X022000Y012000D01*
X019375Y012000D01*
X018375Y013000D01*
X011875Y013000D01*
X011000Y013875D01*
X011000Y014250D01*
X011000Y015000D01*
X029000Y013625D02*
X029000Y015250D01*
X028500Y015750D01*
X024500Y015750D01*
X023250Y017000D01*
X019250Y017000D01*
X018625Y016375D01*
X017875Y016375D01*
X009625Y016375D01*
X009000Y015750D01*
X009000Y015000D01*
X012000Y012000D02*
X012000Y010500D01*
X010250Y010500D01*
X008703Y006375D02*
X008703Y008250D01*
X008953Y008250D01*
X008953Y009000D01*
X009000Y009000D02*
X009000Y009250D01*
X007000Y011250D01*
X006000Y011250D01*
X006000Y012000D01*
X007906Y006375D02*
X007906Y007625D01*
X007156Y007625D01*
X007156Y010125D01*
X006531Y010750D01*
X005656Y010750D01*
X005031Y011375D01*
X005031Y012000D01*
X007906Y006375D02*
X007906Y005875D01*
X005656Y003625D01*
X001875Y003625D01*
X001000Y004500D01*
X001000Y005000D01*
X026000Y015000D02*
X026000Y013625D01*
X003000Y009000D02*
X002000Y009000D01*
X003000Y009000D02*
X003000Y010250D01*
X038500Y014625D02*
X036500Y014625D01*
X035375Y014625D01*
X035000Y014250D01*
X035000Y013625D01*
X027000Y013625D02*
X027000Y013875D01*
X028000Y014875D01*
X028000Y015000D01*
X004656Y007344D02*
X004625Y007375D01*
X004000Y007375D01*
X004000Y009000D01*
X038500Y009625D02*
X035500Y009625D01*
X035000Y010125D01*
X035000Y010625D01*
X023000Y013625D02*
X023000Y014250D01*
X022250Y015000D01*
X020500Y015000D01*
X024000Y013625D02*
X024000Y014250D01*
X022500Y015750D01*
X019875Y015750D01*
X019500Y015375D01*
X019500Y015000D01*
X025000Y013625D02*
X025000Y014250D01*
X022875Y016375D01*
X019625Y016375D01*
X018500Y015250D01*
X018500Y015000D01*
X020500Y011000D02*
X020500Y009250D01*
X017375Y006125D01*
X017375Y002375D01*
X019500Y011000D02*
X019500Y009375D01*
X015375Y005250D01*
X015375Y002375D01*
X018500Y011000D02*
X016875Y009375D01*
X013375Y005875D01*
X013375Y002375D01*
X044117Y005125D02*
X044117Y007875D01*
X043867Y008125D01*
X038742Y008125D01*
X037867Y007250D01*
X032992Y007250D01*
X046289Y005125D02*
X046289Y005875D01*
X045289Y006875D01*
X045289Y007375D01*
X042914Y007375D02*
X042164Y006625D01*
X034664Y006625D01*
X033664Y005625D01*
X033664Y005125D01*
X041625Y009625D02*
X041000Y009625D01*
X040000Y010625D01*
X040000Y011000D01*
X044000Y012000D02*
X044625Y012000D01*
X045000Y011625D01*
X045000Y011125D01*
X026750Y016750D02*
X026125Y016750D01*
X023375Y019500D01*
X022000Y019500D01*
X022000Y021000D01*
X041500Y013500D02*
X042000Y014000D01*
X042000Y015000D01*
X041500Y013500D02*
X040625Y013500D01*
X039750Y012625D01*
X038500Y012625D01*
X038500Y012625D02*
X037625Y012625D01*
X037250Y012625D01*
X036500Y011875D01*
X036500Y011375D01*
X036500Y010625D01*
X036500Y010625D02*
X036500Y011375D01*
X027000Y011375D01*
X024625Y011375D01*
X024000Y012000D01*
X024000Y012250D01*
X027000Y010625D02*
X027000Y011375D01*
X010000Y021000D02*
X010000Y021625D01*
X010188Y021813D01*
X014125Y021813D01*
X014438Y021500D01*
X017500Y021500D01*
X025375Y021875D02*
X024375Y021875D01*
X024375Y020875D01*
X023500Y011250D02*
X023500Y011375D01*
X022250Y012625D01*
X019625Y012625D01*
X018625Y013625D01*
X012625Y013625D01*
X012000Y014250D01*
X012000Y015000D01*
X006305Y006375D02*
X006305Y005875D01*
X005430Y005000D01*
X003000Y005000D01*
X007102Y006375D02*
X007102Y005875D01*
X005477Y004250D01*
X002375Y004250D01*
X002000Y004625D01*
X002000Y005000D01*
X042000Y012000D02*
X042000Y011000D01*
X042625Y010375D01*
X042625Y009625D01*
X043000Y012000D02*
X043000Y011625D01*
X043625Y011000D01*
X044000Y011000D01*
X044664Y005750D02*
X044664Y006625D01*
X044664Y006750D01*
X044664Y008375D01*
X044289Y008750D01*
X044000Y008750D01*
X044000Y011000D01*
X032039Y005750D02*
X032039Y007750D01*
X033039Y008750D01*
X033664Y008750D01*
X044000Y008750D01*
X043500Y013500D02*
X044250Y013500D01*
X045000Y014250D01*
X045000Y015125D01*
X038500Y013625D02*
X039250Y013625D01*
X039750Y014125D01*
X039750Y015375D01*
X040125Y015750D01*
X042625Y015750D01*
X043000Y015375D01*
X043000Y015000D01*
X038500Y013625D02*
X036750Y013625D01*
X035875Y012750D01*
X030500Y012750D01*
X029375Y012750D01*
X028000Y012750D01*
X028000Y013625D01*
X009250Y010500D02*
X009250Y010125D01*
X009500Y009875D01*
X011625Y009875D01*
X016375Y009875D01*
X016750Y010250D01*
X016750Y010500D01*
X009250Y010500D02*
X009250Y010875D01*
X010000Y011625D01*
X010000Y012000D01*
X011000Y012000D01*
X007000Y012000D02*
X007000Y012750D01*
X009000Y012750D01*
X010000Y012750D01*
X010000Y012000D01*
X010352Y007344D02*
X010375Y007367D01*
X010375Y007875D01*
X011625Y007875D01*
X011625Y009875D01*
X005656Y007344D02*
X005656Y008844D01*
X005625Y008875D01*
X005000Y008875D01*
X005000Y010250D01*
X003000Y017000D02*
X004000Y017000D01*
X007000Y017000D01*
X007000Y015000D01*
X005000Y001977D02*
X005000Y001602D01*
X004375Y000977D01*
X004375Y000727D01*
X010680Y000727D02*
X010680Y000977D01*
X009930Y001727D01*
X009930Y001977D01*
X011000Y021000D02*
X011000Y019500D01*
X010000Y018000D02*
X010000Y018750D01*
X010000Y019250D01*
X010250Y019500D01*
X011000Y019500D01*
X011000Y019500D02*
X011000Y019125D01*
X011250Y018875D01*
X013500Y018875D01*
X013500Y019750D01*
X010000Y018750D02*
X007375Y018750D01*
X007000Y018375D01*
X007000Y017000D01*
X017250Y018125D02*
X017250Y018875D01*
X013500Y018875D01*
X013500Y019750D01*
X017250Y018875D02*
X020250Y018875D01*
X020875Y019500D01*
X021000Y019500D01*
X026000Y012250D02*
X026000Y012375D01*
X026375Y012750D01*
X028000Y012750D01*
X043000Y015000D02*
X043000Y014000D01*
X043500Y013500D01*
X009000Y013500D02*
X009000Y012750D01*
X009000Y013500D02*
X009000Y013875D01*
X008625Y014250D01*
X007250Y014250D01*
X007000Y014500D01*
X007000Y015000D01*
X009000Y012000D02*
X008000Y012000D01*
X016375Y002375D02*
X016375Y001875D01*
X016125Y001625D01*
X014375Y001625D01*
X014375Y002375D01*
X014375Y001625D02*
X012625Y001625D01*
X012375Y001875D01*
X012375Y002375D01*
X012000Y019500D02*
X012000Y021000D01*
X001750Y015500D02*
X001750Y014500D01*
X002750Y013500D01*
X007000Y013500D01*
G54D22*
X013000Y008000D02*
X013000Y007625D01*
X012125Y006750D01*
X010000Y006750D01*
X009375Y007375D01*
X022000Y010625D02*
X022000Y010250D01*
X022500Y009750D01*
X023125Y009750D01*
X023500Y010125D01*
X023500Y010250D01*
X023500Y011250D01*
X044664Y004125D02*
X044664Y005750D01*
X032039Y004125D02*
X032039Y005750D01*
X030500Y015000D02*
X030500Y012750D01*
G54D23*
X010000Y001977D03*
X005000Y001977D03*
G54D24*
X005000Y001977D02*
X010000Y001977D01*
M02*
