G04                                                                  *
G04 SOURCE        : LAYO1 PCB.EXE VERSION 10                         *
G04 FORMAT        : GERBER RS-274X, Inch, 2.4, Leading Zero          *
G04 TITLE         : MGV98_SILKSCREEN TOP                             *
G04 TIME          : Tuesday, November 04, 2008  15:45:56             *
G04                                                                  *
G04 Board width   : 106.680 mm. =  4.2000 inch                       *
G04 Board height  :  48.260 mm. =  1.9000 inch                       *
G04 Board offset  :   0.000 mm. =  0.0000 inch                       *
G04 Board offset  :   0.000 mm. =  0.0000 inch                       *
G04                                                                  *
G04 Apertures:                                                       *
G04       Type          X       Y             X       Y        Used  *
G04                      Inches                Metric                *
G04 D10   Draw        0.0079  0.0079        0.200   0.200      1330  *
G04                                                                  *
%FSLAX24Y24*
MOIN*
SFA1.0B1.0*%
%ADD10C,0.0079*%
%LNSILKSCREEN TOP*%
G54D10*
X000000Y019000D02*
X000000Y000000D01*
X042000Y000000D01*
X042000Y019000D01*
X000000Y019000D01*
X006250Y014125D02*
X010250Y014125D01*
X010250Y011625D01*
X006250Y011625D01*
X006250Y012625D01*
X006625Y012625D01*
X006625Y013125D01*
X006250Y013125D01*
X006250Y014125D01*
X026500Y008625D02*
X026500Y012625D01*
X029000Y012625D01*
X029000Y008625D01*
X028000Y008625D01*
X028000Y009000D01*
X027500Y009000D01*
X027500Y008625D01*
X026500Y008625D01*
X034258Y006313D02*
X034328Y006234D01*
X034375Y006117D01*
X034422Y005992D01*
X034445Y005867D01*
X034453Y005750D01*
X034445Y005625D01*
X034422Y005492D01*
X034375Y005383D01*
X034328Y005273D01*
X034258Y005172D01*
X034172Y005070D01*
X034078Y004992D01*
X033984Y004930D01*
X033867Y004859D01*
X033742Y004820D01*
X033617Y004797D01*
X033500Y004789D01*
X033375Y004797D01*
X033242Y004820D01*
X033133Y004859D01*
X033023Y004922D01*
X032922Y004992D01*
X032820Y005070D01*
X032742Y005172D01*
X032680Y005273D01*
X032609Y005383D01*
X032570Y005492D01*
X032547Y005625D01*
X032547Y005867D01*
X032570Y005992D01*
X032609Y006117D01*
X032680Y006234D01*
X032719Y006313D01*
X034250Y006313D01*
X032000Y014000D02*
X035000Y014000D01*
X035000Y009000D01*
X032000Y009000D01*
X032000Y014000D01*
X032750Y008375D02*
X032750Y007625D01*
X034250Y007625D01*
X034250Y008375D01*
X032750Y008375D01*
X032750Y008000D02*
X032625Y008000D01*
X034250Y008000D02*
X034375Y008000D01*
X034125Y008375D02*
X034125Y007625D01*
X034094Y007625D01*
X034094Y008375D01*
X034063Y008375D01*
X034063Y007625D01*
X012000Y006375D02*
X012000Y006625D01*
X011625Y006625D01*
X011625Y008375D01*
X012375Y008375D01*
X012375Y006625D01*
X012000Y006625D01*
X012000Y008375D02*
X012000Y008625D01*
X012375Y007000D02*
X011625Y007000D01*
X011625Y007125D02*
X012375Y007125D01*
X026250Y015125D02*
X026875Y015125D01*
X026875Y014750D01*
X028875Y014750D01*
X028875Y015500D01*
X026875Y015500D01*
X026875Y015125D01*
X028875Y015125D02*
X029500Y015125D01*
X029500Y016125D02*
X028875Y016125D01*
X028875Y016500D01*
X026875Y016500D01*
X026875Y015750D01*
X028875Y015750D01*
X028875Y016125D01*
X026875Y016125D02*
X026250Y016125D01*
X014000Y009625D02*
X014000Y009000D01*
X013625Y009000D01*
X013625Y007000D01*
X014375Y007000D01*
X014375Y009000D01*
X014000Y009000D01*
X014000Y007000D02*
X014000Y006375D01*
X019375Y008000D02*
X020000Y008000D01*
X020000Y007625D01*
X022000Y007625D01*
X022000Y008375D01*
X020000Y008375D01*
X020000Y008000D01*
X022000Y008000D02*
X022625Y008000D01*
X013000Y009625D02*
X013000Y009000D01*
X012625Y009000D01*
X012625Y007000D01*
X013375Y007000D01*
X013375Y009000D01*
X013000Y009000D01*
X013000Y007000D02*
X013000Y006375D01*
X018750Y014750D02*
X018750Y014125D01*
X018375Y014125D01*
X018375Y012125D01*
X019125Y012125D01*
X019125Y014125D01*
X018750Y014125D01*
X018750Y012125D02*
X018750Y011500D01*
X031500Y006625D02*
X031500Y006000D01*
X031125Y006000D01*
X031125Y004000D01*
X031875Y004000D01*
X031875Y006000D01*
X031500Y006000D01*
X031500Y004000D02*
X031500Y003375D01*
X017750Y011500D02*
X017750Y012125D01*
X018125Y012125D01*
X018125Y014125D01*
X017375Y014125D01*
X017375Y012125D01*
X017750Y012125D01*
X017750Y014125D02*
X017750Y014750D01*
X024000Y006625D02*
X024000Y006000D01*
X023625Y006000D01*
X023625Y004000D01*
X024375Y004000D01*
X024375Y006000D01*
X024000Y006000D01*
X024000Y004000D02*
X024000Y003375D01*
X027000Y003375D02*
X027000Y004000D01*
X027375Y004000D01*
X027375Y006000D01*
X026625Y006000D01*
X026625Y004000D01*
X027000Y004000D01*
X027000Y006000D02*
X027000Y006625D01*
X030000Y006625D02*
X030000Y006000D01*
X029625Y006000D01*
X029625Y004000D01*
X030375Y004000D01*
X030375Y006000D01*
X030000Y006000D01*
X030000Y004000D02*
X030000Y003375D01*
X025000Y010500D02*
X025000Y011125D01*
X025375Y011125D01*
X025375Y013125D01*
X024625Y013125D01*
X024625Y011125D01*
X025000Y011125D01*
X025000Y013125D02*
X025000Y013750D01*
X015000Y009625D02*
X015000Y009000D01*
X014625Y009000D01*
X014625Y007000D01*
X015375Y007000D01*
X015375Y009000D01*
X015000Y009000D01*
X015000Y007000D02*
X015000Y006375D01*
X036000Y006625D02*
X036000Y006000D01*
X035625Y006000D01*
X035625Y004000D01*
X036375Y004000D01*
X036375Y006000D01*
X036000Y006000D01*
X036000Y004000D02*
X036000Y003375D01*
X038375Y012375D02*
X038875Y012375D01*
X039125Y012375D02*
X039625Y012375D01*
X038875Y012125D02*
X038875Y012625D01*
X039125Y012125D02*
X039125Y012625D01*
X037625Y012875D02*
X037625Y011875D01*
X040375Y011875D01*
X040375Y012875D01*
X037625Y012875D01*
X008813Y007875D02*
X008836Y007625D01*
X008914Y007391D01*
X009039Y007180D01*
X009203Y006992D01*
X009406Y006844D01*
X009633Y006742D01*
X009875Y006695D01*
X010125Y006695D01*
X010367Y006742D01*
X010594Y006844D01*
X010797Y006992D01*
X010961Y007180D01*
X011086Y007391D01*
X011164Y007633D01*
X011188Y007875D01*
X011164Y008125D01*
X011086Y008359D01*
X010961Y008578D01*
X010797Y008758D01*
X010594Y008906D01*
X010367Y009008D01*
X010125Y009055D01*
X009875Y009055D01*
X009633Y009000D01*
X009406Y008898D01*
X009203Y008758D01*
X009039Y008570D01*
X008914Y008352D01*
X008836Y008117D01*
X008813Y007875D01*
X010750Y008375D02*
X010500Y008375D01*
X010625Y008500D02*
X010625Y008250D01*
X010375Y007938D02*
X009625Y007938D01*
X009625Y008063D01*
X010375Y008063D01*
X010375Y007938D01*
X010375Y007813D02*
X009625Y007813D01*
X009625Y007688D01*
X010375Y007688D01*
X010375Y007813D01*
X010000Y008063D02*
X010000Y008375D01*
X010000Y007688D02*
X010000Y007375D01*
X020906Y005000D02*
X020906Y-000500D01*
X008656Y-000500D01*
X008656Y005000D01*
X020906Y005000D01*
X017906Y-000500D02*
X017906Y-002875D01*
X011656Y-002875D01*
X011656Y-000500D01*
X016906Y-000500D02*
X016906Y-002875D01*
X012656Y-000500D02*
X012656Y-002875D01*
X013688Y-001453D02*
X013609Y-001375D01*
X013531Y-001375D01*
X013453Y-001453D01*
X013453Y-002000D01*
X013375Y-002000D01*
X013531Y-002000D01*
X013375Y-001609D02*
X013531Y-001609D01*
X014234Y-001922D02*
X014156Y-002000D01*
X013922Y-002000D01*
X013844Y-001922D01*
X013844Y-001688D01*
X013922Y-001609D01*
X014156Y-001609D01*
X014234Y-001688D01*
X014234Y-001805D01*
X013844Y-001805D01*
X014391Y-001609D02*
X014391Y-002000D01*
X014391Y-001688D02*
X014469Y-001609D01*
X014547Y-001609D01*
X014625Y-001688D01*
X014625Y-002000D01*
X014625Y-001688D02*
X014703Y-001609D01*
X014781Y-001609D01*
X014859Y-001688D01*
X014859Y-002000D01*
X015094Y-001609D02*
X015328Y-001609D01*
X015406Y-001688D01*
X015406Y-002000D01*
X015406Y-001922D02*
X015328Y-002000D01*
X015094Y-002000D01*
X015016Y-001922D01*
X015016Y-001844D01*
X015094Y-001766D01*
X015328Y-001766D01*
X015406Y-001844D01*
X015563Y-002000D02*
X015719Y-002000D01*
X015641Y-002000D02*
X015641Y-001375D01*
X015563Y-001375D01*
X016344Y-001922D02*
X016266Y-002000D01*
X016031Y-002000D01*
X015953Y-001922D01*
X015953Y-001688D01*
X016031Y-001609D01*
X016266Y-001609D01*
X016344Y-001688D01*
X016344Y-001805D01*
X015953Y-001805D01*
X024500Y001000D02*
X024758Y001031D01*
X025000Y001133D01*
X025211Y001297D01*
X025211Y002688D01*
X025000Y002867D01*
X024758Y002969D01*
X024500Y003000D01*
X024242Y002969D01*
X024000Y002867D01*
X023789Y002703D01*
X023633Y002500D01*
X023531Y002258D01*
X023500Y002000D01*
X023531Y001742D01*
X023633Y001500D01*
X023797Y001289D01*
X024000Y001133D01*
X024242Y001031D01*
X024500Y001000D01*
X030500Y001000D02*
X030758Y001031D01*
X031000Y001133D01*
X031211Y001297D01*
X031211Y002688D01*
X031000Y002867D01*
X030758Y002969D01*
X030500Y003000D01*
X030242Y002969D01*
X030000Y002867D01*
X029789Y002703D01*
X029633Y002500D01*
X029531Y002258D01*
X029500Y002000D01*
X029531Y001742D01*
X029633Y001500D01*
X029797Y001289D01*
X030000Y001133D01*
X030242Y001031D01*
X030500Y001000D01*
X027500Y001000D02*
X027758Y001031D01*
X028000Y001133D01*
X028211Y001297D01*
X028211Y002688D01*
X028000Y002867D01*
X027758Y002969D01*
X027500Y003000D01*
X027242Y002969D01*
X027000Y002867D01*
X026789Y002703D01*
X026633Y002500D01*
X026531Y002258D01*
X026500Y002000D01*
X026531Y001742D01*
X026633Y001500D01*
X026797Y001289D01*
X027000Y001133D01*
X027242Y001031D01*
X027500Y001000D01*
X036500Y001000D02*
X036758Y001031D01*
X037000Y001133D01*
X037211Y001297D01*
X037211Y002688D01*
X037000Y002867D01*
X036758Y002969D01*
X036500Y003000D01*
X036242Y002969D01*
X036000Y002867D01*
X035789Y002703D01*
X035633Y002500D01*
X035531Y002258D01*
X035500Y002000D01*
X035531Y001742D01*
X035633Y001500D01*
X035797Y001289D01*
X036000Y001133D01*
X036242Y001031D01*
X036500Y001000D01*
X033500Y001000D02*
X033758Y001031D01*
X034000Y001133D01*
X034211Y001297D01*
X034211Y002688D01*
X034000Y002867D01*
X033758Y002969D01*
X033500Y003000D01*
X033242Y002969D01*
X033000Y002867D01*
X032789Y002703D01*
X032633Y002500D01*
X032531Y002258D01*
X032500Y002000D01*
X032531Y001742D01*
X032633Y001500D01*
X032797Y001289D01*
X033000Y001133D01*
X033242Y001031D01*
X033500Y001000D01*
X041125Y003625D02*
X036875Y003625D01*
X036875Y009875D01*
X041125Y009875D01*
X041125Y003625D01*
X039000Y011000D02*
X039000Y010000D01*
X040000Y011000D02*
X040000Y010000D01*
X038000Y011000D02*
X038000Y010000D01*
X036500Y014625D02*
X031500Y014625D01*
X031500Y017000D01*
X036500Y017000D01*
X036500Y014625D01*
X036000Y016750D02*
X032000Y016750D01*
X036000Y016750D01*
X036000Y016750D02*
X032000Y016750D01*
X032000Y017000D01*
X036000Y017000D01*
X036000Y016750D01*
X008125Y015375D02*
X008625Y015375D01*
X008875Y015375D02*
X009375Y015375D01*
X008625Y015125D02*
X008625Y015625D01*
X008875Y015125D02*
X008875Y015625D01*
X007375Y015875D02*
X007375Y014875D01*
X010125Y014875D01*
X010125Y015875D01*
X007375Y015875D01*
X027250Y007875D02*
X027750Y007875D01*
X028000Y007875D02*
X028500Y007875D01*
X027750Y007625D02*
X027750Y008125D01*
X028000Y007625D02*
X028000Y008125D01*
X026500Y008375D02*
X026500Y007375D01*
X029250Y007375D01*
X029250Y008375D01*
X026500Y008375D01*
X026250Y013125D02*
X026875Y013125D01*
X026875Y012750D01*
X028875Y012750D01*
X028875Y013500D01*
X026875Y013500D01*
X026875Y013125D01*
X028875Y013125D02*
X029500Y013125D01*
X029500Y014125D02*
X028875Y014125D01*
X028875Y014500D01*
X026875Y014500D01*
X026875Y013750D01*
X028875Y013750D01*
X028875Y014125D01*
X026875Y014125D02*
X026250Y014125D01*
X007750Y008625D02*
X007750Y008375D01*
X008125Y008375D01*
X008125Y006625D01*
X007375Y006625D01*
X007375Y008375D01*
X007750Y008375D01*
X007750Y006625D02*
X007750Y006375D01*
X007375Y008000D02*
X008125Y008000D01*
X008125Y007875D02*
X007375Y007875D01*
X016375Y016500D02*
X017000Y016500D01*
X017000Y016125D01*
X019000Y016125D01*
X019000Y016875D01*
X017000Y016875D01*
X017000Y016500D01*
X019000Y016500D02*
X019625Y016500D01*
X021000Y008625D02*
X021000Y015625D01*
X023500Y015625D01*
X023500Y008625D01*
X022500Y008625D01*
X022500Y009000D01*
X022000Y009000D01*
X022000Y008625D01*
X021000Y008625D01*
X016250Y011625D02*
X014250Y011625D01*
X014250Y014125D01*
X016250Y014125D01*
X016250Y013125D01*
X015875Y013125D01*
X015875Y012625D01*
X016250Y012625D01*
X016250Y011625D01*
X021625Y016750D02*
X022125Y016750D01*
X022375Y016750D02*
X022875Y016750D01*
X022125Y016500D02*
X022125Y017000D01*
X022375Y016500D02*
X022375Y017000D01*
X020875Y017250D02*
X020875Y016250D01*
X023625Y016250D01*
X023625Y017250D01*
X020875Y017250D01*
X011875Y013000D02*
X011875Y012563D01*
X011938Y012500D01*
X012188Y012500D01*
X012250Y012563D01*
X012250Y013000D02*
X012250Y012500D01*
X012750Y012500D02*
X012375Y012500D01*
X012375Y012625D01*
X012500Y012750D01*
X012688Y012750D01*
X012750Y012813D01*
X012750Y012938D01*
X012688Y013000D01*
X012438Y013000D01*
X012375Y012938D01*
X007875Y013125D02*
X007875Y012688D01*
X007938Y012625D01*
X008188Y012625D01*
X008250Y012688D01*
X008250Y013125D02*
X008250Y012625D01*
X008375Y012625D02*
X008500Y012625D01*
X008438Y012625D02*
X008438Y013125D01*
X008375Y013063D01*
X027250Y009750D02*
X027250Y009313D01*
X027313Y009250D01*
X027563Y009250D01*
X027625Y009313D01*
X027625Y009750D02*
X027625Y009250D01*
X027750Y009688D02*
X027813Y009750D01*
X028063Y009750D01*
X028125Y009688D01*
X028125Y009563D01*
X028063Y009500D01*
X027875Y009500D01*
X028063Y009500D02*
X028125Y009438D01*
X028125Y009313D01*
X028063Y009250D01*
X027813Y009250D01*
X027750Y009313D01*
X033313Y005305D02*
X033313Y005805D01*
X033125Y005805D02*
X033500Y005805D01*
X033625Y005305D02*
X033750Y005305D01*
X033688Y005305D02*
X033688Y005805D01*
X033625Y005742D01*
X033250Y011875D02*
X033750Y011875D01*
X033375Y011875D02*
X033750Y011500D01*
X033500Y011750D02*
X033250Y011500D01*
X033250Y011375D02*
X033250Y011250D01*
X033250Y011313D02*
X033750Y011313D01*
X033688Y011375D01*
X033125Y007750D02*
X033125Y008250D01*
X033438Y008250D01*
X033500Y008188D01*
X033500Y007813D01*
X033438Y007750D01*
X033125Y007750D01*
X033625Y007750D02*
X033750Y007750D01*
X033688Y007750D02*
X033688Y008250D01*
X033625Y008188D01*
X011750Y008125D02*
X012250Y008125D01*
X012250Y007813D01*
X012188Y007750D01*
X011813Y007750D01*
X011750Y007813D01*
X011750Y008125D01*
X011750Y007250D02*
X011750Y007625D01*
X011875Y007625D01*
X012000Y007500D01*
X012000Y007313D01*
X012063Y007250D01*
X012188Y007250D01*
X012250Y007313D01*
X012250Y007563D01*
X012188Y007625D01*
X027375Y014875D02*
X027375Y015375D01*
X027688Y015375D01*
X027750Y015313D01*
X027750Y015188D01*
X027688Y015125D01*
X027375Y015125D01*
X027500Y015125D02*
X027750Y014875D01*
X028188Y014875D02*
X028188Y015375D01*
X028063Y015375D01*
X027875Y015188D01*
X027875Y015063D01*
X028250Y015063D01*
X027375Y015875D02*
X027375Y016375D01*
X027688Y016375D01*
X027750Y016313D01*
X027750Y016188D01*
X027688Y016125D01*
X027375Y016125D01*
X027500Y016125D02*
X027750Y015875D01*
X028250Y016375D02*
X027875Y016375D01*
X027875Y016125D01*
X028188Y016125D01*
X028250Y016063D01*
X028250Y015938D01*
X028188Y015875D01*
X027938Y015875D01*
X027875Y015938D01*
X013750Y008375D02*
X014250Y008375D01*
X014250Y008063D01*
X014188Y008000D01*
X014063Y008000D01*
X014000Y008063D01*
X014000Y008375D01*
X014000Y008250D02*
X013750Y008000D01*
X013750Y007875D02*
X013750Y007750D01*
X013750Y007813D02*
X014250Y007813D01*
X014188Y007875D01*
X020500Y007750D02*
X020500Y008250D01*
X020813Y008250D01*
X020875Y008188D01*
X020875Y008063D01*
X020813Y008000D01*
X020500Y008000D01*
X020625Y008000D02*
X020875Y007750D01*
X021375Y007750D02*
X021000Y007750D01*
X021000Y007875D01*
X021125Y008000D01*
X021313Y008000D01*
X021375Y008063D01*
X021375Y008188D01*
X021313Y008250D01*
X021063Y008250D01*
X021000Y008188D01*
X012750Y008500D02*
X013250Y008500D01*
X013250Y008188D01*
X013188Y008125D01*
X013063Y008125D01*
X013000Y008188D01*
X013000Y008500D01*
X013000Y008375D02*
X012750Y008125D01*
X013188Y008000D02*
X013250Y008000D01*
X013250Y007625D01*
X013125Y007625D01*
X012875Y007875D01*
X012750Y007875D01*
X018500Y013625D02*
X019000Y013625D01*
X019000Y013313D01*
X018938Y013250D01*
X018813Y013250D01*
X018750Y013313D01*
X018750Y013625D01*
X018750Y013500D02*
X018500Y013250D01*
X018750Y013063D02*
X018688Y013125D01*
X018563Y013125D01*
X018500Y013063D01*
X018500Y012813D01*
X018563Y012750D01*
X018688Y012750D01*
X018750Y012813D01*
X018750Y013063D01*
X018813Y013125D01*
X018938Y013125D01*
X019000Y013063D01*
X019000Y012813D01*
X018938Y012750D01*
X018813Y012750D01*
X018750Y012813D01*
X031250Y005500D02*
X031750Y005500D01*
X031750Y005188D01*
X031688Y005125D01*
X031563Y005125D01*
X031500Y005188D01*
X031500Y005500D01*
X031500Y005375D02*
X031250Y005125D01*
X031250Y004938D02*
X031250Y004750D01*
X031375Y004625D01*
X031688Y004625D01*
X031750Y004688D01*
X031750Y004938D01*
X031688Y005000D01*
X031563Y005000D01*
X031500Y004938D01*
X031500Y004625D01*
X017500Y013750D02*
X018000Y013750D01*
X018000Y013438D01*
X017938Y013375D01*
X017813Y013375D01*
X017750Y013438D01*
X017750Y013750D01*
X017750Y013625D02*
X017500Y013375D01*
X017500Y013250D02*
X017500Y013125D01*
X017500Y013188D02*
X018000Y013188D01*
X017938Y013250D01*
X017500Y012625D02*
X017500Y013000D01*
X017625Y013000D01*
X017750Y012875D01*
X017750Y012688D01*
X017813Y012625D01*
X017938Y012625D01*
X018000Y012688D01*
X018000Y012938D01*
X017938Y013000D01*
X023750Y005625D02*
X024250Y005625D01*
X024250Y005313D01*
X024188Y005250D01*
X024063Y005250D01*
X024000Y005313D01*
X024000Y005625D01*
X024000Y005500D02*
X023750Y005250D01*
X023750Y005125D02*
X023750Y005000D01*
X023750Y005063D02*
X024250Y005063D01*
X024188Y005125D01*
X024188Y004875D02*
X024250Y004813D01*
X024250Y004563D01*
X024188Y004500D01*
X024063Y004500D01*
X024000Y004563D01*
X024000Y004750D01*
X024000Y004563D02*
X023938Y004500D01*
X023813Y004500D01*
X023750Y004563D01*
X023750Y004813D01*
X023813Y004875D01*
X026750Y005625D02*
X027250Y005625D01*
X027250Y005313D01*
X027188Y005250D01*
X027063Y005250D01*
X027000Y005313D01*
X027000Y005625D01*
X027000Y005500D02*
X026750Y005250D01*
X026750Y005125D02*
X026750Y005000D01*
X026750Y005063D02*
X027250Y005063D01*
X027188Y005125D01*
X026750Y004563D02*
X027250Y004563D01*
X027250Y004688D01*
X027063Y004875D01*
X026938Y004875D01*
X026938Y004500D01*
X029750Y005625D02*
X030250Y005625D01*
X030250Y005313D01*
X030188Y005250D01*
X030063Y005250D01*
X030000Y005313D01*
X030000Y005625D01*
X030000Y005500D02*
X029750Y005250D01*
X029750Y005125D02*
X029750Y005000D01*
X029750Y005063D02*
X030250Y005063D01*
X030188Y005125D01*
X030250Y004500D02*
X030250Y004875D01*
X030000Y004875D01*
X030000Y004563D01*
X029938Y004500D01*
X029813Y004500D01*
X029750Y004563D01*
X029750Y004813D01*
X029813Y004875D01*
X024750Y012625D02*
X025250Y012625D01*
X025250Y012313D01*
X025188Y012250D01*
X025063Y012250D01*
X025000Y012313D01*
X025000Y012625D01*
X025000Y012500D02*
X024750Y012250D01*
X025250Y011813D02*
X025250Y012000D01*
X025125Y012125D01*
X024813Y012125D01*
X024750Y012063D01*
X024750Y011813D01*
X024813Y011750D01*
X024938Y011750D01*
X025000Y011813D01*
X025000Y012125D01*
X014750Y008500D02*
X015250Y008500D01*
X015250Y008188D01*
X015188Y008125D01*
X015063Y008125D01*
X015000Y008188D01*
X015000Y008500D01*
X015000Y008375D02*
X014750Y008125D01*
X014750Y008000D02*
X014750Y007875D01*
X014750Y007938D02*
X015250Y007938D01*
X015188Y008000D01*
X014750Y007750D02*
X014750Y007625D01*
X014750Y007688D02*
X015250Y007688D01*
X015188Y007750D01*
X035750Y005625D02*
X036250Y005625D01*
X036250Y005313D01*
X036188Y005250D01*
X036063Y005250D01*
X036000Y005313D01*
X036000Y005625D01*
X036000Y005500D02*
X035750Y005250D01*
X035750Y005125D02*
X035750Y005000D01*
X035750Y005063D02*
X036250Y005063D01*
X036188Y005125D01*
X036250Y004563D02*
X036250Y004750D01*
X036125Y004875D01*
X035813Y004875D01*
X035750Y004813D01*
X035750Y004563D01*
X035813Y004500D01*
X035938Y004500D01*
X036000Y004563D01*
X036000Y004875D01*
X038875Y013188D02*
X038813Y013125D01*
X038563Y013125D01*
X038500Y013188D01*
X038500Y013563D01*
X038563Y013625D01*
X038813Y013625D01*
X038875Y013563D01*
X039000Y013563D02*
X039063Y013625D01*
X039313Y013625D01*
X039375Y013563D01*
X039375Y013438D01*
X039313Y013375D01*
X039125Y013375D01*
X039313Y013375D02*
X039375Y013313D01*
X039375Y013188D01*
X039313Y013125D01*
X039063Y013125D01*
X039000Y013188D01*
X009875Y009438D02*
X009813Y009375D01*
X009563Y009375D01*
X009500Y009438D01*
X009500Y009813D01*
X009563Y009875D01*
X009813Y009875D01*
X009875Y009813D01*
X010375Y009375D02*
X010000Y009375D01*
X010000Y009500D01*
X010125Y009625D01*
X010313Y009625D01*
X010375Y009688D01*
X010375Y009813D01*
X010313Y009875D01*
X010063Y009875D01*
X010000Y009813D01*
X014391Y000938D02*
X014391Y000875D01*
X014453Y000813D01*
X014703Y000813D01*
X014766Y000875D01*
X014766Y001313D01*
X014641Y001313D01*
X014891Y000813D02*
X015016Y000813D01*
X014953Y000813D02*
X014953Y001313D01*
X014891Y001250D01*
X023750Y000844D02*
X023750Y000344D01*
X024125Y000344D01*
X024625Y000344D02*
X024250Y000344D01*
X024250Y000844D01*
X024625Y000844D01*
X024250Y000594D02*
X024563Y000594D01*
X024750Y000344D02*
X024750Y000844D01*
X025063Y000844D01*
X025125Y000781D01*
X025125Y000406D01*
X025063Y000344D01*
X024750Y000344D01*
X025250Y000344D02*
X025375Y000344D01*
X025313Y000344D02*
X025313Y000844D01*
X025250Y000781D01*
X029625Y000844D02*
X029625Y000344D01*
X030000Y000344D01*
X030500Y000344D02*
X030125Y000344D01*
X030125Y000844D01*
X030500Y000844D01*
X030125Y000594D02*
X030438Y000594D01*
X030625Y000344D02*
X030625Y000844D01*
X030938Y000844D01*
X031000Y000781D01*
X031000Y000406D01*
X030938Y000344D01*
X030625Y000344D01*
X031125Y000781D02*
X031188Y000844D01*
X031438Y000844D01*
X031500Y000781D01*
X031500Y000656D01*
X031438Y000594D01*
X031250Y000594D01*
X031438Y000594D02*
X031500Y000531D01*
X031500Y000406D01*
X031438Y000344D01*
X031188Y000344D01*
X031125Y000406D01*
X026625Y000844D02*
X026625Y000344D01*
X027000Y000344D01*
X027500Y000344D02*
X027125Y000344D01*
X027125Y000844D01*
X027500Y000844D01*
X027125Y000594D02*
X027438Y000594D01*
X027625Y000344D02*
X027625Y000844D01*
X027938Y000844D01*
X028000Y000781D01*
X028000Y000406D01*
X027938Y000344D01*
X027625Y000344D01*
X028500Y000344D02*
X028125Y000344D01*
X028125Y000469D01*
X028250Y000594D01*
X028438Y000594D01*
X028500Y000656D01*
X028500Y000781D01*
X028438Y000844D01*
X028188Y000844D01*
X028125Y000781D01*
X032750Y000844D02*
X032750Y000344D01*
X033125Y000344D01*
X033625Y000344D02*
X033250Y000344D01*
X033250Y000844D01*
X033625Y000844D01*
X033250Y000594D02*
X033563Y000594D01*
X033750Y000344D02*
X033750Y000844D01*
X034063Y000844D01*
X034125Y000781D01*
X034125Y000406D01*
X034063Y000344D01*
X033750Y000344D01*
X034563Y000344D02*
X034563Y000844D01*
X034438Y000844D01*
X034250Y000656D01*
X034250Y000531D01*
X034625Y000531D01*
X035625Y000844D02*
X035625Y000344D01*
X036000Y000344D01*
X036500Y000344D02*
X036125Y000344D01*
X036125Y000844D01*
X036500Y000844D01*
X036125Y000594D02*
X036438Y000594D01*
X036625Y000344D02*
X036625Y000844D01*
X036938Y000844D01*
X037000Y000781D01*
X037000Y000406D01*
X036938Y000344D01*
X036625Y000344D01*
X037500Y000844D02*
X037125Y000844D01*
X037125Y000594D01*
X037438Y000594D01*
X037500Y000531D01*
X037500Y000406D01*
X037438Y000344D01*
X037188Y000344D01*
X037125Y000406D01*
X039250Y008156D02*
X038938Y008156D01*
X038750Y007969D01*
X038938Y007781D01*
X039250Y007781D01*
X038750Y007656D02*
X039250Y007656D01*
X039250Y007344D01*
X039188Y007281D01*
X039063Y007281D01*
X039000Y007344D01*
X039000Y007656D01*
X039000Y007531D02*
X038750Y007281D01*
X038750Y007156D02*
X038750Y007031D01*
X038750Y007094D02*
X039250Y007094D01*
X039188Y007156D01*
X033500Y015688D02*
X033500Y015625D01*
X033563Y015563D01*
X033813Y015563D01*
X033875Y015625D01*
X033875Y016063D01*
X033750Y016063D01*
X034375Y015563D02*
X034000Y015563D01*
X034000Y015688D01*
X034125Y015813D01*
X034313Y015813D01*
X034375Y015875D01*
X034375Y016000D01*
X034313Y016063D01*
X034063Y016063D01*
X034000Y016000D01*
X010875Y015188D02*
X010813Y015125D01*
X010563Y015125D01*
X010500Y015188D01*
X010500Y015563D01*
X010563Y015625D01*
X010813Y015625D01*
X010875Y015563D01*
X011313Y015125D02*
X011313Y015625D01*
X011188Y015625D01*
X011000Y015438D01*
X011000Y015313D01*
X011375Y015313D01*
X025875Y007688D02*
X025813Y007625D01*
X025563Y007625D01*
X025500Y007688D01*
X025500Y008063D01*
X025563Y008125D01*
X025813Y008125D01*
X025875Y008063D01*
X026313Y008125D02*
X026125Y008125D01*
X026000Y008000D01*
X026000Y007688D01*
X026063Y007625D01*
X026313Y007625D01*
X026375Y007688D01*
X026375Y007813D01*
X026313Y007875D01*
X026000Y007875D01*
X027250Y012875D02*
X027250Y013375D01*
X027563Y013375D01*
X027625Y013313D01*
X027625Y013188D01*
X027563Y013125D01*
X027250Y013125D01*
X027375Y013125D02*
X027625Y012875D01*
X027750Y012875D02*
X027875Y012875D01*
X027813Y012875D02*
X027813Y013375D01*
X027750Y013313D01*
X028063Y013125D02*
X028000Y013063D01*
X028000Y012938D01*
X028063Y012875D01*
X028313Y012875D01*
X028375Y012938D01*
X028375Y013063D01*
X028313Y013125D01*
X028063Y013125D01*
X028000Y013188D01*
X028000Y013313D01*
X028063Y013375D01*
X028313Y013375D01*
X028375Y013313D01*
X028375Y013188D01*
X028313Y013125D01*
X027250Y013875D02*
X027250Y014375D01*
X027563Y014375D01*
X027625Y014313D01*
X027625Y014188D01*
X027563Y014125D01*
X027250Y014125D01*
X027375Y014125D02*
X027625Y013875D01*
X027750Y013875D02*
X027875Y013875D01*
X027813Y013875D02*
X027813Y014375D01*
X027750Y014313D01*
X028000Y014313D02*
X028000Y014375D01*
X028375Y014375D01*
X028375Y014250D01*
X028125Y014000D01*
X028125Y013875D01*
X007500Y007750D02*
X008000Y007750D01*
X008000Y007438D01*
X007938Y007375D01*
X007563Y007375D01*
X007500Y007438D01*
X007500Y007750D01*
X007938Y007250D02*
X008000Y007188D01*
X008000Y006938D01*
X007938Y006875D01*
X007813Y006875D01*
X007750Y006938D01*
X007750Y007125D01*
X007750Y006938D02*
X007688Y006875D01*
X007563Y006875D01*
X007500Y006938D01*
X007500Y007188D01*
X007563Y007250D01*
X017500Y016250D02*
X017500Y016750D01*
X017813Y016750D01*
X017875Y016688D01*
X017875Y016563D01*
X017813Y016500D01*
X017500Y016500D01*
X017625Y016500D02*
X017875Y016250D01*
X018000Y016688D02*
X018063Y016750D01*
X018313Y016750D01*
X018375Y016688D01*
X018375Y016563D01*
X018313Y016500D01*
X018125Y016500D01*
X018313Y016500D02*
X018375Y016438D01*
X018375Y016313D01*
X018313Y016250D01*
X018063Y016250D01*
X018000Y016313D01*
X021875Y010000D02*
X021875Y009563D01*
X021938Y009500D01*
X022188Y009500D01*
X022250Y009563D01*
X022250Y010000D02*
X022250Y009500D01*
X022688Y009500D02*
X022688Y010000D01*
X022563Y010000D01*
X022375Y009813D01*
X022375Y009688D01*
X022750Y009688D01*
X014750Y013125D02*
X014750Y012688D01*
X014813Y012625D01*
X015063Y012625D01*
X015125Y012688D01*
X015125Y013125D02*
X015125Y012625D01*
X015625Y013125D02*
X015250Y013125D01*
X015250Y012875D01*
X015563Y012875D01*
X015625Y012813D01*
X015625Y012688D01*
X015563Y012625D01*
X015313Y012625D01*
X015250Y012688D01*
X024125Y016688D02*
X024063Y016625D01*
X023813Y016625D01*
X023750Y016688D01*
X023750Y017063D01*
X023813Y017125D01*
X024063Y017125D01*
X024125Y017063D01*
X024625Y017125D02*
X024250Y017125D01*
X024250Y016875D01*
X024563Y016875D01*
X024625Y016813D01*
X024625Y016688D01*
X024563Y016625D01*
X024313Y016625D01*
X024250Y016688D01*
M02*
