G04                                                                  *
G04 SOURCE        : LAYO1 PCB.EXE VERSION 10                         *
G04 FORMAT        : GERBER RS-274X, Inch, 2.4, Leading Zero          *
G04 TITLE         : MGV98_SIGNAL BOTTOM                              *
G04 TIME          : Tuesday, November 04, 2008  15:45:56             *
G04                                                                  *
G04 Board width   : 106.680 mm. =  4.2000 inch                       *
G04 Board height  :  48.260 mm. =  1.9000 inch                       *
G04 Board offset  :   0.000 mm. =  0.0000 inch                       *
G04 Board offset  :   0.000 mm. =  0.0000 inch                       *
G04                                                                  *
G04 Apertures:                                                       *
G04       Type          X       Y             X       Y        Used  *
G04                      Inches                Metric                *
G04 D10   Draw        0.0079  0.0079        0.200   0.200         5  *
G04 D11   Round       0.0622  0.0622        1.580   1.580        97  *
G04 D12   Octagon!    0.0622  0.0996        1.580   2.530         5  *
G04 D13   Octagon!    0.0622  0.0996        1.580   2.530         4  *
G04 D14   Round       0.2370  0.2370        6.020   6.020         2  *
G04 D15   Round       0.0394  0.0394        1.000   1.000         1  *
G04 D16   Round       0.2118  0.2118        5.380   5.380         4  *
G04 D17   Draw        0.1125  0.1125        2.858   2.858        12  *
G04 D18   Draw        0.0375  0.0375        0.953   0.953       207  *
G04 D19   Draw        0.0156  0.0156        0.397   0.397         2  *
G04 D20   Round       0.0874  0.0874        2.220   2.220        18  *
G04 D21   Draw        0.0625  0.0625        1.588   1.588         6  *
G04                                                                  *
%FSLAX24Y24*
MOIN*
SFA1.0B1.0*%
%AMCUSTOM12*
4,1,8,
-0.0156,0.0685,
0.0156,0.0685,
0.0311,0.0530,
0.0311,-0.0156,
0.0156,-0.0311,
-0.0156,-0.0311,
-0.0311,-0.0156,
-0.0311,0.0530,
-0.0156,0.0685,
0.0
*%
%AMCUSTOM13*
4,1,8,
-0.0156,0.0311,
0.0156,0.0311,
0.0311,0.0156,
0.0311,-0.0530,
0.0156,-0.0685,
-0.0156,-0.0685,
-0.0311,-0.0530,
-0.0311,0.0156,
-0.0156,0.0311,
0.0
*%
%ADD10C,0.0079*%
%ADD11C,0.0622*%
%ADD12CUSTOM12*%
%ADD13CUSTOM13*%
%ADD14C,0.2370*%
%ADD15C,0.0394*%
%ADD16C,0.2118*%
%ADD17C,0.1125*%
%ADD18C,0.0375*%
%ADD19C,0.0156*%
%ADD20C,0.0874*%
%ADD21C,0.0625*%
%LNSIGNAL BOTTOM*%
G54D10*
X000000Y019000D02*
X000000Y000000D01*
X042000Y000000D01*
X042000Y019000D01*
X000000Y019000D01*
G54D11*
X006750Y011375D03*
X009750Y011375D03*
X029250Y009125D03*
X026250Y012125D03*
X026250Y009125D03*
X032500Y013500D03*
X034500Y009500D03*
X023750Y012125D03*
X029250Y010125D03*
X029875Y015125D03*
X029875Y016125D03*
X014750Y011375D03*
X015000Y006000D03*
X014000Y006000D03*
X007750Y011375D03*
X014000Y010000D03*
X007750Y009000D03*
X025000Y014125D03*
X023750Y011125D03*
X029250Y011125D03*
X025000Y010125D03*
X029875Y013125D03*
X008750Y014375D03*
X023000Y008000D03*
X023750Y010125D03*
X026250Y011125D03*
X025875Y014125D03*
X032500Y009500D03*
X025875Y013125D03*
X029875Y014125D03*
X013000Y006000D03*
X012750Y011375D03*
X008750Y011375D03*
X010000Y007375D03*
X007750Y006000D03*
X024000Y003000D03*
X011750Y014375D03*
X018750Y011125D03*
X020750Y011125D03*
X034000Y006000D03*
X032500Y010500D03*
X032500Y008000D03*
X034500Y013500D03*
X036000Y007000D03*
X011750Y011375D03*
X013000Y010000D03*
X031500Y003000D03*
X020750Y012125D03*
X033500Y005250D03*
X031500Y007000D03*
X012000Y009000D03*
X015000Y010000D03*
X012000Y006000D03*
X010000Y008375D03*
X015750Y011375D03*
X036000Y003000D03*
X020000Y016500D03*
X020750Y014125D03*
X017750Y015125D03*
X014750Y014375D03*
X017750Y011125D03*
X020750Y013125D03*
X027000Y003000D03*
X030000Y003000D03*
X029250Y012125D03*
X028875Y007875D03*
X026250Y010125D03*
X025875Y015125D03*
X026875Y007875D03*
X007750Y014375D03*
X006750Y014375D03*
X034500Y010500D03*
X034500Y008000D03*
X019000Y008000D03*
X018750Y015125D03*
X024000Y007000D03*
X027000Y007000D03*
X030000Y007000D03*
X038000Y012375D03*
X007750Y015375D03*
X016000Y016500D03*
X023750Y009125D03*
X020750Y015125D03*
X020750Y010125D03*
X020750Y009125D03*
X015750Y014375D03*
X021250Y016750D03*
X012750Y014375D03*
X009750Y014375D03*
X033000Y006000D03*
X025875Y016125D03*
X040000Y012375D03*
X009750Y015375D03*
X023750Y013125D03*
X023750Y014125D03*
X023750Y015125D03*
X023250Y016750D03*
G54D12*
X017000Y004000D03*
X015914Y004000D03*
X014828Y004000D03*
X013742Y004000D03*
X012656Y004000D03*
G54D13*
X014289Y003000D03*
X013203Y003000D03*
X016461Y003000D03*
X015375Y003000D03*
G54D14*
X019641Y003500D03*
X009820Y003500D03*
G54D15*
X039000Y004750D03*
G54D16*
X006500Y017500D03*
X040500Y017500D03*
X040500Y001500D03*
X006500Y001500D03*
G54D17*
X039000Y004750D02*
X039000Y003750D01*
X037750Y003750D01*
X037750Y009125D01*
X041375Y009125D01*
X041375Y003750D01*
X038625Y003750D01*
X038625Y008250D01*
X040500Y008250D01*
X040500Y004625D01*
X039625Y004625D01*
X039625Y007875D01*
G54D18*
X029875Y016125D02*
X029875Y015125D01*
X016461Y003000D02*
X017711Y003000D01*
X017711Y007000D01*
X016625Y007000D01*
X016625Y012375D01*
X014750Y012375D01*
X014750Y011375D01*
X014000Y006000D02*
X014000Y005500D01*
X014813Y004688D01*
X014813Y004000D01*
X007750Y009000D02*
X007750Y011375D01*
X025000Y014125D02*
X025000Y011125D01*
X023750Y011125D01*
X023750Y010125D02*
X023000Y010125D01*
X023000Y008000D01*
X026250Y011125D02*
X027000Y011125D01*
X027000Y014125D01*
X025875Y014125D01*
X032500Y009500D02*
X033375Y009500D01*
X033375Y011750D01*
X031000Y011750D01*
X031000Y014125D01*
X029875Y014125D01*
X013000Y006000D02*
X013000Y005500D01*
X013750Y004750D01*
X013750Y004000D01*
X008750Y011375D02*
X008750Y012375D01*
X012750Y012375D01*
X012750Y011375D01*
X010000Y007375D02*
X008750Y007375D01*
X007750Y007375D01*
X007750Y006000D01*
X008750Y011375D02*
X008750Y007375D01*
X012656Y004000D02*
X012656Y004625D01*
X012031Y005250D01*
X011656Y005250D01*
X010406Y005250D01*
X010406Y007375D01*
X010031Y007375D01*
X024000Y003000D02*
X024000Y002000D01*
X011750Y014375D02*
X011750Y013625D01*
X018125Y013625D01*
X018125Y012000D01*
X018750Y012000D01*
X018750Y011125D01*
X020750Y011125D01*
X034000Y006000D02*
X034000Y006875D01*
X032500Y006875D01*
X032500Y008000D01*
X031750Y008000D01*
X031750Y009000D01*
X031750Y010500D01*
X032500Y010500D01*
X032500Y008000D02*
X030750Y008000D01*
X030750Y005375D01*
X025000Y005375D01*
X025000Y002000D01*
X035000Y016000D02*
X035000Y013500D01*
X034500Y013500D01*
X034500Y013500D02*
X036000Y013500D01*
X036000Y007000D01*
X013000Y010000D02*
X011750Y010000D01*
X011750Y011375D01*
X031500Y007000D02*
X031500Y004500D01*
X033500Y004500D01*
X033500Y005250D01*
X012000Y009000D02*
X015000Y009000D01*
X015000Y010000D01*
X010000Y008375D02*
X011000Y008375D01*
X011000Y007875D01*
X011000Y006000D01*
X012000Y006000D01*
X015750Y011375D02*
X015750Y007875D01*
X011000Y007875D01*
X036000Y003000D02*
X034000Y003000D01*
X034000Y002000D01*
X020000Y016500D02*
X019750Y016500D01*
X019750Y014125D01*
X020750Y014125D01*
X020000Y016500D02*
X020000Y017500D01*
X033000Y017500D01*
X033000Y016000D01*
X027000Y002000D02*
X027000Y003000D01*
X030000Y003000D02*
X030000Y002000D01*
X032000Y016000D02*
X032000Y017000D01*
X028500Y017000D01*
X028500Y012125D01*
X029250Y012125D01*
X028500Y012125D02*
X028500Y007875D01*
X028875Y007875D01*
X036000Y016000D02*
X037875Y016000D01*
X037875Y013375D01*
X040875Y013375D01*
X040875Y011000D01*
X040000Y011000D01*
X026875Y007875D02*
X027250Y007875D01*
X027250Y010125D01*
X026250Y010125D01*
X026250Y010125D02*
X027500Y010125D01*
X027500Y015125D01*
X025875Y015125D01*
X034500Y010500D02*
X035250Y010500D01*
X035250Y008000D01*
X034500Y008000D01*
X023750Y009125D02*
X024000Y009125D01*
X024000Y007000D01*
X027000Y007000D01*
X030000Y007000D01*
X020750Y010125D02*
X020750Y009125D01*
X020750Y008000D01*
X019000Y008000D01*
X020750Y008000D02*
X020750Y007000D01*
X024000Y007000D01*
X020750Y015125D02*
X021250Y015125D01*
X021500Y015125D01*
X021500Y010125D01*
X020750Y010125D01*
X016000Y016500D02*
X016000Y014375D01*
X015750Y014375D01*
X021250Y016750D02*
X021250Y015125D01*
X006750Y014375D02*
X007750Y014375D01*
X007750Y015375D01*
X007750Y015375D02*
X007750Y016500D01*
X016000Y016500D01*
X037000Y002000D02*
X037000Y001125D01*
X033000Y001125D01*
X033000Y002000D01*
X031000Y002000D01*
X039000Y011000D02*
X039000Y012375D01*
X040000Y012375D01*
X034000Y016000D02*
X034000Y016875D01*
X038375Y016875D01*
X038375Y014000D01*
X041375Y014000D01*
X041375Y010125D01*
X039000Y010125D01*
X039000Y011000D01*
X023750Y015125D02*
X023750Y014125D01*
X023750Y013125D01*
X009750Y014375D02*
X009750Y015375D01*
X009750Y015375D02*
X012750Y015375D01*
X012750Y014375D01*
X039000Y010125D02*
X036750Y010125D01*
X036750Y003125D01*
X037000Y003125D01*
X037000Y002000D01*
X023250Y016750D02*
X023250Y015125D01*
X023750Y015125D01*
X015375Y003000D02*
X015375Y003375D01*
X015375Y005063D02*
X015375Y006000D01*
X015000Y006000D01*
X029875Y013125D02*
X029875Y011125D01*
X029250Y011125D01*
G54D19*
X015375Y003375D02*
X015375Y005063D01*
G54D20*
X024000Y002000D03*
X025000Y002000D03*
X035000Y016000D03*
X036000Y002000D03*
X034000Y002000D03*
X033000Y016000D03*
X028000Y002000D03*
X027000Y002000D03*
X030000Y002000D03*
X032000Y016000D03*
X040000Y011000D03*
X036000Y016000D03*
X038000Y011000D03*
X031000Y002000D03*
X037000Y002000D03*
X033000Y002000D03*
X039000Y011000D03*
X034000Y016000D03*
G54D21*
X036000Y002000D02*
X036000Y003000D01*
X023250Y016750D02*
X024250Y016750D01*
X024250Y016125D01*
X025875Y016125D01*
M02*
