G04                                                                  *
G04 SOURCE        : LAYO1 PCB.EXE VERSION 10                         *
G04 FORMAT        : GERBER RS-274X, Inch, 2.4, Leading Zero          *
G04 TITLE         : MGV98_SOLDERMASK BOTTOM                          *
G04 TIME          : Tuesday, November 04, 2008  15:45:56             *
G04                                                                  *
G04 Board width   : 106.680 mm. =  4.2000 inch                       *
G04 Board height  :  48.260 mm. =  1.9000 inch                       *
G04 Board offset  :   0.000 mm. =  0.0000 inch                       *
G04 Board offset  :   0.000 mm. =  0.0000 inch                       *
G04                                                                  *
G04 Apertures:                                                       *
G04       Type          X       Y             X       Y        Used  *
G04                      Inches                Metric                *
G04 D10   Draw        0.0079  0.0079        0.200   0.200         5  *
G04 D11   Round       0.0701  0.0701        1.780   1.780        97  *
G04 D12   Octagon!    0.0701  0.1075        1.780   2.730         5  *
G04 D13   Octagon!    0.0701  0.1075        1.780   2.730         4  *
G04 D14   Round       0.2449  0.2449        6.220   6.220         2  *
G04 D15   Round       0.0472  0.0472        1.200   1.200         1  *
G04 D16   Round       0.2197  0.2197        5.580   5.580         4  *
G04 D17   Round       0.0953  0.0953        2.420   2.420        18  *
G04                                                                  *
%FSLAX24Y24*
MOIN*
SFA1.0B1.0*%
%AMCUSTOM12*
4,1,8,
-0.0175,0.0724,
0.0175,0.0724,
0.0350,0.0549,
0.0350,-0.0175,
0.0175,-0.0350,
-0.0175,-0.0350,
-0.0350,-0.0175,
-0.0350,0.0549,
-0.0175,0.0724,
0.0
*%
%AMCUSTOM13*
4,1,8,
-0.0175,0.0350,
0.0175,0.0350,
0.0350,0.0175,
0.0350,-0.0549,
0.0175,-0.0724,
-0.0175,-0.0724,
-0.0350,-0.0549,
-0.0350,0.0175,
-0.0175,0.0350,
0.0
*%
%ADD10C,0.0079*%
%ADD11C,0.0701*%
%ADD12CUSTOM12*%
%ADD13CUSTOM13*%
%ADD14C,0.2449*%
%ADD15C,0.0472*%
%ADD16C,0.2197*%
%ADD17C,0.0953*%
%LNSOLDERMASK BOTTOM*%
G54D10*
X000000Y019000D02*
X000000Y000000D01*
X042000Y000000D01*
X042000Y019000D01*
X000000Y019000D01*
G54D11*
X006750Y011375D03*
X009750Y011375D03*
X029250Y009125D03*
X026250Y012125D03*
X026250Y009125D03*
X032500Y013500D03*
X034500Y009500D03*
X023750Y012125D03*
X029250Y010125D03*
X029875Y015125D03*
X029875Y016125D03*
X014750Y011375D03*
X015000Y006000D03*
X014000Y006000D03*
X007750Y011375D03*
X014000Y010000D03*
X007750Y009000D03*
X025000Y014125D03*
X023750Y011125D03*
X029250Y011125D03*
X025000Y010125D03*
X029875Y013125D03*
X008750Y014375D03*
X023000Y008000D03*
X023750Y010125D03*
X026250Y011125D03*
X025875Y014125D03*
X032500Y009500D03*
X025875Y013125D03*
X029875Y014125D03*
X013000Y006000D03*
X012750Y011375D03*
X008750Y011375D03*
X010000Y007375D03*
X007750Y006000D03*
X024000Y003000D03*
X011750Y014375D03*
X018750Y011125D03*
X020750Y011125D03*
X034000Y006000D03*
X032500Y010500D03*
X032500Y008000D03*
X034500Y013500D03*
X036000Y007000D03*
X011750Y011375D03*
X013000Y010000D03*
X031500Y003000D03*
X020750Y012125D03*
X033500Y005250D03*
X031500Y007000D03*
X012000Y009000D03*
X015000Y010000D03*
X012000Y006000D03*
X010000Y008375D03*
X015750Y011375D03*
X036000Y003000D03*
X020000Y016500D03*
X020750Y014125D03*
X017750Y015125D03*
X014750Y014375D03*
X017750Y011125D03*
X020750Y013125D03*
X027000Y003000D03*
X030000Y003000D03*
X029250Y012125D03*
X028875Y007875D03*
X026250Y010125D03*
X025875Y015125D03*
X026875Y007875D03*
X007750Y014375D03*
X006750Y014375D03*
X034500Y010500D03*
X034500Y008000D03*
X019000Y008000D03*
X018750Y015125D03*
X024000Y007000D03*
X027000Y007000D03*
X030000Y007000D03*
X038000Y012375D03*
X007750Y015375D03*
X016000Y016500D03*
X023750Y009125D03*
X020750Y015125D03*
X020750Y010125D03*
X020750Y009125D03*
X015750Y014375D03*
X021250Y016750D03*
X012750Y014375D03*
X009750Y014375D03*
X033000Y006000D03*
X025875Y016125D03*
X040000Y012375D03*
X009750Y015375D03*
X023750Y013125D03*
X023750Y014125D03*
X023750Y015125D03*
X023250Y016750D03*
G54D12*
X017000Y004000D03*
X015914Y004000D03*
X014828Y004000D03*
X013742Y004000D03*
X012656Y004000D03*
G54D13*
X014289Y003000D03*
X013203Y003000D03*
X016461Y003000D03*
X015375Y003000D03*
G54D14*
X019641Y003500D03*
X009820Y003500D03*
G54D15*
X039000Y004750D03*
G54D16*
X006500Y017500D03*
X040500Y017500D03*
X040500Y001500D03*
X006500Y001500D03*
G54D17*
X024000Y002000D03*
X025000Y002000D03*
X035000Y016000D03*
X036000Y002000D03*
X034000Y002000D03*
X033000Y016000D03*
X028000Y002000D03*
X027000Y002000D03*
X030000Y002000D03*
X032000Y016000D03*
X040000Y011000D03*
X036000Y016000D03*
X038000Y011000D03*
X031000Y002000D03*
X037000Y002000D03*
X033000Y002000D03*
X039000Y011000D03*
X034000Y016000D03*
M02*
